<?xml version="1.0" encoding="utf-8"?>
<!-- Generator: Adobe Illustrator 16.0.0, SVG Export Plug-In . SVG Version: 6.00 Build 0)  -->
<!DOCTYPE svg PUBLIC "-//W3C//DTD SVG 1.1//EN" "http://www.w3.org/Graphics/SVG/1.1/DTD/svg11.dtd">
<svg version="1.1" id="Capa_1" xmlns="http://www.w3.org/2000/svg" xmlns:xlink="http://www.w3.org/1999/xlink" x="0px" y="0px"
	 width="360px" height="240px" viewBox="0 0 360 240" enable-background="new 0 0 360 240" xml:space="preserve">
<g>
	<g>
		<path fill="#AFCB49" d="M360,17.764C360,7.994,352.007,0,342.236,0H17.764C7.994,0,0,7.994,0,17.764v204.473
			C0,232.006,7.994,240,17.764,240h324.473c9.771,0,17.764-7.994,17.764-17.764V17.764z"/>
	</g>
	<g>
		<path fill="#92A537" d="M360,15.358C360,6.911,353.089,0,344.642,0H15.415C6.968,0,0.057,6.911,0.057,15.358V67.19
			c0,8.447,6.911,15.358,15.358,15.358h133.969c8.447,0,18.91,3.951,23.251,8.779s11.273,4.828,15.405,0
			c4.131-4.828,14.423-8.779,22.87-8.779h133.731c8.447,0,15.358-6.911,15.358-15.358V15.358z"/>
	</g>
</g>
</svg>
