<?xml version="1.0" encoding="utf-8"?>
<!-- Generator: Adobe Illustrator 16.0.0, SVG Export Plug-In . SVG Version: 6.00 Build 0)  -->
<!DOCTYPE svg PUBLIC "-//W3C//DTD SVG 1.1//EN" "http://www.w3.org/Graphics/SVG/1.1/DTD/svg11.dtd">
<svg version="1.1" id="Capa_1" xmlns="http://www.w3.org/2000/svg" xmlns:xlink="http://www.w3.org/1999/xlink" x="0px" y="0px"
	 width="20px" height="20px" viewBox="-5.005 -5.005 20 20" enable-background="new -5.005 -5.005 20 20" xml:space="preserve">
<g>
	<path fill="#424143" d="M14.963,4.245c0.008-0.036,0.02-0.064,0.02-0.099c0-0.036-0.008-0.073-0.016-0.104l-0.029-0.076
		c-0.273-2.63-1.576-5.049-3.63-6.721c-0.146-0.118-0.301-0.227-0.455-0.34c-0.012-0.006-0.012-0.013-0.021-0.022
		c-0.01,0-0.016,0-0.023-0.006c-1.695-1.222-3.736-1.874-5.828-1.88c-0.084,0-0.172,0-0.233,0.006
		c-1.112,0.021-2.214,0.234-3.26,0.628C0.586-5.076-0.642-5.204-1.677-4.7c-1.028,0.508-1.681,1.554-1.681,2.702
		C-3.337-1.614-3.25-1.24-3.095-0.886C-3.436-0.422-3.734,0.07-3.992,0.587c-0.006,0.006-0.01,0.016-0.01,0.026
		c-2.369,4.893-0.4,10.787,4.433,13.271c4.834,2.488,10.767,0.66,13.367-4.116c0.709-1.312,1.117-2.773,1.186-4.268
		c0.006-0.155,0.01-0.319,0.01-0.485C14.994,4.757,14.979,4.499,14.963,4.245z M13.99,2.529c-0.043-0.04-0.08-0.078-0.125-0.118
		c-0.434-0.33-0.928-0.576-1.459-0.727c-0.478-0.117-0.979-0.124-1.458-0.016c-0.41,0.094-0.84,0.098-1.25,0.01
		c-0.793-0.176-1.426-0.313-1.76-0.852C7.46,0.063,7.681-1.014,8.188-1.396c0.166-0.117,0.369-0.155,0.57-0.122
		C9.112-1.492,9.472-1.55,9.796-1.69c0.344-0.166,0.652-0.397,0.898-0.688c0.066,0.046,0.127,0.092,0.195,0.142
		C12.389-1.008,13.475,0.655,13.99,2.529z M-0.353-4.334c1.286,0.002,2.334,1.046,2.334,2.336c0,1-1.498,3.287-2.334,4.449
		C-1.15,1.375-1.835,0.225-2.412-0.977C-2.568-1.298-2.664-1.645-2.69-1.998C-2.69-3.288-1.644-4.332-0.353-4.334z M-4.36,5.015
		c0.004-0.624,0.066-1.244,0.187-1.854c0.04,0.464,0.098,0.876,0.151,1.235c0.208,1.369,0.4,2.66,1.41,3.84
		c0.424,0.498,1.13,1.328,2.224,1.453C0.704,9.814,2.07,9.182,2.464,8.986l0.15-0.074c0.21-0.133,0.453-0.207,0.699-0.227
		c0.42,0.039,0.811,0.24,1.093,0.559c0.567,0.629,0.714,1.686,0.308,2.254c-0.132,0.172-0.31,0.297-0.512,0.357
		c-0.353,0.123-0.645,0.354-0.84,0.67c-0.28,0.507-0.332,1.112-0.139,1.671C-1.171,13.339-4.354,9.494-4.36,5.015z M4.981,14.368
		c-0.317,0-0.644-0.018-0.962-0.053c-0.029-0.037-0.054-0.072-0.073-0.107c-0.229-0.422-0.232-0.922-0.009-1.344
		c0.122-0.192,0.307-0.331,0.526-0.39c0.314-0.113,0.598-0.312,0.792-0.586c0.583-0.816,0.417-2.229-0.354-3.09
		c-0.404-0.457-0.975-0.738-1.58-0.777H3.302c-0.35,0.012-0.688,0.109-0.996,0.295L2.17,8.389C1.441,8.746,0.399,9.104-0.316,9.023
		c-0.83-0.096-1.401-0.771-1.788-1.217C-2.986,6.77-3.162,5.62-3.36,4.295C-3.574,3.161-3.583,2.001-3.385,0.86
		c0.18-0.365,0.38-0.71,0.605-1.049c0.01,0.024,0.024,0.046,0.034,0.068c0.02,0.042,0.042,0.084,0.063,0.128
		c0.038,0.062,0.068,0.124,0.103,0.19c0.024,0.042,0.044,0.088,0.07,0.126c0.035,0.062,0.069,0.13,0.107,0.191
		c0.022,0.04,0.044,0.082,0.07,0.124c0.038,0.066,0.072,0.126,0.112,0.188c0.025,0.042,0.052,0.084,0.073,0.126
		c0.04,0.065,0.078,0.128,0.118,0.193c0.024,0.036,0.046,0.076,0.068,0.11c0.048,0.08,0.1,0.158,0.146,0.236
		c0.015,0.02,0.028,0.04,0.04,0.058c0.062,0.094,0.124,0.188,0.183,0.276c0.021,0.038,0.042,0.067,0.067,0.102
		c0.036,0.055,0.07,0.112,0.104,0.162l0.082,0.118C-1.305,2.251-1.28,2.295-1.25,2.333l0.08,0.118c0.02,0.036,0.046,0.069,0.072,0.1
		c0.023,0.036,0.05,0.076,0.073,0.106c0.028,0.04,0.042,0.06,0.062,0.088l0.063,0.094l0.057,0.074l0.054,0.072l0.042,0.06
		l0.042,0.054l0.021,0.038c0.03,0.04,0.057,0.07,0.059,0.078c0.062,0.084,0.164,0.136,0.271,0.136c0.101,0,0.198-0.052,0.265-0.136
		c0.284-0.372,2.735-3.669,2.735-5.213c0-0.098-0.006-0.192-0.012-0.292C2.632-2.316,2.628-2.348,2.624-2.378
		C2.614-2.446,2.604-2.51,2.59-2.58C2.58-2.608,2.578-2.643,2.567-2.674C2.554-2.742,2.54-2.809,2.516-2.876
		c-0.01-0.026-0.014-0.052-0.025-0.08C2.462-3.04,2.424-3.134,2.388-3.216C2.382-3.234,2.374-3.252,2.366-3.271
		C2.33-3.334,2.298-3.408,2.262-3.473C2.246-3.504,2.226-3.532,2.21-3.561C2.174-3.614,2.142-3.664,2.109-3.716
		c-0.023-0.03-0.044-0.062-0.065-0.093C2.034-3.82,2.021-3.836,2.012-3.85C2.706-4.084,3.424-4.23,4.156-4.296
		C3.634-3.312,3.464-2.404,3.658-1.588c0.142,0.544,0.42,1.045,0.8,1.458C4.773,0.261,5,0.537,4.981,0.997
		c-0.025,0.966-1.119,1.777-1.533,2.08c-0.54,0.39-1.145,0.684-1.79,0.865c-0.606,0.2-1.13,0.368-1.328,0.969
		c-0.2,0.787,0.124,1.61,0.806,2.052c0.41,0.229,0.893,0.266,1.33,0.123c0.484-0.111,0.982-0.139,1.47-0.07
		C4.572,7.104,5.12,7.182,5.382,7.545c0.151,0.219,0.146,0.439,0.112,0.848c-0.068,0.586-0.006,1.18,0.175,1.734
		c0.152,0.459,0.381,1.145,0.934,1.227c0.037,0.004,0.072,0.008,0.107,0.008c0.391,0,0.633-0.344,0.883-0.707
		c0.109-0.16,0.234-0.332,0.375-0.508c0.689,1.109,1.387,2.035,1.422,2.078c0.062,0.086,0.16,0.129,0.268,0.129
		s0.205-0.043,0.266-0.129c0.721-0.967,1.385-1.982,1.975-3.043c0.405,0.121,0.8,0.303,1.159,0.531
		C11.386,12.592,8.308,14.368,4.981,14.368z M11.214,5.279c0.496,0.442,0.781,1.072,0.781,1.74c0,0.24-0.098,0.715-0.562,1.619
		c-0.527,0.984-1.121,1.922-1.773,2.824c-0.318-0.441-0.855-1.217-1.34-2.037C8.046,8.975,7.812,8.518,7.599,8.041
		c-0.154-0.32-0.254-0.664-0.279-1.023c0.004-1.292,1.047-2.339,2.338-2.341c0.068,0,0.146,0.006,0.213,0.01
		C10.374,4.737,10.841,4.944,11.214,5.279z M14.311,5.471c-0.053,1.27-0.375,2.512-0.934,3.652c-0.369-0.23-0.758-0.414-1.171-0.543
		c0.257-0.484,0.413-1.016,0.452-1.561c0-1.147-0.649-2.194-1.683-2.7l-0.02-0.013c-0.074-0.032-0.152-0.065-0.227-0.096
		c-0.051-0.021-0.105-0.04-0.164-0.056c-0.035-0.006-0.059-0.022-0.098-0.032c-0.082-0.028-0.172-0.048-0.258-0.064h-0.004
		c-0.053-0.006-0.107-0.012-0.16-0.021C9.188,3.919,8.319,4.181,7.667,4.753C7.013,5.325,6.644,6.15,6.651,7.02
		C6.681,7.463,6.792,7.9,6.983,8.303c0.186,0.422,0.398,0.84,0.633,1.242c-0.207,0.234-0.398,0.473-0.57,0.727
		c-0.09,0.16-0.207,0.303-0.344,0.426c-0.07-0.012-0.189-0.156-0.402-0.781C6.147,9.447,6.099,8.939,6.161,8.447
		c0.084-0.445,0-0.906-0.242-1.289C5.497,6.561,4.752,6.459,4.03,6.352C3.466,6.279,2.892,6.299,2.344,6.428
		c-0.43,0.084-0.63,0.113-0.857-0.031C1.076,6.119,0.87,5.618,0.96,5.123c0.092-0.269,0.36-0.366,0.906-0.544
		c0.712-0.206,1.378-0.528,1.981-0.962c0.484-0.36,1.768-1.305,1.806-2.599c0.02-0.708-0.331-1.143-0.674-1.562
		c-0.315-0.34-0.546-0.752-0.672-1.198C4.13-2.488,4.355-3.358,4.944-4.334h0.042c1.835,0.002,3.63,0.546,5.161,1.56
		C9.972-2.576,9.757-2.412,9.517-2.3C9.288-2.202,9.034-2.162,8.78-2.184C8.427-2.23,8.075-2.139,7.788-1.93
		C7.034-1.358,6.69,0.091,7.374,1.183c0.479,0.774,1.309,0.954,2.215,1.15c0.48,0.104,0.986,0.1,1.469-0.004
		c0.391-0.094,0.799-0.094,1.188,0.004c0.435,0.124,0.845,0.332,1.21,0.607c0.377,0.312,0.664,0.723,0.828,1.185
		c0.027,0.296,0.043,0.59,0.043,0.89C14.326,5.165,14.322,5.317,14.311,5.471L14.311,5.471z"/>
	<path fill="#424143" d="M-0.353-0.994c0.734,0,1.33-0.596,1.33-1.34c0-0.736-0.596-1.334-1.33-1.334
		c-0.739,0-1.335,0.596-1.335,1.334C-1.688-1.592-1.091-0.994-0.353-0.994z M-0.353-2.998c0.364,0,0.666,0.298,0.666,0.664
		c0,0.372-0.302,0.668-0.666,0.668c-0.369,0-0.667-0.296-0.667-0.668C-1.02-2.7-0.719-2.998-0.353-2.998z"/>
	<path fill="#424143" d="M8.321,6.684c0,0.738,0.6,1.338,1.336,1.338c0.732,0,1.334-0.6,1.334-1.338
		c0-0.733-0.602-1.337-1.334-1.337C8.921,5.347,8.321,5.95,8.321,6.684z M10.323,6.684c0,0.369-0.299,0.67-0.666,0.67
		c-0.373,0-0.672-0.301-0.672-0.67c0-0.373,0.299-0.666,0.672-0.666C10.024,6.018,10.323,6.311,10.323,6.684z"/>
</g>
</svg>
