<?xml version="1.0" encoding="utf-8"?>
<!-- Generator: Adobe Illustrator 16.0.0, SVG Export Plug-In . SVG Version: 6.00 Build 0)  -->
<!DOCTYPE svg PUBLIC "-//W3C//DTD SVG 1.1//EN" "http://www.w3.org/Graphics/SVG/1.1/DTD/svg11.dtd">
<svg version="1.1" id="Capa_1" xmlns="http://www.w3.org/2000/svg" xmlns:xlink="http://www.w3.org/1999/xlink" x="0px" y="0px"
	 width="100px" height="100px" viewBox="-25 -25 100 100" enable-background="new -25 -25 100 100" xml:space="preserve">
<g>
	<g>
		<path fill="#AFCB49" d="M75,49.285C75,63.486,63.486,75,49.281,75H0.716C-13.488,75-25,63.486-25,49.285V0.714
			C-25-13.486-13.488-25,0.716-25h48.565C63.486-25,75-13.486,75,0.714V49.285z"/>
	</g>
	<g>
		<path fill="#FFFFFF" d="M0.556,1.692V19.17c0,0.704,0.57,1.268,1.265,1.268h17.478c0.7,0,1.267-0.563,1.267-1.268v-3.314
			c0-0.695-0.566-1.266-1.267-1.266c-0.696,0-1.264,0.57-1.264,1.266v2.051H3.082V2.954h14.952v3.04c0,0.7,0.567,1.268,1.264,1.268
			c0.7,0,1.267-0.567,1.267-1.268V1.692c0-0.7-0.566-1.265-1.267-1.265H1.82C1.126,0.428,0.556,0.992,0.556,1.692z"/>
		<path fill="#FFFFFF" d="M7.938,6.542c-0.7,0-1.265,0.57-1.265,1.271v5.243c0,0.7,0.564,1.261,1.265,1.261h5.245
			c0.694,0,1.263-0.561,1.263-1.261V7.812c0-0.7-0.568-1.271-1.263-1.271H7.938z M11.918,11.788H9.204V9.072h2.714V11.788z"/>
		<path fill="#FFFFFF" d="M19.298,29.461H1.82c-0.694,0-1.265,0.559-1.265,1.266v17.477c0,0.701,0.57,1.266,1.265,1.266h17.478
			c0.7,0,1.267-0.564,1.267-1.266V30.727C20.564,30.023,19.998,29.461,19.298,29.461z M18.034,46.941H3.082V31.99h14.952V46.941z"/>
		<path fill="#FFFFFF" d="M30.941,20.438H48.42c0.701,0,1.264-0.563,1.264-1.268V1.692c0-0.7-0.562-1.265-1.264-1.265H30.941
			c-0.699,0-1.264,0.564-1.264,1.265V19.17C29.678,19.874,30.244,20.438,30.941,20.438z M32.207,2.956H47.16v14.952H32.207V2.956z"
			/>
		<path fill="#FFFFFF" d="M49.684,48.207V30.73c0-0.707-0.562-1.27-1.264-1.27H30.941c-0.699,0-1.264,0.562-1.264,1.27v17.477
			c0,0.701,0.564,1.262,1.264,1.262H48.42C49.121,49.469,49.684,48.904,49.684,48.207z M47.158,46.941H32.207V31.99h14.951V46.941z"
			/>
		<path fill="#FFFFFF" d="M48.42,26.289c0.701,0,1.264-0.563,1.264-1.268c0-0.695-0.562-1.26-1.264-1.26H26.262V1.548
			c0-0.696-0.563-1.264-1.264-1.264s-1.264,0.567-1.264,1.264V23.76H6.956c-0.698,0-1.262,0.564-1.262,1.26
			c0,0.709,0.563,1.27,1.262,1.27h16.778v21.914c0,0.703,0.563,1.266,1.264,1.266s1.264-0.562,1.264-1.266V26.289H48.42z"/>
		<path fill="#FFFFFF" d="M7.938,43.445h5.245c0.694,0,1.263-0.562,1.263-1.264v-5.244c0-0.695-0.568-1.264-1.263-1.264H7.938
			c-0.7,0-1.265,0.568-1.265,1.264v5.244C6.674,42.879,7.24,43.445,7.938,43.445z M9.204,38.203h2.714v2.715H9.204V38.203z"/>
		<path fill="#FFFFFF" d="M42.301,6.542h-5.238c-0.699,0-1.27,0.57-1.27,1.271v5.243c0,0.7,0.57,1.261,1.27,1.261h5.238
			c0.701,0,1.271-0.561,1.271-1.261V7.812C43.572,7.112,43,6.542,42.301,6.542z M41.039,11.788h-2.715V9.072h2.715V11.788z"/>
		<path fill="#FFFFFF" d="M37.062,43.445h5.238c0.701,0,1.271-0.562,1.271-1.264v-5.244c0-0.695-0.57-1.264-1.271-1.264h-5.238
			c-0.699,0-1.27,0.568-1.27,1.264v5.244C35.793,42.879,36.363,43.445,37.062,43.445z M38.322,38.203h2.717v2.715h-2.717V38.203z"/>
		<path fill="#FFFFFF" d="M1.56,23.766l-0.065,0.013c-0.678,0.164-1.098,0.842-0.938,1.523c0.137,0.582,0.656,0.976,1.227,0.976
			c0.102,0,0.195-0.014,0.292-0.035l0.065-0.016c0.685-0.16,1.103-0.843,0.942-1.521C2.924,24.03,2.244,23.605,1.56,23.766z"/>
		<path fill="#FFFFFF" d="M19.044,9.664l-0.066,0.018c-0.68,0.158-1.102,0.836-0.943,1.521c0.138,0.586,0.658,0.978,1.229,0.978
			c0.097,0,0.194-0.016,0.29-0.038l0.068-0.018c0.68-0.158,1.1-0.842,0.942-1.516C20.404,9.928,19.726,9.502,19.044,9.664z"/>
		<path fill="#FFFFFF" d="M-5.964,3.152c0.698,0,1.262-0.566,1.262-1.267v-6.558h6.324c0.7,0,1.266-0.564,1.266-1.264
			c0-0.7-0.565-1.265-1.266-1.265h-7.586C-6.66-7.2-7.23-6.636-7.23-5.936v7.821C-7.23,2.586-6.66,3.152-5.964,3.152z"/>
		<path fill="#FFFFFF" d="M55.961-7.2h-7.582c-0.701,0-1.27,0.564-1.27,1.265c0,0.699,0.568,1.264,1.27,1.264h6.32v6.558
			c0,0.7,0.562,1.267,1.262,1.267c0.697,0,1.266-0.566,1.266-1.267v-7.821C57.227-6.634,56.658-7.2,55.961-7.2z"/>
		<path fill="#FFFFFF" d="M1.622,54.676h-6.324v-6.559c0-0.699-0.563-1.266-1.262-1.266c-0.696,0-1.267,0.566-1.267,1.266v7.824
			c0,0.695,0.57,1.262,1.267,1.262h7.586c0.7,0,1.266-0.566,1.266-1.262C2.888,55.24,2.322,54.676,1.622,54.676z"/>
		<path fill="#FFFFFF" d="M55.961,46.852c-0.699,0-1.262,0.566-1.262,1.266v6.559h-6.32c-0.701,0-1.27,0.564-1.27,1.266
			c0,0.695,0.568,1.262,1.27,1.262h7.582c0.697,0,1.266-0.566,1.266-1.262v-7.824C57.227,47.418,56.658,46.852,55.961,46.852z"/>
	</g>
</g>
</svg>
