<?xml version="1.0" encoding="utf-8"?>
<!-- Generator: Adobe Illustrator 16.0.0, SVG Export Plug-In . SVG Version: 6.00 Build 0)  -->
<!DOCTYPE svg PUBLIC "-//W3C//DTD SVG 1.1//EN" "http://www.w3.org/Graphics/SVG/1.1/DTD/svg11.dtd">
<svg version="1.1" id="Capa_1" xmlns="http://www.w3.org/2000/svg" xmlns:xlink="http://www.w3.org/1999/xlink" x="0px" y="0px"
	 width="32px" height="32px" viewBox="-8 -8 32 32" enable-background="new -8 -8 32 32" xml:space="preserve">
<g>
	<polygon fill="#424143" points="21.207,13.996 8.638,23 8.638,3.188 23,-2.216 	"/>
	<polygon fill="#FFFFFF" points="-5.206,13.996 7.362,23 7.362,3.188 -7,-2.216 	"/>
	<polygon fill="#AFCB49" points="-6.7,-3.398 7.66,2.008 22.018,-3.398 7.66,-7 	"/>
	<path fill="#AFCB49" d="M5.844,6.042l-6.632,6.876c0,0-0.33-0.74-0.118-1.707C-0.204,7.958,3.522,6.492,5.844,6.042"/>
	<path fill="#709F76" d="M-2.85,7.53l3.206,6.202c0,0-1.116,0.158-1.994-1.189c-0.88-1.348-1.196-3.593-1.2-3.961
		C-2.846,8.208-2.85,7.53-2.85,7.53"/>
</g>
</svg>
