<?xml version="1.0" encoding="utf-8"?>
<!-- Generator: Adobe Illustrator 16.0.0, SVG Export Plug-In . SVG Version: 6.00 Build 0)  -->
<!DOCTYPE svg PUBLIC "-//W3C//DTD SVG 1.1//EN" "http://www.w3.org/Graphics/SVG/1.1/DTD/svg11.dtd">
<svg version="1.1" id="Capa_1" xmlns="http://www.w3.org/2000/svg" xmlns:xlink="http://www.w3.org/1999/xlink" x="0px" y="0px"
	 width="50px" height="50px" viewBox="-12.5 -12.5 50 50" enable-background="new -12.5 -12.5 50 50" xml:space="preserve">
<g>
	<g>
		<path fill="#AFCB49" d="M37.5,24.645c0,7.098-5.754,12.855-12.859,12.855H0.358c-7.101,0-12.858-5.758-12.858-12.855V0.355
			C-12.5-6.746-6.742-12.5,0.358-12.5h24.286C31.746-12.5,37.5-6.746,37.5,0.355V24.645z"/>
	</g>
	<g>
		<path fill="#FFFFFF" d="M12.502,7.514c-3.936,0-7.124,3.19-7.124,7.127c0,3.934,3.188,7.121,7.124,7.121
			c3.932,0,7.123-3.188,7.123-7.121C19.625,10.704,16.434,7.514,12.502,7.514z M12.502,19.617c-2.754,0-4.976-2.227-4.976-4.977
			c0-2.749,2.222-4.977,4.976-4.977c2.75,0,4.979,2.226,4.979,4.977C17.48,17.391,15.252,19.617,12.502,19.617z"/>
		<path fill="#FFFFFF" d="M25.801,6.632V5.22h-2.988v0.847l-0.486-0.084c-1.768-0.307-3.395-1.511-3.619-2.677
			c-0.215-1.098-1.688-1.998-3.355-2.102V0.434h-1.492v0.748H10.9V0.434H9.406v0.784C7.84,1.392,6.498,2.264,6.292,3.306
			C6.068,4.472,4.44,5.674,2.674,5.982L2.306,6.046V5.22H-0.68V6.6c-1.599,0.458-2.856,2.049-2.856,3.717v10.992
			c0,1.789,1.466,3.258,3.262,3.258h3.71c1.799,0,3.463,0,3.721,0c0.248,0,1.916,0,3.714,0h3.255c1.797,0,3.465,0,3.721,0
			c0.25,0,1.918,0,3.713,0h3.715c1.791,0,3.258-1.469,3.258-3.258V10.316C28.535,8.688,27.348,7.14,25.801,6.632z M9.406,3.254
			h5.947v1.084H9.406V3.254z M12.502,23.023c-4.63,0-8.38-3.754-8.38-8.383s3.75-8.381,8.38-8.381c4.627,0,8.381,3.752,8.381,8.381
			S17.129,23.023,12.502,23.023z"/>
	</g>
</g>
</svg>
