<?xml version="1.0" encoding="utf-8"?>
<!-- Generator: Adobe Illustrator 16.0.0, SVG Export Plug-In . SVG Version: 6.00 Build 0)  -->
<!DOCTYPE svg PUBLIC "-//W3C//DTD SVG 1.1//EN" "http://www.w3.org/Graphics/SVG/1.1/DTD/svg11.dtd">
<svg version="1.1" id="Capa_1" xmlns="http://www.w3.org/2000/svg" xmlns:xlink="http://www.w3.org/1999/xlink" x="0px" y="0px"
	 width="100px" height="100px" viewBox="-25 -25 100 100" enable-background="new -25 -25 100 100" xml:space="preserve">
<g>
	<g>
		<path fill="#AFCB49" d="M75,49.285C75,63.484,63.486,75,49.285,75H0.716C-13.486,75-25,63.484-25,49.285V0.716
			C-25-13.484-13.486-25,0.716-25h48.569C63.486-25,75-13.484,75,0.716V49.285z"/>
	</g>
	<g>
		<path fill="#FFFFFF" d="M-3.692,47.121V26.797c0-0.664-0.54-1.203-1.197-1.203c-0.658,0-1.198,0.539-1.198,1.203v20.324
			c0,0.66,0.54,1.193,1.198,1.193C-4.232,48.314-3.692,47.781-3.692,47.121z"/>
		<path fill="#FFFFFF" d="M56.082,47.121V26.797c0-0.664-0.531-1.203-1.195-1.203c-0.66,0-1.195,0.539-1.195,1.203v20.324
			c0,0.66,0.535,1.193,1.195,1.193C55.551,48.314,56.082,47.781,56.082,47.121z"/>
		<path fill="#FFFFFF" d="M-0.104,25.598c-0.662,0-1.196,0.539-1.196,1.199v10.758c0,0.664,0.534,1.199,1.196,1.199
			c0.655,0,1.193-0.535,1.193-1.199V26.797C1.088,26.133,0.552,25.598-0.104,25.598z"/>
		<path fill="#FFFFFF" d="M3.478,25.598c-0.655,0-1.191,0.539-1.191,1.199v10.758c0,0.664,0.536,1.199,1.191,1.199
			c0.662,0,1.198-0.535,1.198-1.199V26.797C4.674,26.133,4.14,25.598,3.478,25.598z"/>
		<path fill="#FFFFFF" d="M10.652,37.555V26.797c0-0.664-0.536-1.203-1.192-1.203c-0.662,0-1.198,0.539-1.198,1.203v10.758
			c0,0.66,0.536,1.195,1.198,1.195C10.116,38.75,10.652,38.215,10.652,37.555z"/>
		<path fill="#FFFFFF" d="M14.24,37.555V26.797c0-0.664-0.536-1.203-1.194-1.203c-0.662,0-1.198,0.539-1.198,1.203v10.758
			c0,0.66,0.536,1.195,1.198,1.195C13.704,38.75,14.24,38.215,14.24,37.555z"/>
		<path fill="#FFFFFF" d="M17.826,37.555V26.797c0-0.664-0.536-1.203-1.198-1.203s-1.192,0.539-1.192,1.203v10.758
			c0,0.66,0.532,1.195,1.192,1.195S17.826,38.215,17.826,37.555z"/>
		<path fill="#FFFFFF" d="M25,37.555V26.797c0-0.664-0.536-1.203-1.198-1.203s-1.191,0.539-1.191,1.203v10.758
			c0,0.66,0.531,1.195,1.191,1.195S25,38.215,25,37.555z"/>
		<path fill="#FFFFFF" d="M30.977,26.797c0-0.664-0.535-1.203-1.195-1.203s-1.197,0.539-1.197,1.203v10.758
			c0,0.66,0.533,1.195,1.197,1.195c0.66,0,1.195-0.535,1.195-1.195V26.797z"/>
		<path fill="#FFFFFF" d="M34.564,26.797c0-0.664-0.537-1.203-1.197-1.203c-0.664,0-1.197,0.539-1.197,1.203v10.758
			c0,0.66,0.533,1.195,1.197,1.195c0.66,0,1.197-0.535,1.197-1.195V26.797L34.564,26.797z"/>
		<path fill="#FFFFFF" d="M39.344,25.598c-0.658,0-1.193,0.539-1.193,1.199v10.758c0,0.664,0.535,1.199,1.193,1.199
			c0.66,0,1.195-0.535,1.195-1.199V26.797C40.539,26.133,40.004,25.598,39.344,25.598z"/>
		<path fill="#FFFFFF" d="M42.93,25.598c-0.656,0-1.193,0.539-1.193,1.199v10.758c0,0.664,0.537,1.199,1.193,1.199
			c0.662,0,1.199-0.535,1.199-1.199V26.797C44.129,26.133,43.592,25.598,42.93,25.598z"/>
		<path fill="#FFFFFF" d="M50.104,38.75c0.662,0,1.197-0.535,1.197-1.195V26.797c0-0.664-0.535-1.203-1.197-1.203
			s-1.197,0.539-1.197,1.203v10.758C48.908,38.215,49.445,38.75,50.104,38.75z"/>
		<path fill="#FFFFFF" d="M-6.086,2.882V19.62c0,0.658,0.54,1.196,1.198,1.196c0.657,0,1.197-0.538,1.197-1.196V2.882
			c0-0.66-0.54-1.194-1.197-1.194C-5.546,1.688-6.086,2.222-6.086,2.882z"/>
		<path fill="#FFFFFF" d="M56.082,19.622V2.884c0-0.66-0.531-1.194-1.195-1.194c-0.66,0-1.195,0.534-1.195,1.194v16.738
			c0,0.658,0.535,1.196,1.195,1.196C55.551,20.818,56.082,20.28,56.082,19.622z"/>
		<path fill="#FFFFFF" d="M-1.3,19.622c0,0.658,0.534,1.196,1.196,1.196c0.655,0,1.193-0.538,1.193-1.196V2.884
			c0-0.66-0.538-1.194-1.193-1.194c-0.662,0-1.196,0.534-1.196,1.194V19.622z"/>
		<path fill="#FFFFFF" d="M3.478,20.816c0.662,0,1.198-0.538,1.198-1.196V2.882c0-0.66-0.536-1.194-1.198-1.194
			c-0.655,0-1.191,0.534-1.191,1.194V19.62C2.286,20.28,2.822,20.816,3.478,20.816z"/>
		<path fill="#FFFFFF" d="M9.46,20.816c0.656,0,1.192-0.538,1.192-1.196V2.882c0-0.66-0.536-1.194-1.192-1.194
			c-0.662,0-1.198,0.534-1.198,1.194V19.62C8.262,20.28,8.798,20.816,9.46,20.816z"/>
		<path fill="#FFFFFF" d="M13.046,20.816c0.658,0,1.194-0.538,1.194-1.196V2.882c0-0.66-0.536-1.194-1.194-1.194
			c-0.662,0-1.198,0.534-1.198,1.194V19.62C11.848,20.28,12.384,20.816,13.046,20.816z"/>
		<path fill="#FFFFFF" d="M16.628,20.816c0.662,0,1.198-0.538,1.198-1.196V2.882c0-0.66-0.536-1.194-1.198-1.194
			s-1.192,0.534-1.192,1.194V19.62C15.436,20.28,15.968,20.816,16.628,20.816z"/>
		<path fill="#FFFFFF" d="M23.802,20.816c0.662,0,1.198-0.538,1.198-1.196V2.882c0-0.66-0.536-1.194-1.198-1.194
			S22.61,2.222,22.61,2.882V19.62C22.61,20.28,23.142,20.816,23.802,20.816z"/>
		<path fill="#FFFFFF" d="M29.781,20.816c0.66,0,1.195-0.538,1.195-1.196V2.882c0-0.66-0.535-1.194-1.195-1.194
			s-1.195,0.534-1.195,1.194V19.62C28.586,20.28,29.121,20.816,29.781,20.816z"/>
		<path fill="#FFFFFF" d="M33.367,20.816c0.664,0,1.201-0.538,1.201-1.196V2.882c0-0.66-0.537-1.194-1.201-1.194
			c-0.66,0-1.193,0.534-1.193,1.194V19.62C32.174,20.28,32.707,20.816,33.367,20.816z"/>
		<path fill="#FFFFFF" d="M39.344,20.816c0.66,0,1.195-0.538,1.195-1.196V2.882c0-0.66-0.535-1.194-1.195-1.194
			c-0.658,0-1.193,0.534-1.193,1.194V19.62C38.152,20.28,38.686,20.816,39.344,20.816z"/>
		<path fill="#FFFFFF" d="M42.93,20.816c0.662,0,1.199-0.538,1.199-1.196V2.882c0-0.66-0.537-1.194-1.199-1.194
			c-0.656,0-1.193,0.534-1.193,1.194V19.62C41.738,20.28,42.273,20.816,42.93,20.816z"/>
		<path fill="#FFFFFF" d="M50.104,20.816c0.662,0,1.197-0.538,1.197-1.196V2.882c0-0.66-0.535-1.194-1.197-1.194
			s-1.197,0.534-1.197,1.194V19.62C48.908,20.28,49.445,20.816,50.104,20.816z"/>
		<path fill="#FFFFFF" d="M-0.104,42.336c-0.662,0-1.196,0.535-1.196,1.199v1.195c0,0.66,0.534,1.195,1.196,1.195
			c0.655,0,1.193-0.535,1.193-1.195v-1.195C1.088,42.871,0.552,42.336-0.104,42.336z"/>
		<path fill="#FFFFFF" d="M3.478,42.336c-0.655,0-1.191,0.535-1.191,1.199v1.195c0,0.66,0.536,1.195,1.191,1.195
			c0.662,0,1.198-0.535,1.198-1.195v-1.195C4.674,42.871,4.14,42.336,3.478,42.336z"/>
		<path fill="#FFFFFF" d="M7.064,42.336c-0.658,0-1.192,0.535-1.192,1.199v1.195c0,0.66,0.536,1.195,1.192,1.195
			c0.661,0,1.197-0.535,1.197-1.195v-1.195C8.262,42.871,7.726,42.336,7.064,42.336z"/>
		<path fill="#FFFFFF" d="M10.652,42.336c-0.658,0-1.192,0.535-1.192,1.199v1.195c0,0.66,0.534,1.195,1.192,1.195
			c0.662,0,1.197-0.535,1.197-1.195v-1.195C11.848,42.871,11.312,42.336,10.652,42.336z"/>
		<path fill="#FFFFFF" d="M14.24,42.336c-0.658,0-1.194,0.535-1.194,1.199v1.195c0,0.66,0.536,1.195,1.194,1.195
			c0.656,0,1.198-0.535,1.198-1.195v-1.195C15.436,42.871,14.896,42.336,14.24,42.336z"/>
		<path fill="#FFFFFF" d="M17.826,42.336c-0.662,0-1.198,0.535-1.198,1.199v1.195c0,0.66,0.536,1.195,1.198,1.195
			s1.198-0.535,1.198-1.195v-1.195C19.024,42.871,18.488,42.336,17.826,42.336z"/>
		<path fill="#FFFFFF" d="M21.414,42.336c-0.662,0-1.198,0.535-1.198,1.199v1.195c0,0.66,0.536,1.195,1.198,1.195
			s1.198-0.535,1.198-1.195v-1.195C22.61,42.871,22.074,42.336,21.414,42.336z"/>
		<path fill="#FFFFFF" d="M25,42.336c-0.662,0-1.198,0.535-1.198,1.199v1.195c0,0.66,0.536,1.195,1.198,1.195
			s1.195-0.535,1.195-1.195v-1.195C26.195,42.871,25.662,42.336,25,42.336z"/>
		<path fill="#FFFFFF" d="M28.586,42.336c-0.662,0-1.199,0.535-1.199,1.199v1.195c0,0.66,0.537,1.195,1.199,1.195
			s1.195-0.535,1.195-1.195v-1.195C29.781,42.871,29.248,42.336,28.586,42.336z"/>
		<path fill="#FFFFFF" d="M32.174,42.336c-0.662,0-1.197,0.535-1.197,1.199v1.195c0,0.66,0.535,1.195,1.197,1.195
			s1.193-0.535,1.193-1.195v-1.195C33.367,42.871,32.836,42.336,32.174,42.336z"/>
		<path fill="#FFFFFF" d="M35.762,42.336c-0.664,0-1.197,0.535-1.197,1.199v1.195c0,0.66,0.533,1.195,1.197,1.195
			c0.662,0,1.191-0.535,1.191-1.195v-1.195C36.953,42.871,36.422,42.336,35.762,42.336z"/>
		<path fill="#FFFFFF" d="M39.344,42.336c-0.658,0-1.193,0.535-1.193,1.199v1.195c0,0.66,0.535,1.195,1.193,1.195
			c0.66,0,1.195-0.535,1.195-1.195v-1.195C40.539,42.871,40.004,42.336,39.344,42.336z"/>
		<path fill="#FFFFFF" d="M42.93,42.336c-0.656,0-1.193,0.535-1.193,1.199v1.195c0,0.66,0.537,1.195,1.193,1.195
			c0.662,0,1.199-0.535,1.199-1.195v-1.195C44.129,42.871,43.592,42.336,42.93,42.336z"/>
		<path fill="#FFFFFF" d="M46.518,42.336c-0.658,0-1.191,0.535-1.191,1.199v1.195c0,0.66,0.537,1.195,1.191,1.195
			c0.662,0,1.197-0.535,1.197-1.195v-1.195C47.715,42.871,47.178,42.336,46.518,42.336z"/>
		<path fill="#FFFFFF" d="M51.301,43.535c0-0.664-0.537-1.199-1.199-1.199c-0.66,0-1.197,0.535-1.197,1.199v1.195
			c0,0.66,0.537,1.195,1.197,1.195c0.662,0,1.199-0.535,1.199-1.195V43.535z"/>
		<path fill="#FFFFFF" d="M-1.3,53.096h-7.176v-5.975c0-0.664-0.536-1.199-1.194-1.199c-0.662,0-1.196,0.535-1.196,1.199v8.369
			h9.564c0.658,0,1.195-0.537,1.195-1.197C-0.104,53.629-0.644,53.096-1.3,53.096z"/>
		<path fill="#FFFFFF" d="M59.668,45.922c-0.658,0-1.195,0.535-1.195,1.199v5.975h-5.98c-0.658,0-1.191,0.537-1.191,1.197
			s0.535,1.197,1.191,1.197h8.371v-8.369C60.867,46.457,60.33,45.922,59.668,45.922z"/>
		<path fill="#FFFFFF" d="M51.301-5.484c-0.66,0-1.199,0.536-1.199,1.196s0.539,1.196,1.199,1.196h7.176v5.976
			c0,0.662,0.535,1.198,1.193,1.198c0.662,0,1.197-0.536,1.197-1.198v-8.368H51.301z"/>
		<path fill="#FFFFFF" d="M-9.668,4.08c0.658,0,1.194-0.536,1.194-1.198v-5.976h5.978c0.658,0,1.198-0.536,1.198-1.196
			s-0.54-1.196-1.198-1.196h-8.37v8.368C-10.866,3.544-10.33,4.08-9.668,4.08z"/>
		<path fill="#FFFFFF" d="M59.668,22.012H-9.668c-0.662,0-1.196,0.536-1.196,1.198c0,0.66,0.536,1.196,1.196,1.196H59.67
			c0.662,0,1.197-0.536,1.197-1.196C60.867,22.546,60.33,22.012,59.668,22.012z"/>
	</g>
</g>
</svg>
