<?xml version="1.0" encoding="utf-8"?>
<!-- Generator: Adobe Illustrator 16.0.0, SVG Export Plug-In . SVG Version: 6.00 Build 0)  -->
<!DOCTYPE svg PUBLIC "-//W3C//DTD SVG 1.1//EN" "http://www.w3.org/Graphics/SVG/1.1/DTD/svg11.dtd">
<svg version="1.1" id="Capa_1" xmlns="http://www.w3.org/2000/svg" xmlns:xlink="http://www.w3.org/1999/xlink" x="0px" y="0px"
	 width="20px" height="20px" viewBox="-5.005 -5.005 20 20" enable-background="new -5.005 -5.005 20 20" xml:space="preserve">
<g>
	<path fill="#424143" d="M14.944,8.798c-0.137-0.414-0.525-0.693-0.965-0.689h-0.441V-2.65c0-0.186-0.152-0.336-0.336-0.336H8.479
		V-4.67c0-0.185-0.152-0.334-0.34-0.334H-4.667c-0.19,0-0.338,0.149-0.338,0.334v17.484c0,0.189,0.149,0.34,0.338,0.34H6.471
		l-0.168,0.516c-0.139,0.42,0.012,0.879,0.365,1.129c0.355,0.258,0.837,0.254,1.194,0l1.766-1.285c0.125-0.088,0.287-0.088,0.402,0
		l1.77,1.285c0.357,0.262,0.836,0.262,1.191,0c0.359-0.25,0.506-0.709,0.365-1.127l-0.676-2.08
		c-0.045-0.137,0.006-0.289,0.123-0.375l1.775-1.281C14.933,9.679,15.081,9.216,14.944,8.798z M12.862-2.312V8.108h-1.074
		c-0.035,0-0.07-0.008-0.104-0.02c-0.1-0.033-0.182-0.111-0.221-0.209L10.792,5.8c-0.135-0.417-0.523-0.694-0.963-0.694
		S9.005,5.382,8.87,5.8L8.479,6.989V3.737h2.697c0.189,0,0.338-0.15,0.338-0.336c0-0.187-0.148-0.337-0.338-0.337H8.479V1.72h2.697
		c0.189,0,0.338-0.149,0.338-0.336c0-0.186-0.148-0.334-0.338-0.334H8.479v-1.346h2.697c0.189,0,0.338-0.15,0.338-0.336
		c0-0.188-0.148-0.334-0.338-0.334H8.479v-1.347H12.862z M-4.335,12.481V-4.333H7.804V8.112h-2.13
		C5.236,8.108,4.846,8.392,4.712,8.806C4.576,9.224,4.724,9.681,5.08,9.937l1.773,1.283c0.121,0.086,0.166,0.234,0.125,0.375
		l-0.291,0.887H-4.335L-4.335,12.481z M14.177,9.388l-1.773,1.289c-0.357,0.256-0.502,0.707-0.369,1.121l0.676,2.082
		c0.049,0.137,0,0.291-0.119,0.377s-0.275,0.086-0.396,0l-1.771-1.287c-0.357-0.254-0.836-0.254-1.193,0l-1.77,1.287
		c-0.117,0.086-0.279,0.086-0.396,0c-0.121-0.086-0.168-0.238-0.121-0.373l0.677-2.082c0.135-0.414-0.014-0.873-0.373-1.125
		L5.474,9.392C5.357,9.31,5.304,9.155,5.352,9.015c0.046-0.139,0.177-0.232,0.322-0.229h2.192c0.139,0,0.281-0.033,0.406-0.092
		L8.28,8.69h0.004c0.008-0.004,0.012-0.008,0.012-0.01c0.25-0.117,0.445-0.33,0.531-0.596l0.68-2.078
		C9.55,5.872,9.679,5.78,9.827,5.78c0.145,0,0.275,0.092,0.32,0.227l0.678,2.082c0.135,0.412,0.523,0.693,0.959,0.697h2.191
		c0.145-0.004,0.281,0.09,0.32,0.229C14.343,9.151,14.296,9.306,14.177,9.388L14.177,9.388L14.177,9.388z"/>
	<path fill="#424143" d="M-1.972-1.641h7.418c0.186,0,0.336-0.147,0.336-0.336c0-0.186-0.15-0.334-0.336-0.334h-7.418
		c-0.187,0-0.336,0.148-0.336,0.334C-2.308-1.788-2.161-1.641-1.972-1.641z"/>
	<path fill="#424143" d="M-1.972,1.05h7.418c0.186,0,0.336-0.154,0.336-0.338c0-0.187-0.15-0.338-0.336-0.338h-7.418
		c-0.187,0-0.336,0.152-0.336,0.338C-2.308,0.898-2.161,1.05-1.972,1.05z"/>
	<path fill="#424143" d="M-1.972,3.737h7.418c0.186,0,0.336-0.15,0.336-0.336c0-0.187-0.152-0.337-0.336-0.337h-7.418
		c-0.187,0-0.336,0.15-0.336,0.337C-2.308,3.586-2.161,3.737-1.972,3.737z"/>
	<path fill="#424143" d="M5.782,6.093c0-0.189-0.15-0.338-0.336-0.338h-7.418c-0.187,0-0.336,0.148-0.336,0.338
		s0.149,0.334,0.336,0.334h7.418C5.628,6.427,5.782,6.282,5.782,6.093z"/>
</g>
</svg>
