<?xml version="1.0" encoding="utf-8"?>
<!-- Generator: Adobe Illustrator 16.0.0, SVG Export Plug-In . SVG Version: 6.00 Build 0)  -->
<!DOCTYPE svg PUBLIC "-//W3C//DTD SVG 1.1//EN" "http://www.w3.org/Graphics/SVG/1.1/DTD/svg11.dtd">
<svg version="1.1" id="Capa_1" xmlns="http://www.w3.org/2000/svg" xmlns:xlink="http://www.w3.org/1999/xlink" x="0px" y="0px"
	 width="200.074px" height="52.318px" viewBox="0 -0.037 200.074 52.318" enable-background="new 0 -0.037 200.074 52.318"
	 xml:space="preserve">
<g>
	<path fill="#FFFFFF" d="M186.541,39.219h-9.691l-5.691-8.643l-5.93,8.643h-9.805l10.539-14.096l-9.93-13.28h9.318l5.568,8.23
		l6.176-8.853c0.725-1.229,1.934-1.846,3.625-1.846h7.266l-12.109,15.842L186.541,39.219z M94.76,32.834h10.164
		c2.262,0,3.996-0.375,5.207-1.123c1.137-0.693,1.697-1.852,1.697-3.502c0-1.645-0.557-2.85-1.697-3.604
		c-1.041-0.684-2.816-1.025-5.316-1.025H94.76V32.834z M94.76,17.501h9.801c2.098,0,3.637-0.308,4.598-0.922
		c0.973-0.616,1.457-1.58,1.457-2.88c0-1.309-0.484-2.267-1.457-2.881c-0.805-0.554-2.375-0.825-4.719-0.825h-9.68V17.501z
		 M86.526,39.219V7.525c0-1.038,0.422-1.906,1.27-2.627c0.848-0.722,1.88-1.08,3.09-1.08h15.249c4.289,0,7.551,0.755,9.812,2.267
		c2.25,1.642,3.389,3.874,3.389,6.682c0,1.784-0.447,3.294-1.334,4.534c-0.887,1.168-2.137,2.09-3.75,2.774
		c2.098,0.754,3.707,1.817,4.834,3.195c1.053,1.301,1.58,3.015,1.58,5.149c0,3.422-1.289,6.104-3.871,8.027
		c-2.668,1.854-6.418,2.775-11.262,2.775L86.526,39.219L86.526,39.219z"/>
	<path fill="#AFCB49" d="M68.746,11.427c4.313,0,7.752,1.248,10.312,3.74c2.559,2.492,3.839,5.858,3.839,10.084
		c0,4.231-1.28,7.595-3.839,10.087c-2.56,2.496-5.998,3.742-10.312,3.742c-4.336,0-7.774-1.246-10.314-3.734
		c-2.54-2.486-3.804-5.852-3.804-10.095c0-4.25,1.266-7.614,3.804-10.101C60.97,12.669,64.408,11.427,68.746,11.427 M68.746,16.129
		c-2.542,0-4.519,0.796-5.93,2.39c-1.416,1.593-2.124,3.836-2.124,6.732c0,2.888,0.708,5.132,2.124,6.731
		c1.411,1.602,3.388,2.396,5.93,2.396c2.565,0,4.562-0.795,5.99-2.396c1.428-1.6,2.138-3.844,2.138-6.731
		c0-2.882-0.71-5.126-2.138-6.726C73.308,16.925,71.312,16.129,68.746,16.129z M19.636,33.9c1.118,0,1.958,0.211,2.519,0.623
		c0.556,0.418,0.836,1.041,0.836,1.875c0,0.818-0.286,1.443-0.851,1.865c-0.565,0.43-1.394,0.641-2.504,0.641H3.754
		c-1.416,0-2.396-0.293-2.939-0.898C0.27,37.404,0,36.281,0,34.625v-18.71c0-1.67,0.27-2.8,0.816-3.404
		c0.542-0.6,1.523-0.896,2.939-0.896h15.088c1.103,0,1.937,0.201,2.502,0.613c0.564,0.404,0.849,1.004,0.849,1.795
		c0,0.766-0.286,1.346-0.849,1.739c-0.565,0.398-1.399,0.597-2.502,0.597H6.104v5.817h11.45c1.108,0,1.933,0.198,2.482,0.584
		c0.55,0.392,0.83,0.979,0.83,1.771c0,0.75-0.284,1.33-0.851,1.72c-0.565,0.397-1.38,0.594-2.46,0.594H6.104v7.06h13.532V33.9z
		 M24.748,25.646c0-4.489,1.224-7.991,3.67-10.498c2.446-2.506,5.862-3.758,10.248-3.758c1.726,0,3.316,0.212,4.762,0.637
		c1.45,0.432,2.816,1.1,4.116,2.014c0.884,0.607,1.588,1.302,2.098,2.08c0.509,0.777,0.765,1.52,0.765,2.231
		c0,0.786-0.254,1.412-0.765,1.88c-0.51,0.469-1.199,0.706-2.065,0.706c-0.482,0-0.944-0.09-1.38-0.266
		c-0.442-0.178-0.878-0.454-1.307-0.822c-0.222-0.189-0.47-0.479-0.735-0.872c-0.269-0.388-0.462-0.644-0.578-0.766
		c-0.628-0.662-1.374-1.162-2.238-1.482c-0.866-0.33-1.855-0.496-2.97-0.496c-2.344,0-4.188,0.799-5.536,2.393
		c-1.346,1.586-2.022,3.79-2.022,6.586c0,2.867,0.677,5.078,2.028,6.641c1.354,1.562,3.286,2.344,5.784,2.344
		c1.1,0,2.09-0.16,2.968-0.477c0.878-0.309,1.588-0.766,2.138-1.361c0.221-0.248,0.45-0.559,0.671-0.932
		c0.22-0.377,0.367-0.617,0.447-0.707c0.498-0.586,0.958-0.98,1.374-1.207c0.422-0.219,0.898-0.332,1.435-0.332
		c0.798,0,1.474,0.238,2.029,0.715c0.557,0.473,0.839,1.051,0.839,1.725c0,0.67-0.25,1.4-0.738,2.197
		c-0.49,0.797-1.138,1.527-1.95,2.188c-1.34,1.07-2.762,1.852-4.276,2.336c-1.506,0.488-3.264,0.73-5.268,0.73
		c-4.202,0-7.512-1.197-9.924-3.59C25.952,33.096,24.748,29.811,24.748,25.646z"/>
	<polygon fill="#FFFFFF" points="151.209,30.764 139.348,38.822 139.348,21.091 152.904,16.253 	"/>
	<polygon fill="#AFCB49" points="124.865,15.197 138.422,20.033 151.979,15.197 138.422,11.971 	"/>
	<path fill="#AFCB49" d="M136.709,23.643l-6.266,6.156c0,0-0.309-0.664-0.113-1.527C130.998,25.359,134.514,24.047,136.709,23.643"
		/>
	<path fill="#709F76" d="M128.502,24.979l3.023,5.547c0,0-1.051,0.141-1.883-1.064c-0.824-1.205-1.123-3.212-1.129-3.542
		C128.506,25.585,128.502,24.979,128.502,24.979"/>
	<path fill="#FFFFFF" d="M185.697,47.783c0-1.293-0.586-1.945-1.758-1.945c-0.445,0-0.791,0.172-1.047,0.516
		c-0.254,0.346-0.379,0.791-0.379,1.332c0,0.596,0.141,1.07,0.424,1.43c0.291,0.355,0.682,0.535,1.182,0.535
		c0.488,0,0.875-0.166,1.16-0.496C185.553,48.818,185.697,48.363,185.697,47.783 M186.619,50.186h-0.799v-0.564
		c-0.365,0.32-0.66,0.527-0.889,0.627c-0.223,0.098-0.521,0.145-0.887,0.145c-0.799,0-1.43-0.24-1.881-0.715
		c-0.455-0.479-0.68-1.143-0.68-1.992c0-0.799,0.225-1.441,0.674-1.934c0.453-0.492,1.043-0.738,1.77-0.738
		c0.715,0,1.307,0.246,1.777,0.738v-2.547h0.922v6.98H186.619z M179.35,48.521l-0.01-0.777c-0.439,0.105-1.104,0.217-1.988,0.336
		c-0.232,0.039-0.432,0.135-0.6,0.295c-0.164,0.16-0.248,0.34-0.248,0.541c0,0.229,0.1,0.426,0.295,0.578
		c0.193,0.152,0.443,0.229,0.75,0.229c0.492,0,0.918-0.123,1.273-0.369C179.186,49.117,179.361,48.838,179.35,48.521z
		 M180.963,50.322c-0.227,0.053-0.465,0.082-0.711,0.082c-0.199,0-0.387-0.078-0.566-0.234c-0.178-0.156-0.279-0.32-0.301-0.492
		c-0.664,0.484-1.305,0.727-1.93,0.727c-0.574,0-1.037-0.127-1.375-0.395c-0.344-0.262-0.516-0.621-0.516-1.082
		c0-0.871,0.596-1.375,1.785-1.516l1.625-0.195c0.258-0.031,0.379-0.211,0.379-0.547c0-0.277-0.01-0.441-0.031-0.488
		c-0.066-0.129-0.234-0.24-0.508-0.32c-0.277-0.084-0.59-0.125-0.941-0.125c-0.365,0-0.637,0.07-0.828,0.215
		c-0.184,0.141-0.305,0.379-0.367,0.711h-0.832c-0.051-0.5,0.129-0.898,0.547-1.199s0.957-0.449,1.621-0.449
		c0.645,0,1.188,0.098,1.635,0.293c0.443,0.199,0.67,0.441,0.67,0.717v3.396c0,0.07,0.035,0.133,0.113,0.195
		s0.162,0.094,0.258,0.105c0.07,0.006,0.162,0.006,0.273,0V50.322L180.963,50.322z M173.514,47.783c0-1.293-0.586-1.945-1.758-1.945
		c-0.443,0-0.793,0.172-1.047,0.516c-0.254,0.346-0.379,0.791-0.379,1.332c0,0.596,0.141,1.07,0.426,1.43
		c0.289,0.355,0.676,0.535,1.18,0.535c0.486,0,0.875-0.166,1.156-0.496C173.373,48.822,173.514,48.363,173.514,47.783z
		 M174.436,50.186h-0.801v-0.564c-0.367,0.32-0.66,0.527-0.883,0.627c-0.223,0.098-0.527,0.145-0.887,0.145
		c-0.801,0-1.434-0.24-1.881-0.715c-0.455-0.479-0.682-1.143-0.682-1.992c0-0.799,0.227-1.441,0.676-1.934s1.039-0.738,1.77-0.738
		c0.715,0,1.305,0.246,1.773,0.738v-2.547h0.922v6.98H174.436z M168.221,50.186h-0.918v-5.027h0.918V50.186z M168.221,44.203h-0.918
		v-0.998h0.918V44.203z M165.811,50.186h-0.922v-6.98h0.922V50.186z M163.357,50.186h-0.918v-5.027h0.918V50.186z M163.357,44.203
		h-0.918v-0.998h0.918V44.203z M160.322,47.674c0-0.57-0.137-1.025-0.406-1.352c-0.27-0.332-0.645-0.496-1.125-0.496
		c-1.107,0-1.66,0.676-1.66,2.023c0,0.521,0.16,0.957,0.471,1.299c0.291,0.332,0.65,0.498,1.08,0.498
		c0.523,0,0.934-0.186,1.223-0.555C160.184,48.74,160.322,48.268,160.322,47.674z M161.35,47.734c0,0.797-0.227,1.439-0.684,1.928
		s-1.068,0.732-1.834,0.732c-0.354,0-0.654-0.053-0.91-0.162c-0.225-0.098-0.529-0.291-0.908-0.584v0.537h-0.801v-6.979h0.918v2.566
		c0.377-0.51,0.967-0.76,1.781-0.76c0.766,0,1.367,0.242,1.793,0.723C161.135,46.217,161.35,46.883,161.35,47.734z M153.779,48.521
		l-0.012-0.777c-0.441,0.105-1.102,0.217-1.988,0.336c-0.234,0.039-0.434,0.135-0.598,0.295c-0.166,0.16-0.25,0.34-0.25,0.541
		c0,0.229,0.102,0.426,0.293,0.578c0.197,0.152,0.445,0.229,0.75,0.229c0.496,0,0.918-0.123,1.277-0.369
		C153.611,49.117,153.787,48.838,153.779,48.521z M155.393,50.322c-0.229,0.053-0.467,0.082-0.713,0.082
		c-0.197,0-0.385-0.078-0.564-0.234s-0.281-0.32-0.299-0.492c-0.664,0.484-1.307,0.727-1.932,0.727
		c-0.578,0-1.037-0.127-1.377-0.395c-0.344-0.262-0.514-0.621-0.514-1.082c0-0.871,0.594-1.375,1.789-1.516l1.621-0.195
		c0.256-0.031,0.383-0.211,0.383-0.547c0-0.277-0.016-0.441-0.037-0.488c-0.064-0.129-0.234-0.24-0.508-0.32
		c-0.275-0.084-0.586-0.125-0.943-0.125c-0.363,0-0.635,0.07-0.824,0.215c-0.188,0.141-0.305,0.379-0.367,0.711h-0.832
		c-0.051-0.5,0.129-0.898,0.547-1.199s0.957-0.449,1.621-0.449c0.645,0,1.188,0.098,1.633,0.293
		c0.443,0.195,0.668,0.441,0.668,0.717v3.396c0,0.07,0.039,0.133,0.117,0.195c0.074,0.055,0.16,0.094,0.258,0.105
		c0.07,0.006,0.164,0.006,0.273,0V50.322L155.393,50.322z M149.082,48.805c0,0.492-0.217,0.881-0.652,1.164
		s-0.986,0.426-1.658,0.426c-0.855,0-1.465-0.15-1.832-0.451c-0.312-0.254-0.484-0.668-0.514-1.244h0.889
		c0,0.34,0.152,0.6,0.469,0.787c0.27,0.158,0.594,0.238,0.971,0.238c0.418,0,0.76-0.07,1.029-0.207
		c0.266-0.139,0.396-0.34,0.396-0.609c0-0.359-0.248-0.586-0.744-0.695L146,47.924c-0.541-0.119-0.924-0.303-1.148-0.557
		c-0.184-0.209-0.273-0.498-0.273-0.865c0-0.455,0.205-0.812,0.605-1.086c0.406-0.273,0.947-0.406,1.619-0.406
		c0.627,0,1.125,0.131,1.48,0.398c0.355,0.266,0.543,0.646,0.557,1.15h-0.91c-0.023-0.541-0.449-0.803-1.281-0.803
		c-0.307,0-0.588,0.074-0.832,0.219c-0.25,0.146-0.373,0.332-0.373,0.557c0,0.303,0.27,0.516,0.807,0.627l1.49,0.314
		C148.635,47.674,149.082,48.117,149.082,48.805z M143.295,50.186h-0.922v-3.658c0-0.197-0.115-0.379-0.34-0.543
		c-0.227-0.162-0.5-0.244-0.832-0.244c-0.455,0-0.824,0.145-1.121,0.438c-0.293,0.293-0.441,0.656-0.441,1.109v2.898h-0.918v-5.027
		h0.918v0.648c0.395-0.529,0.961-0.793,1.703-0.793c0.703,0,1.219,0.156,1.557,0.469c0.26,0.244,0.389,0.549,0.389,0.922v3.781
		H143.295L143.295,50.186z M136.516,47.639c0-0.566-0.164-1.023-0.49-1.361c-0.301-0.307-0.691-0.459-1.164-0.459
		c-0.477,0-0.861,0.152-1.16,0.459c-0.328,0.338-0.492,0.791-0.492,1.361c0,0.59,0.148,1.066,0.449,1.426
		c0.297,0.355,0.707,0.535,1.207,0.535c0.504,0,0.904-0.18,1.207-0.535C136.365,48.707,136.516,48.229,136.516,47.639z
		 M137.459,47.639c0,0.816-0.193,1.461-0.57,1.934c-0.445,0.547-1.123,0.822-2.027,0.822c-0.857,0-1.504-0.244-1.953-0.736
		c-0.43-0.473-0.646-1.145-0.646-2.02c0-0.816,0.227-1.461,0.672-1.926c0.455-0.465,1.096-0.699,1.928-0.699s1.471,0.23,1.922,0.699
		C137.232,46.178,137.459,46.822,137.459,47.639z M130.467,47.799c0-0.574-0.125-1.039-0.365-1.395
		c-0.277-0.424-0.686-0.631-1.221-0.631c-0.5,0-0.891,0.158-1.172,0.486c-0.285,0.324-0.422,0.789-0.422,1.379
		c0,0.523,0.119,0.957,0.348,1.311c0.279,0.422,0.676,0.631,1.193,0.631c0.541,0,0.947-0.164,1.232-0.5
		C130.33,48.777,130.467,48.35,130.467,47.799z M131.518,47.752c0,0.783-0.227,1.414-0.686,1.906
		c-0.455,0.492-1.053,0.736-1.791,0.736c-0.746,0-1.328-0.252-1.754-0.756v2.643h-0.918v-7.123h0.795v0.621
		c0.303-0.293,0.588-0.494,0.842-0.605c0.258-0.109,0.578-0.16,0.961-0.16c0.771,0,1.383,0.246,1.852,0.738
		S131.518,46.908,131.518,47.752z M125.33,48.805c0,0.492-0.219,0.881-0.652,1.164s-0.988,0.426-1.66,0.426
		c-0.855,0-1.465-0.15-1.828-0.451c-0.316-0.254-0.488-0.668-0.516-1.244h0.887c0,0.34,0.156,0.6,0.469,0.787
		c0.273,0.158,0.598,0.238,0.973,0.238c0.418,0,0.758-0.07,1.027-0.207c0.266-0.137,0.398-0.34,0.398-0.609
		c0-0.359-0.25-0.586-0.746-0.695l-1.434-0.293c-0.543-0.117-0.926-0.301-1.152-0.555c-0.184-0.207-0.273-0.498-0.273-0.867
		c0-0.453,0.207-0.812,0.609-1.086c0.404-0.271,0.945-0.406,1.617-0.406c0.625,0,1.123,0.133,1.48,0.398
		c0.359,0.266,0.541,0.648,0.555,1.152h-0.91c-0.021-0.539-0.449-0.805-1.285-0.805c-0.301,0-0.582,0.074-0.832,0.221
		s-0.375,0.332-0.375,0.557c0,0.305,0.273,0.516,0.812,0.629l1.488,0.312C124.885,47.674,125.33,48.117,125.33,48.805z
		 M118.842,47.285c-0.117-1.08-0.629-1.619-1.543-1.619c-0.949,0-1.492,0.539-1.629,1.619H118.842z M119.828,47.697
		c0,0.121-0.004,0.219-0.01,0.293h-4.195c-0.008,0.045-0.012,0.109-0.012,0.191c0,0.402,0.156,0.76,0.473,1.066
		c0.318,0.303,0.699,0.457,1.129,0.457c0.762,0,1.281-0.352,1.547-1.055h0.941c-0.303,1.164-1.098,1.744-2.375,1.744
		c-1.793,0-2.688-0.908-2.688-2.721c0-0.777,0.246-1.414,0.734-1.914s1.121-0.746,1.885-0.746c0.752,0,1.354,0.207,1.795,0.617
		C119.566,46.092,119.822,46.783,119.828,47.697z M112.4,45.061c0-0.332-0.129-0.592-0.385-0.779
		c-0.256-0.189-0.588-0.283-0.996-0.283h-2.674v2.391h2.684C111.943,46.393,112.4,45.949,112.4,45.061z M113.736,50.186h-1.238
		c-0.088-0.209-0.154-0.422-0.199-0.65c-0.049-0.256-0.061-0.619-0.035-1.082c-0.029-0.844-0.441-1.264-1.234-1.264h-2.688v2.996
		h-1.031v-6.98h3.656c0.922,0,1.574,0.182,1.961,0.543c0.328,0.311,0.492,0.791,0.492,1.426c0,0.611-0.346,1.127-1.039,1.561
		c0.363,0.219,0.602,0.402,0.707,0.555c0.088,0.123,0.145,0.328,0.176,0.613c0.012,0.293,0.039,0.783,0.088,1.459
		c0.033,0.238,0.152,0.441,0.377,0.594v0.227h0.008V50.186z M101.795,47.285c-0.121-1.08-0.631-1.619-1.545-1.619
		c-0.948,0-1.494,0.539-1.632,1.619H101.795z M102.783,47.697c0,0.121-0.004,0.219-0.012,0.293h-4.197
		c-0.008,0.045-0.01,0.109-0.01,0.191c0,0.402,0.155,0.76,0.476,1.066c0.316,0.303,0.696,0.457,1.132,0.457
		c0.758,0,1.275-0.352,1.545-1.055h0.943c-0.309,1.164-1.104,1.744-2.378,1.744c-1.79,0-2.685-0.908-2.685-2.721
		c0-0.777,0.246-1.414,0.734-1.914s1.118-0.746,1.882-0.746c0.754,0,1.353,0.207,1.798,0.617
		C102.518,46.092,102.775,46.783,102.783,47.697z M96.392,50.186h-0.92v-3.553c0-0.229-0.088-0.43-0.264-0.604
		c-0.206-0.199-0.476-0.295-0.81-0.295c-0.381,0-0.698,0.115-0.954,0.338c-0.256,0.229-0.385,0.494-0.385,0.801v3.312h-0.918v-3.668
		c0-0.211-0.109-0.396-0.33-0.549c-0.218-0.158-0.474-0.234-0.768-0.234c-0.306,0-0.602,0.119-0.886,0.357s-0.426,0.504-0.426,0.795
		v3.299H88.81v-5.027h0.923v0.646c0.277-0.529,0.861-0.791,1.75-0.791c0.352,0,0.634,0.053,0.852,0.16
		c0.214,0.113,0.43,0.303,0.64,0.586c0.307-0.365,0.648-0.594,1.028-0.688c0.156-0.041,0.46-0.059,0.922-0.059
		c0.41,0,0.758,0.123,1.042,0.371c0.286,0.246,0.428,0.514,0.428,0.807L96.392,50.186L96.392,50.186z M87.224,50.186h-0.92v-0.555
		c-0.218,0.281-0.456,0.473-0.712,0.584c-0.275,0.123-0.66,0.182-1.149,0.182c-0.73,0-1.242-0.205-1.534-0.611
		c-0.168-0.225-0.252-0.473-0.252-0.748v-3.875h0.918v3.684c0,0.23,0.104,0.428,0.308,0.586c0.206,0.16,0.46,0.238,0.769,0.238
		c0.46,0,0.852-0.146,1.172-0.441c0.319-0.293,0.479-0.648,0.479-1.07v-2.996h0.92L87.224,50.186L87.224,50.186z M81.494,48.805
		c0,0.492-0.218,0.881-0.654,1.164c-0.432,0.283-0.986,0.426-1.658,0.426c-0.855,0-1.464-0.15-1.83-0.451
		c-0.313-0.254-0.485-0.668-0.514-1.244h0.888c0,0.34,0.156,0.6,0.471,0.787c0.27,0.158,0.594,0.238,0.974,0.238
		c0.416,0,0.758-0.07,1.024-0.207c0.268-0.137,0.401-0.34,0.401-0.609c0-0.359-0.248-0.586-0.746-0.695l-1.436-0.293
		c-0.54-0.117-0.922-0.301-1.15-0.555c-0.184-0.207-0.273-0.498-0.273-0.867c0-0.453,0.204-0.812,0.607-1.086
		c0.406-0.271,0.944-0.406,1.616-0.406c0.628,0,1.122,0.133,1.48,0.398c0.357,0.266,0.542,0.648,0.558,1.152h-0.91
		c-0.021-0.539-0.45-0.805-1.282-0.805c-0.306,0-0.584,0.074-0.832,0.221c-0.25,0.146-0.374,0.332-0.374,0.557
		c0,0.305,0.272,0.516,0.812,0.629l1.49,0.312C81.048,47.674,81.494,48.117,81.494,48.805z M75.708,50.186h-0.92v-3.658
		c0-0.197-0.112-0.379-0.34-0.543c-0.227-0.162-0.504-0.244-0.834-0.244c-0.452,0-0.826,0.145-1.118,0.438s-0.438,0.656-0.438,1.109
		v2.898h-0.92v-5.027h0.92v0.648c0.395-0.529,0.96-0.793,1.698-0.793c0.702,0,1.22,0.156,1.554,0.469
		c0.265,0.244,0.396,0.549,0.396,0.922L75.708,50.186L75.708,50.186z M68.926,47.639c0-0.566-0.164-1.023-0.492-1.361
		c-0.3-0.307-0.688-0.459-1.164-0.459c-0.474,0-0.859,0.152-1.159,0.459c-0.33,0.338-0.492,0.791-0.492,1.361
		c0,0.59,0.149,1.066,0.448,1.426c0.3,0.355,0.701,0.535,1.203,0.535c0.507,0,0.906-0.18,1.208-0.535
		C68.778,48.707,68.926,48.229,68.926,47.639z M69.87,47.639c0,0.816-0.19,1.461-0.57,1.934c-0.446,0.547-1.122,0.822-2.027,0.822
		c-0.853,0-1.503-0.244-1.95-0.736c-0.431-0.473-0.645-1.145-0.645-2.02c0-0.816,0.225-1.461,0.672-1.926
		c0.45-0.465,1.091-0.699,1.923-0.699c0.834,0,1.474,0.23,1.924,0.699C69.644,46.178,69.87,46.822,69.87,47.639z M63.798,47.629
		c-0.49,1.844-1.614,2.768-3.374,2.768c-1.06,0-1.912-0.334-2.558-1c-0.646-0.668-0.97-1.547-0.97-2.637
		c0-1.035,0.292-1.885,0.876-2.553c0.642-0.734,1.529-1.104,2.661-1.104c0.746,0,1.396,0.193,1.956,0.578
		c0.559,0.383,0.975,0.947,1.244,1.682H62.56c-0.43-0.977-1.153-1.465-2.17-1.465c-0.735,0-1.328,0.268-1.773,0.797
		c-0.444,0.527-0.668,1.229-0.668,2.113c0,0.824,0.228,1.498,0.684,2.021c0.456,0.52,1.054,0.777,1.792,0.777
		c1.192,0,1.964-0.656,2.322-1.971h1.052V47.629z"/>
	
		<ellipse fill="none" stroke="#262324" stroke-width="0.1482" stroke-miterlimit="22.9256" cx="195.814" cy="4.019" rx="4.186" ry="3.982"/>
	<path fill="#FFFFFF" d="M194.586,3.667h1.496c0.322,0,0.566-0.036,0.75-0.099c0.178-0.056,0.318-0.159,0.406-0.3
		c0.096-0.132,0.139-0.288,0.139-0.447c0-0.238-0.09-0.435-0.27-0.582c-0.184-0.154-0.469-0.23-0.859-0.23h-1.666L194.586,3.667
		L194.586,3.667z M193.885,6.469V1.453h2.336c0.473,0,0.832,0.042,1.074,0.132c0.246,0.092,0.443,0.252,0.582,0.476
		c0.148,0.232,0.219,0.484,0.219,0.756c0,0.356-0.117,0.66-0.361,0.904c-0.24,0.242-0.615,0.395-1.115,0.464
		c0.184,0.084,0.324,0.168,0.422,0.25c0.201,0.177,0.395,0.4,0.574,0.666l0.91,1.368h-0.867l-0.699-1.044
		c-0.209-0.3-0.375-0.532-0.5-0.692c-0.133-0.161-0.254-0.273-0.359-0.336c-0.1-0.063-0.211-0.105-0.32-0.132
		c-0.074-0.014-0.207-0.021-0.381-0.021h-0.811v2.228L193.885,6.469L193.885,6.469z"/>
</g>
</svg>
