<?xml version="1.0" encoding="utf-8"?>
<!-- Generator: Adobe Illustrator 16.0.0, SVG Export Plug-In . SVG Version: 6.00 Build 0)  -->
<!DOCTYPE svg PUBLIC "-//W3C//DTD SVG 1.1//EN" "http://www.w3.org/Graphics/SVG/1.1/DTD/svg11.dtd">
<svg version="1.1" id="Capa_1" xmlns="http://www.w3.org/2000/svg" xmlns:xlink="http://www.w3.org/1999/xlink" x="0px" y="0px"
	 width="220.087px" height="60.493px" viewBox="0 -0.042 220.087 60.493" enable-background="new 0 -0.042 220.087 60.493"
	 xml:space="preserve">
<g>
	<path fill="#424143" d="M205.193,45.348h-10.658l-6.262-9.99l-6.523,9.99h-10.785l11.59-16.299l-10.918-15.353h10.25l6.125,9.515
		l6.793-10.236c0.797-1.422,2.125-2.134,3.988-2.134h7.99l-13.318,18.321L205.193,45.348z M104.236,37.967h11.182
		c2.488,0,4.398-0.438,5.727-1.301c1.25-0.801,1.863-2.141,1.863-4.051c0-1.902-0.613-3.293-1.863-4.166
		c-1.148-0.791-3.104-1.188-5.854-1.188h-11.055V37.967z M104.236,20.237h10.783c2.309,0,4-0.357,5.059-1.066
		c1.066-0.711,1.602-1.828,1.602-3.33c0-1.514-0.535-2.621-1.602-3.333c-0.887-0.64-2.615-0.954-5.195-0.954h-10.646V20.237z
		 M95.175,45.348V8.7c0-1.198,0.467-2.204,1.398-3.036c0.932-0.834,2.068-1.25,3.398-1.25h16.773c4.715,0,8.305,0.874,10.793,2.62
		c2.477,1.899,3.727,4.478,3.727,7.728c0,2.063-0.486,3.809-1.465,5.241c-0.977,1.35-2.352,2.416-4.125,3.207
		c2.309,0.875,4.082,2.102,5.32,3.697c1.156,1.502,1.738,3.482,1.738,5.951c0,3.959-1.422,7.057-4.262,9.281
		c-2.934,2.145-7.059,3.209-12.387,3.209H95.175z"/>
	<path fill="#AFCB49" d="M75.621,13.212c4.748,0,8.527,1.442,11.344,4.324c2.814,2.885,4.221,6.773,4.221,11.66
		c0,4.895-1.406,8.783-4.221,11.666c-2.816,2.885-6.598,4.328-11.344,4.328c-4.771,0-8.551-1.443-11.344-4.32
		c-2.793-2.875-4.188-6.762-4.188-11.672c0-4.916,1.395-8.805,4.188-11.678C67.068,14.647,70.849,13.212,75.621,13.212
		 M75.621,18.651c-2.795,0-4.969,0.92-6.523,2.762s-2.336,4.438-2.336,7.783c0,3.342,0.781,5.936,2.336,7.787
		c1.555,1.848,3.729,2.77,6.523,2.77c2.824,0,5.02-0.922,6.59-2.77c1.57-1.852,2.352-4.445,2.352-7.787
		c0-3.334-0.781-5.928-2.352-7.777C80.638,19.571,78.443,18.651,75.621,18.651z M21.602,39.202c1.229,0,2.154,0.242,2.769,0.713
		c0.612,0.482,0.92,1.209,0.92,2.172c0,0.943-0.316,1.666-0.937,2.158c-0.621,0.49-1.533,0.738-2.752,0.738H4.132
		c-1.556,0-2.638-0.344-3.235-1.039C0.298,43.25,0,41.952,0,40.034V18.403c0-1.932,0.298-3.241,0.896-3.935
		c0.598-0.693,1.678-1.038,3.235-1.038h16.596c1.211,0,2.131,0.234,2.753,0.71c0.621,0.467,0.934,1.162,0.934,2.076
		c0,0.885-0.314,1.559-0.934,2.01c-0.622,0.461-1.542,0.689-2.753,0.689H6.716v6.725H19.31c1.219,0,2.124,0.229,2.729,0.674
		c0.605,0.455,0.914,1.133,0.914,2.047c0,0.869-0.314,1.535-0.935,1.99c-0.621,0.461-1.52,0.688-2.708,0.688H6.716v8.164H21.602z
		 M27.22,29.655c0-5.191,1.349-9.24,4.04-12.137c2.69-2.898,6.45-4.346,11.271-4.346c1.901,0,3.649,0.246,5.242,0.738
		c1.592,0.5,3.096,1.271,4.525,2.329c0.972,0.701,1.748,1.504,2.306,2.402c0.562,0.9,0.841,1.76,0.841,2.582
		c0,0.908-0.28,1.633-0.841,2.172c-0.56,0.543-1.319,0.816-2.27,0.816c-0.532,0-1.04-0.105-1.518-0.307
		c-0.486-0.205-0.967-0.523-1.438-0.951c-0.244-0.217-0.516-0.553-0.81-1.006c-0.294-0.449-0.509-0.744-0.635-0.887
		c-0.691-0.766-1.51-1.342-2.46-1.713c-0.951-0.381-2.042-0.57-3.266-0.57c-2.58,0-4.606,0.922-6.088,2.764
		c-1.482,1.834-2.227,4.383-2.227,7.617c0,3.312,0.744,5.871,2.232,7.678s3.614,2.709,6.362,2.709c1.208,0,2.298-0.184,3.266-0.549
		c0.964-0.357,1.746-0.885,2.35-1.576c0.244-0.289,0.494-0.645,0.738-1.076c0.244-0.436,0.406-0.709,0.494-0.814
		c0.546-0.676,1.054-1.141,1.51-1.391c0.464-0.254,0.988-0.381,1.578-0.381c0.876,0,1.622,0.275,2.234,0.824
		c0.614,0.549,0.921,1.217,0.921,1.998c0,0.773-0.274,1.617-0.81,2.539c-0.539,0.922-1.252,1.766-2.146,2.531
		c-1.474,1.238-3.038,2.137-4.704,2.703c-1.658,0.561-3.59,0.844-5.792,0.844c-4.622,0-8.262-1.387-10.916-4.152
		C28.548,38.266,27.22,34.471,27.22,29.655z"/>
	<polygon fill="#424143" points="166.332,35.573 153.283,44.893 153.283,24.385 168.195,18.792 	"/>
	<polygon fill="#AFCB49" points="137.351,17.573 152.261,23.165 167.175,17.573 152.261,13.842 	"/>
	<path fill="#AFCB49" d="M150.38,27.338l-6.889,7.117c0,0-0.34-0.766-0.125-1.766C144.097,29.325,147.966,27.803,150.38,27.338"/>
	<path fill="#709F76" d="M141.351,28.879l3.324,6.416c0,0-1.156,0.164-2.068-1.23c-0.91-1.395-1.238-3.715-1.246-4.098
		C141.357,29.583,141.351,28.879,141.351,28.879"/>
	<path fill="#424143" d="M204.265,55.249c0-1.498-0.643-2.248-1.934-2.248c-0.488,0-0.871,0.201-1.152,0.598
		c-0.277,0.398-0.422,0.912-0.422,1.541c0,0.686,0.156,1.234,0.469,1.648s0.746,0.621,1.297,0.621c0.537,0,0.961-0.191,1.273-0.578
		C204.111,56.448,204.265,55.92,204.265,55.249 M205.279,58.03h-0.877v-0.656c-0.402,0.371-0.727,0.613-0.977,0.727
		s-0.574,0.172-0.977,0.172c-0.883,0-1.574-0.277-2.072-0.828c-0.498-0.555-0.748-1.324-0.748-2.305
		c0-0.922,0.248-1.668,0.742-2.236s1.141-0.854,1.945-0.854c0.791,0,1.441,0.285,1.953,0.854v-2.947h1.014v8.074H205.279z
		 M197.287,56.108l-0.012-0.902c-0.484,0.125-1.215,0.254-2.189,0.389c-0.258,0.045-0.475,0.158-0.656,0.346
		c-0.184,0.184-0.277,0.393-0.277,0.621c0,0.268,0.109,0.492,0.324,0.668c0.215,0.18,0.488,0.268,0.824,0.268
		c0.543,0,1.012-0.139,1.404-0.422C197.101,56.792,197.294,56.467,197.287,56.108z M199.06,58.184c-0.25,0.064-0.512,0.1-0.785,0.1
		c-0.215,0-0.424-0.09-0.623-0.273c-0.195-0.18-0.305-0.371-0.332-0.57c-0.73,0.561-1.438,0.84-2.119,0.84
		c-0.635,0-1.143-0.152-1.518-0.455c-0.379-0.303-0.566-0.721-0.566-1.252c0-1.006,0.652-1.59,1.961-1.752l1.785-0.223
		c0.281-0.037,0.422-0.248,0.422-0.631c0-0.328-0.012-0.512-0.035-0.564c-0.074-0.158-0.258-0.283-0.561-0.377
		c-0.301-0.098-0.645-0.145-1.029-0.145c-0.402,0-0.709,0.082-0.91,0.25c-0.209,0.164-0.34,0.441-0.406,0.824h-0.914
		c-0.057-0.574,0.145-1.037,0.602-1.383c0.457-0.348,1.055-0.52,1.785-0.52c0.709,0,1.305,0.113,1.795,0.34
		c0.49,0.23,0.736,0.508,0.736,0.832v3.932c0,0.082,0.041,0.154,0.123,0.221c0.086,0.066,0.182,0.107,0.287,0.121
		c0.078,0.006,0.18,0.006,0.299,0v0.686H199.06z M190.865,55.249c0-1.498-0.645-2.248-1.936-2.248c-0.486,0-0.871,0.201-1.15,0.598
		c-0.279,0.398-0.42,0.912-0.42,1.541c0,0.686,0.156,1.234,0.469,1.648c0.311,0.414,0.742,0.621,1.293,0.621
		c0.539,0,0.961-0.191,1.277-0.578C190.708,56.448,190.865,55.92,190.865,55.249z M191.878,58.03H191v-0.656
		c-0.402,0.371-0.727,0.613-0.975,0.727c-0.25,0.113-0.576,0.172-0.977,0.172c-0.885,0-1.576-0.277-2.072-0.828
		c-0.5-0.555-0.748-1.324-0.748-2.305c0-0.922,0.248-1.668,0.74-2.236c0.496-0.568,1.145-0.854,1.949-0.854
		c0.787,0,1.438,0.285,1.951,0.854v-2.947h1.014v8.074H191.878z M185.044,58.03h-1.012v-5.816h1.012V58.03z M185.044,51.108h-1.012
		v-1.152h1.012V51.108z M182.392,58.03h-1.012v-8.074h1.012V58.03z M179.693,58.03h-1.014v-5.816h1.014V58.03z M179.693,51.108
		h-1.014v-1.152h1.014V51.108z M176.351,55.127c0-0.664-0.146-1.188-0.441-1.566c-0.297-0.381-0.709-0.57-1.238-0.57
		c-1.217,0-1.828,0.781-1.828,2.336c0,0.605,0.176,1.107,0.52,1.506c0.32,0.385,0.715,0.578,1.189,0.578
		c0.576,0,1.025-0.213,1.346-0.645C176.201,56.362,176.351,55.815,176.351,55.127z M177.488,55.194c0,0.922-0.25,1.668-0.754,2.232
		c-0.5,0.564-1.176,0.846-2.02,0.846c-0.383,0-0.719-0.062-1-0.188c-0.248-0.109-0.584-0.336-1-0.674v0.619h-0.879v-8.07h1.012
		v2.967c0.41-0.584,1.062-0.877,1.953-0.877c0.844,0,1.504,0.279,1.977,0.836C177.25,53.444,177.488,54.209,177.488,55.194z
		 M169.16,56.108l-0.012-0.902c-0.484,0.125-1.215,0.254-2.189,0.389c-0.258,0.045-0.475,0.158-0.658,0.346
		c-0.182,0.184-0.275,0.393-0.275,0.621c0,0.268,0.109,0.492,0.322,0.668c0.215,0.18,0.492,0.268,0.824,0.268
		c0.543,0,1.012-0.139,1.406-0.422C168.974,56.792,169.167,56.467,169.16,56.108z M170.929,58.184c-0.25,0.064-0.512,0.1-0.785,0.1
		c-0.215,0-0.422-0.09-0.621-0.273c-0.195-0.18-0.305-0.371-0.33-0.57c-0.73,0.561-1.439,0.84-2.123,0.84
		c-0.633,0-1.141-0.152-1.518-0.455s-0.564-0.721-0.564-1.252c0-1.006,0.652-1.59,1.963-1.752l1.783-0.223
		c0.281-0.037,0.422-0.248,0.422-0.631c0-0.328-0.014-0.512-0.037-0.564c-0.072-0.158-0.258-0.283-0.561-0.377
		c-0.301-0.098-0.645-0.145-1.029-0.145c-0.402,0-0.709,0.082-0.91,0.25c-0.209,0.164-0.34,0.441-0.404,0.824h-0.916
		c-0.057-0.574,0.145-1.037,0.604-1.383c0.457-0.348,1.053-0.52,1.785-0.52c0.707,0,1.305,0.113,1.797,0.34
		c0.486,0.23,0.732,0.508,0.732,0.832v3.932c0,0.082,0.041,0.154,0.123,0.221c0.086,0.066,0.18,0.107,0.287,0.121
		c0.078,0.006,0.18,0.006,0.299,0v0.686H170.929z M163.992,56.434c0,0.568-0.238,1.018-0.715,1.346
		c-0.48,0.328-1.088,0.492-1.828,0.492c-0.941,0-1.609-0.174-2.012-0.52c-0.348-0.293-0.535-0.777-0.566-1.441h0.977
		c0,0.395,0.172,0.695,0.518,0.91c0.299,0.184,0.654,0.275,1.072,0.275c0.457,0,0.832-0.08,1.125-0.238
		c0.295-0.158,0.441-0.393,0.441-0.705c0-0.414-0.273-0.68-0.82-0.799l-1.578-0.338c-0.594-0.133-1.016-0.348-1.266-0.641
		c-0.201-0.246-0.301-0.578-0.301-0.996c0-0.525,0.223-0.945,0.67-1.258c0.447-0.316,1.037-0.473,1.779-0.473
		c0.688,0,1.232,0.156,1.625,0.459c0.395,0.307,0.598,0.75,0.617,1.334h-1.004c-0.023-0.621-0.492-0.93-1.41-0.93
		c-0.336,0-0.641,0.084-0.914,0.254s-0.41,0.383-0.41,0.641c0,0.355,0.297,0.6,0.891,0.734l1.641,0.365
		C163.5,55.127,163.992,55.635,163.992,56.434z M157.626,58.03h-1.014v-4.23c0-0.229-0.125-0.438-0.375-0.625
		s-0.555-0.285-0.918-0.285c-0.496,0-0.906,0.168-1.227,0.504s-0.482,0.764-0.482,1.281v3.355h-1.014v-5.812h1.014v0.754
		c0.434-0.613,1.057-0.918,1.869-0.918c0.773,0,1.344,0.18,1.713,0.541c0.291,0.283,0.434,0.635,0.434,1.064V58.03z M150.167,55.083
		c0-0.656-0.184-1.18-0.543-1.572c-0.332-0.354-0.758-0.531-1.277-0.531c-0.523,0-0.949,0.178-1.281,0.531
		c-0.361,0.393-0.541,0.916-0.541,1.572c0,0.686,0.162,1.236,0.49,1.65c0.332,0.414,0.775,0.621,1.328,0.621
		c0.555,0,0.996-0.207,1.324-0.621C150,56.319,150.167,55.768,150.167,55.083z M151.205,55.083c0,0.947-0.209,1.693-0.627,2.238
		c-0.488,0.635-1.23,0.951-2.227,0.951c-0.941,0-1.656-0.283-2.148-0.852c-0.473-0.547-0.711-1.326-0.711-2.336
		c0-0.945,0.25-1.688,0.742-2.227c0.496-0.539,1.199-0.809,2.117-0.809c0.914,0,1.621,0.27,2.115,0.809
		S151.205,54.139,151.205,55.083z M143.511,55.272c0-0.664-0.131-1.205-0.395-1.617c-0.305-0.488-0.752-0.73-1.348-0.73
		c-0.549,0-0.98,0.188-1.291,0.564c-0.307,0.377-0.463,0.908-0.463,1.594c0,0.607,0.129,1.111,0.383,1.518
		c0.307,0.488,0.742,0.73,1.312,0.73c0.592,0,1.043-0.191,1.355-0.576C143.365,56.401,143.511,55.907,143.511,55.272z
		 M144.667,55.217c0,0.898-0.25,1.633-0.754,2.203c-0.5,0.568-1.156,0.852-1.967,0.852c-0.82,0-1.463-0.293-1.932-0.875v3.055
		h-1.012v-8.238h0.879v0.721c0.338-0.34,0.648-0.572,0.93-0.697s0.633-0.188,1.059-0.188c0.844,0,1.521,0.283,2.031,0.852
		C144.417,53.471,144.667,54.241,144.667,55.217z M137.863,56.434c0,0.568-0.24,1.018-0.715,1.346
		c-0.48,0.328-1.088,0.492-1.828,0.492c-0.939,0-1.611-0.174-2.014-0.52c-0.344-0.293-0.533-0.777-0.564-1.441h0.975
		c0,0.395,0.172,0.695,0.521,0.91c0.295,0.184,0.652,0.275,1.068,0.275c0.459,0,0.836-0.08,1.127-0.238
		c0.293-0.158,0.441-0.393,0.441-0.705c0-0.414-0.273-0.68-0.818-0.799l-1.58-0.338c-0.596-0.133-1.018-0.348-1.266-0.641
		c-0.203-0.246-0.301-0.578-0.301-0.996c0-0.525,0.223-0.945,0.672-1.258c0.445-0.316,1.037-0.473,1.777-0.473
		c0.689,0,1.23,0.156,1.625,0.459c0.393,0.307,0.598,0.75,0.613,1.334h-1c-0.023-0.621-0.492-0.93-1.408-0.93
		c-0.338,0-0.643,0.084-0.916,0.254s-0.41,0.383-0.41,0.641c0,0.355,0.297,0.6,0.891,0.734l1.639,0.365
		C137.373,55.127,137.863,55.635,137.863,56.434z M130.728,54.672c-0.127-1.248-0.695-1.873-1.699-1.873
		c-1.045,0-1.645,0.625-1.795,1.873H130.728z M131.816,55.151c0,0.141-0.008,0.254-0.016,0.342h-4.617
		c-0.008,0.053-0.012,0.123-0.012,0.221c0,0.465,0.176,0.877,0.525,1.23c0.35,0.355,0.766,0.531,1.246,0.531
		c0.836,0,1.4-0.406,1.699-1.219h1.041c-0.34,1.344-1.211,2.016-2.617,2.016c-1.969,0-2.955-1.047-2.955-3.145
		c0-0.902,0.27-1.639,0.807-2.215c0.539-0.576,1.23-0.863,2.074-0.863c0.828,0,1.484,0.234,1.975,0.707
		C131.523,53.295,131.806,54.092,131.816,55.151z M123.64,52.104c0-0.383-0.141-0.684-0.422-0.902
		c-0.281-0.215-0.645-0.324-1.096-0.324h-2.943v2.766h2.955C123.138,53.643,123.64,53.131,123.64,52.104z M125.111,58.03h-1.365
		c-0.094-0.238-0.168-0.488-0.215-0.754c-0.057-0.297-0.068-0.715-0.039-1.25c-0.031-0.977-0.484-1.461-1.359-1.461h-2.953v3.465
		h-1.131v-8.07h4.025c1.012,0,1.73,0.209,2.156,0.629c0.363,0.363,0.543,0.912,0.543,1.65c0,0.701-0.381,1.303-1.146,1.803
		c0.402,0.25,0.664,0.467,0.787,0.643c0.094,0.141,0.16,0.377,0.191,0.709c0.008,0.336,0.043,0.898,0.098,1.682
		c0.031,0.283,0.168,0.51,0.41,0.686v0.27H125.111z M111.974,54.672c-0.127-1.248-0.693-1.873-1.699-1.873
		c-1.043,0-1.641,0.625-1.795,1.873H111.974z M113.06,55.151c0,0.141-0.004,0.254-0.012,0.342h-4.619
		c-0.008,0.053-0.012,0.123-0.012,0.221c0,0.465,0.176,0.877,0.527,1.23c0.35,0.355,0.764,0.531,1.248,0.531
		c0.836,0,1.4-0.406,1.699-1.219h1.037c-0.336,1.344-1.209,2.016-2.615,2.016c-1.969,0-2.953-1.047-2.953-3.145
		c0-0.902,0.27-1.639,0.805-2.215c0.537-0.576,1.229-0.863,2.072-0.863c0.828,0,1.488,0.234,1.977,0.707
		C112.769,53.295,113.052,54.092,113.06,55.151z M106.033,58.03h-1.014V53.92c0-0.266-0.098-0.5-0.289-0.699
		c-0.227-0.227-0.523-0.34-0.895-0.34c-0.416,0-0.766,0.129-1.045,0.391c-0.283,0.262-0.422,0.57-0.422,0.926v3.832h-1.012v-4.246
		c0-0.242-0.123-0.455-0.365-0.633c-0.24-0.184-0.521-0.273-0.844-0.273c-0.336,0-0.662,0.139-0.975,0.418
		c-0.312,0.275-0.469,0.582-0.469,0.918v3.816h-1.012v-5.816h1.012v0.754c0.303-0.613,0.949-0.918,1.928-0.918
		c0.385,0,0.697,0.062,0.936,0.189c0.234,0.127,0.471,0.35,0.705,0.676c0.338-0.42,0.713-0.686,1.131-0.795
		c0.17-0.045,0.508-0.066,1.014-0.066c0.453,0,0.83,0.141,1.145,0.426c0.314,0.283,0.471,0.594,0.471,0.934V58.03z M95.947,58.03
		h-1.014v-0.645c-0.24,0.324-0.504,0.551-0.785,0.676c-0.305,0.141-0.727,0.211-1.266,0.211c-0.801,0-1.365-0.234-1.686-0.707
		c-0.188-0.258-0.279-0.547-0.279-0.863v-4.488h1.012v4.266c0,0.266,0.115,0.488,0.338,0.676c0.227,0.184,0.508,0.275,0.846,0.275
		c0.506,0,0.938-0.17,1.289-0.508c0.354-0.34,0.531-0.754,0.531-1.24v-3.465h1.014V58.03z M89.644,56.434
		c0,0.568-0.24,1.018-0.717,1.346s-1.086,0.492-1.826,0.492c-0.939,0-1.611-0.174-2.012-0.52c-0.346-0.293-0.533-0.777-0.564-1.441
		H85.5c0,0.395,0.172,0.695,0.518,0.91c0.297,0.184,0.654,0.275,1.072,0.275c0.459,0,0.834-0.08,1.129-0.238
		c0.291-0.158,0.439-0.393,0.439-0.705c0-0.414-0.273-0.68-0.82-0.799l-1.58-0.338c-0.594-0.133-1.016-0.348-1.266-0.641
		c-0.201-0.246-0.301-0.578-0.301-0.996c0-0.525,0.223-0.945,0.67-1.258c0.445-0.316,1.037-0.473,1.777-0.473
		c0.689,0,1.234,0.156,1.625,0.459c0.395,0.307,0.6,0.75,0.617,1.334h-1c-0.027-0.621-0.494-0.93-1.41-0.93
		c-0.336,0-0.643,0.084-0.916,0.254s-0.412,0.383-0.412,0.641c0,0.355,0.299,0.6,0.893,0.734l1.637,0.365
		C89.154,55.127,89.644,55.635,89.644,56.434z M83.279,58.03h-1.014v-4.23c0-0.229-0.123-0.438-0.373-0.625
		s-0.555-0.285-0.916-0.285c-0.498,0-0.908,0.168-1.229,0.504s-0.482,0.764-0.482,1.281v3.355h-1.012v-5.812h1.012v0.754
		c0.436-0.613,1.057-0.918,1.869-0.918c0.771,0,1.342,0.18,1.709,0.541c0.291,0.283,0.436,0.635,0.436,1.064V58.03z M75.82,55.083
		c0-0.656-0.182-1.18-0.541-1.572c-0.33-0.354-0.756-0.531-1.279-0.531c-0.521,0-0.947,0.178-1.277,0.531
		c-0.361,0.393-0.543,0.916-0.543,1.572c0,0.686,0.166,1.236,0.494,1.65c0.33,0.414,0.773,0.621,1.326,0.621
		c0.555,0,0.996-0.207,1.326-0.621S75.82,55.768,75.82,55.083z M76.857,55.083c0,0.947-0.209,1.693-0.627,2.238
		c-0.49,0.635-1.234,0.951-2.23,0.951c-0.939,0-1.654-0.283-2.146-0.852c-0.473-0.547-0.709-1.326-0.709-2.336
		c0-0.945,0.246-1.688,0.74-2.227c0.496-0.539,1.199-0.809,2.115-0.809s1.623,0.27,2.117,0.809S76.857,54.139,76.857,55.083z
		 M70.177,55.073c-0.537,2.133-1.775,3.199-3.711,3.199c-1.166,0-2.102-0.387-2.814-1.156c-0.711-0.773-1.068-1.791-1.068-3.051
		c0-1.195,0.322-2.184,0.965-2.957c0.705-0.848,1.682-1.273,2.928-1.273c0.82,0,1.537,0.223,2.152,0.67
		c0.613,0.447,1.072,1.094,1.367,1.943h-1.18c-0.475-1.129-1.27-1.693-2.387-1.693c-0.811,0-1.461,0.307-1.951,0.92
		s-0.736,1.426-0.736,2.445c0,0.953,0.25,1.73,0.752,2.332s1.16,0.902,1.971,0.902c1.311,0,2.162-0.76,2.553-2.279h1.16V55.073z"/>
	<circle fill="none" stroke="#262324" stroke-width="0.167" stroke-miterlimit="22.9256" cx="215.398" cy="4.648" r="4.606"/>
	<path fill="#424143" d="M214.044,4.24h1.646c0.355,0,0.625-0.042,0.824-0.114c0.197-0.064,0.35-0.186,0.447-0.348
		c0.107-0.154,0.154-0.332,0.154-0.519c0-0.275-0.098-0.502-0.297-0.672c-0.197-0.178-0.514-0.266-0.943-0.266h-1.832V4.24z
		 M213.275,7.479v-5.8h2.568c0.52,0,0.914,0.048,1.184,0.154c0.268,0.106,0.484,0.292,0.637,0.55
		c0.164,0.269,0.246,0.561,0.246,0.876c0,0.414-0.131,0.763-0.398,1.044c-0.266,0.276-0.68,0.454-1.229,0.536
		c0.201,0.099,0.355,0.194,0.459,0.292c0.219,0.204,0.438,0.462,0.633,0.771l1.004,1.58h-0.957l-0.77-1.208
		c-0.227-0.349-0.406-0.616-0.551-0.803c-0.145-0.186-0.277-0.315-0.389-0.388c-0.115-0.074-0.232-0.122-0.357-0.154
		c-0.08-0.016-0.227-0.023-0.422-0.023h-0.891v2.578h-0.768V7.479z"/>
</g>
</svg>
