<?xml version="1.0" encoding="utf-8"?>
<!-- Generator: Adobe Illustrator 16.0.0, SVG Export Plug-In . SVG Version: 6.00 Build 0)  -->
<!DOCTYPE svg PUBLIC "-//W3C//DTD SVG 1.1//EN" "http://www.w3.org/Graphics/SVG/1.1/DTD/svg11.dtd">
<svg version="1.1" id="Capa_1" xmlns="http://www.w3.org/2000/svg" xmlns:xlink="http://www.w3.org/1999/xlink" x="0px" y="0px"
	 width="180.07px" height="37.137px" viewBox="0 -0.034 180.07 37.137" enable-background="new 0 -0.034 180.07 37.137"
	 xml:space="preserve">
<g>
	<path fill="#424143" d="M167.887,37.1h-8.719l-5.125-8.176l-5.336,8.176h-8.824l9.484-13.332l-8.939-12.564h8.387l5.012,7.787
		l5.557-8.373c0.652-1.164,1.738-1.746,3.268-1.746h6.535l-10.896,14.982L167.887,37.1z M85.284,31.061h9.147
		c2.037,0,3.6-0.359,4.689-1.061c1.02-0.66,1.523-1.754,1.523-3.316c0-1.553-0.504-2.691-1.523-3.404
		c-0.943-0.648-2.543-0.973-4.793-0.973h-9.042v8.754H85.284z M85.284,16.553h8.825c1.881,0,3.27-0.291,4.131-0.873
		c0.877-0.582,1.311-1.496,1.311-2.725c0-1.238-0.434-2.145-1.311-2.723c-0.723-0.527-2.135-0.781-4.246-0.781h-8.71V16.553z
		 M77.874,37.1V7.116c0-0.98,0.38-1.805,1.142-2.484c0.765-0.68,1.694-1.025,2.78-1.025h13.722c3.861,0,6.797,0.719,8.832,2.145
		c2.029,1.553,3.051,3.664,3.051,6.324c0,1.688-0.398,3.113-1.201,4.287c-0.799,1.105-1.926,1.975-3.375,2.623
		c1.883,0.715,3.34,1.723,4.352,3.025c0.949,1.23,1.422,2.854,1.422,4.873c0,3.238-1.164,5.775-3.488,7.594
		c-2.398,1.754-5.773,2.625-10.133,2.625H77.874V37.1z"/>
	<path fill="#AFCB49" d="M61.872,10.807c3.884,0,6.978,1.186,9.282,3.541c2.302,2.361,3.456,5.541,3.456,9.541
		c0,4.004-1.152,7.189-3.456,9.545c-2.305,2.359-5.396,3.537-9.282,3.537c-3.902,0-6.996-1.176-9.284-3.533
		c-2.286-2.355-3.426-5.537-3.426-9.549c0-4.02,1.14-7.205,3.426-9.553C54.876,11.983,57.968,10.807,61.872,10.807 M61.872,15.259
		c-2.288,0-4.064,0.754-5.336,2.262c-1.276,1.504-1.914,3.627-1.914,6.369c0,2.734,0.638,4.857,1.914,6.369
		c1.271,1.516,3.048,2.27,5.336,2.27c2.308,0,4.105-0.754,5.39-2.27c1.286-1.512,1.924-3.631,1.924-6.369
		c0-2.725-0.638-4.848-1.924-6.365C65.976,16.01,64.18,15.259,61.872,15.259z M17.674,32.069c1.004,0,1.765,0.201,2.265,0.586
		c0.502,0.395,0.754,0.988,0.754,1.779c0,0.775-0.259,1.365-0.765,1.768c-0.51,0.4-1.256,0.605-2.254,0.605H3.38
		c-1.276,0-2.158-0.283-2.646-0.852C0.242,35.385,0,34.319,0,32.755V15.053c0-1.578,0.242-2.652,0.734-3.217
		c0.487-0.568,1.372-0.85,2.646-0.85h13.578c0.992,0,1.744,0.189,2.252,0.578c0.508,0.383,0.764,0.955,0.764,1.701
		c0,0.721-0.256,1.275-0.764,1.645c-0.508,0.377-1.26,0.561-2.252,0.561H5.494v5.504h10.304c0.996,0,1.738,0.189,2.232,0.549
		c0.496,0.373,0.746,0.932,0.746,1.678c0,0.709-0.257,1.258-0.765,1.627c-0.51,0.377-1.244,0.561-2.214,0.561H5.494v6.676
		L17.674,32.069L17.674,32.069z M22.272,24.26c0-4.246,1.104-7.557,3.304-9.93s5.277-3.555,9.222-3.555
		c1.554,0,2.984,0.201,4.288,0.604c1.302,0.41,2.534,1.043,3.704,1.906c0.794,0.572,1.428,1.229,1.886,1.963
		c0.458,0.736,0.69,1.441,0.69,2.115c0,0.74-0.23,1.336-0.69,1.777c-0.458,0.447-1.078,0.668-1.857,0.668
		c-0.435,0-0.851-0.086-1.242-0.254c-0.398-0.164-0.792-0.426-1.176-0.779c-0.2-0.176-0.425-0.455-0.664-0.822
		c-0.24-0.369-0.416-0.607-0.519-0.723c-0.567-0.627-1.235-1.098-2.014-1.404c-0.78-0.309-1.672-0.465-2.674-0.465
		c-2.112,0-3.771,0.756-4.98,2.264c-1.212,1.5-1.822,3.586-1.822,6.229c0,2.709,0.61,4.805,1.828,6.283
		c1.219,1.48,2.958,2.217,5.206,2.217c0.988,0,1.88-0.15,2.672-0.451c0.79-0.291,1.429-0.725,1.923-1.289
		c0.199-0.234,0.405-0.533,0.604-0.883c0.2-0.355,0.334-0.578,0.404-0.664c0.447-0.549,0.861-0.934,1.235-1.139
		c0.381-0.209,0.809-0.307,1.292-0.307c0.717,0,1.326,0.221,1.828,0.672s0.754,0.996,0.754,1.631c0,0.631-0.222,1.324-0.664,2.078
		c-0.441,0.754-1.025,1.447-1.756,2.068c-1.206,1.014-2.483,1.75-3.848,2.211c-1.356,0.459-2.938,0.688-4.738,0.688
		c-3.782,0-6.76-1.131-8.934-3.389C23.358,31.307,22.272,28.202,22.272,24.26z"/>
	<polygon fill="#424143" points="136.088,29.1 125.414,36.725 125.414,19.952 137.617,15.374 	"/>
	<polygon fill="#AFCB49" points="112.379,14.374 124.582,18.952 136.781,14.374 124.582,11.325 	"/>
	<path fill="#AFCB49" d="M123.039,22.366l-5.637,5.822c0,0-0.281-0.627-0.102-1.445C117.898,23.993,121.062,22.751,123.039,22.366"
		/>
	<path fill="#709F76" d="M115.652,23.628l2.723,5.25c0,0-0.951,0.131-1.697-1.008c-0.746-1.141-1.016-3.041-1.02-3.354
		C115.656,24.202,115.652,23.628,115.652,23.628"/>
	<circle fill="none" stroke="#262324" stroke-width="0.1366" stroke-miterlimit="22.9256" cx="176.234" cy="3.802" r="3.768"/>
	<path fill="#424143" d="M175.129,3.464h1.348c0.289,0,0.508-0.033,0.672-0.09c0.16-0.049,0.285-0.152,0.367-0.287
		c0.084-0.123,0.125-0.271,0.125-0.422c0-0.223-0.078-0.41-0.246-0.549c-0.156-0.145-0.418-0.215-0.77-0.215h-1.496V3.464z
		 M174.5,6.12V1.374h2.1c0.428,0,0.75,0.037,0.969,0.123c0.213,0.09,0.393,0.24,0.52,0.455c0.131,0.217,0.205,0.459,0.205,0.713
		c0,0.34-0.111,0.623-0.328,0.855c-0.219,0.227-0.555,0.373-1.008,0.439c0.168,0.082,0.291,0.16,0.377,0.238
		c0.18,0.168,0.361,0.377,0.516,0.631l0.824,1.291h-0.787l-0.627-0.988c-0.184-0.291-0.328-0.508-0.451-0.656
		c-0.125-0.15-0.225-0.262-0.314-0.32c-0.094-0.057-0.193-0.098-0.291-0.123c-0.066-0.018-0.189-0.021-0.344-0.021h-0.73v2.111
		L174.5,6.12L174.5,6.12z"/>
</g>
</svg>
