<?xml version="1.0" encoding="utf-8"?>
<!-- Generator: Adobe Illustrator 16.0.0, SVG Export Plug-In . SVG Version: 6.00 Build 0)  -->
<!DOCTYPE svg PUBLIC "-//W3C//DTD SVG 1.1//EN" "http://www.w3.org/Graphics/SVG/1.1/DTD/svg11.dtd">
<svg version="1.1" id="Capa_1" xmlns="http://www.w3.org/2000/svg" xmlns:xlink="http://www.w3.org/1999/xlink" x="0px" y="0px"
	 width="24px" height="48px" viewBox="-6 -12 24 48" enable-background="new -6 -12 24 48" xml:space="preserve">
<g>
	<g>
		<path fill="#424143" d="M13.884-2.348L10.38-5.812c-0.102-0.094-0.211-0.176-0.332-0.245v-5.606C10.048-11.85,9.896-12,9.712-12
			H-1.085c-0.93,0.002-1.684,0.748-1.684,1.668V3c0,0.922,0.754,1.668,1.684,1.668h8.117C7.204,6.554,8.802,7.998,10.72,8h3.709
			c0.189,0,0.336-0.148,0.336-0.332v-7.896C14.774-1.024,14.454-1.79,13.884-2.348z M-2.095,3v-13.332c0-0.552,0.454-1,1.008-1
			H9.372V1.196L7.001-1.145c-0.422-0.434-1.05-0.609-1.64-0.457C4.767-1.45,4.305-0.994,4.153-0.41
			C4.001,0.176,4.177,0.798,4.619,1.214l0.404,0.4C5.027,1.616,5.027,1.62,5.027,1.62c0.006,0.006,0.01,0.006,0.01,0.006l1.676,1.66
			c0.192,0.186,0.294,0.439,0.294,0.706L-1.087,4C-1.641,4-2.095,3.552-2.095,3z M5.097,0.742c-0.191-0.188-0.3-0.442-0.3-0.708
			c0-0.265,0.11-0.521,0.298-0.708c0.398-0.376,1.03-0.376,1.431,0L6.705-0.5L5.273,0.914L5.097,0.742z M14.093,7.334H10.72
			c-1.676-0.002-3.037-1.344-3.037-3V3.992c0-0.442-0.176-0.866-0.496-1.178L5.747,1.386l1.43-1.414l3.305,3.265
			c0.133,0.126,0.344,0.124,0.473-0.004c0.127-0.129,0.131-0.336,0.004-0.467l-0.914-0.901v-7.059l3.355,3.314
			c0.445,0.438,0.695,1.032,0.691,1.649L14.093,7.334L14.093,7.334z"/>
		<path fill="#424143" d="M-1.087-8c0.188,0,0.34-0.148,0.34-0.332v-1.334c0-0.184,0.146-0.332,0.336-0.332h1.353
			c0.186,0,0.336-0.15,0.336-0.334s-0.152-0.334-0.336-0.334h-1.353c-0.556,0-1.012,0.448-1.012,1v1.334
			C-1.423-8.148-1.273-8-1.087-8z"/>
		<path fill="#424143" d="M0.941,2.668h-1.353c-0.189,0-0.336-0.148-0.336-0.332V1c0-0.184-0.152-0.332-0.34-0.332
			c-0.187,0-0.336,0.148-0.336,0.332v1.336c0,0.55,0.456,0.996,1.012,0.996h1.353c0.186,0,0.336-0.146,0.336-0.332
			C1.277,2.816,1.125,2.668,0.941,2.668z"/>
		<g>
			<path fill="#424143" d="M3.637-9.666c-1.863,0-3.376,1.494-3.376,3.334S1.777-3,3.637-3c1.86,0,3.374-1.492,3.374-3.332
				S5.499-9.666,3.637-9.666z M3.663-3.586c-1.534,0-2.776-1.25-2.776-2.792S2.129-9.17,3.663-9.17c1.532,0,2.778,1.252,2.778,2.794
				S5.195-3.586,3.663-3.586z"/>
			<g>
				<path fill="#424143" d="M4.719-8.07c-0.54,0-0.966,0.431-0.966,0.958c0,0.528,0.43,0.958,0.966,0.958s0.968-0.43,0.968-0.958
					C5.689-7.64,5.257-8.07,4.719-8.07z M4.719-6.63c-0.27,0-0.481-0.216-0.481-0.48c0-0.266,0.212-0.478,0.481-0.478
					c0.269,0,0.484,0.212,0.484,0.478C5.209-6.848,4.987-6.63,4.719-6.63z"/>
			</g>
		</g>
	</g>
	<g>
		<path fill="#AFCB49" d="M13.884,25.652l-3.504-3.465c-0.105-0.094-0.211-0.176-0.332-0.246v-5.605C10.048,16.15,9.899,16,9.712,16
			H-1.085c-0.93,0.002-1.684,0.748-1.684,1.668V31c0,0.922,0.754,1.668,1.684,1.668h8.117c0.172,1.887,1.773,3.33,3.691,3.332h3.709
			c0.189,0,0.336-0.148,0.336-0.332v-7.896C14.774,26.977,14.454,26.211,13.884,25.652z M-2.095,31V17.668c0-0.551,0.454-1,1.008-1
			H9.372v12.527l-2.371-2.34c-0.422-0.434-1.05-0.609-1.64-0.457c-0.595,0.152-1.055,0.607-1.208,1.191
			c-0.152,0.586,0.023,1.207,0.466,1.625l0.404,0.398c0.004,0.004,0.004,0.008,0.004,0.008c0.006,0.004,0.01,0.004,0.01,0.004
			l1.676,1.66c0.192,0.188,0.294,0.441,0.294,0.707L-1.087,32C-1.641,32-2.095,31.551-2.095,31z M5.097,28.742
			c-0.191-0.188-0.298-0.441-0.298-0.707c0-0.268,0.11-0.523,0.298-0.709c0.398-0.377,1.03-0.377,1.431,0L6.705,27.5l-1.432,1.414
			L5.097,28.742z M14.093,35.334H10.72c-1.676-0.002-3.037-1.344-3.037-3v-0.342c0-0.441-0.176-0.867-0.496-1.178l-1.441-1.428
			l1.43-1.414l3.303,3.264c0.133,0.127,0.346,0.123,0.473-0.004c0.127-0.129,0.131-0.336,0.004-0.467l-0.914-0.902v-7.055
			l3.357,3.312c0.445,0.438,0.695,1.035,0.691,1.65L14.093,35.334L14.093,35.334z"/>
		<path fill="#AFCB49" d="M-1.087,20c0.188,0,0.34-0.148,0.34-0.332v-1.334c0-0.184,0.146-0.332,0.336-0.332h1.353
			c0.186,0,0.336-0.15,0.336-0.334s-0.15-0.334-0.336-0.334h-1.353c-0.556,0-1.012,0.447-1.012,1v1.334
			C-1.423,19.852-1.273,20-1.087,20z"/>
		<path fill="#AFCB49" d="M0.941,30.668h-1.353c-0.189,0-0.336-0.148-0.336-0.332V29c0-0.184-0.152-0.332-0.34-0.332
			c-0.187,0-0.336,0.148-0.336,0.332v1.336c0,0.551,0.456,0.996,1.012,0.996h1.353c0.186,0,0.336-0.146,0.336-0.332
			C1.277,30.816,1.125,30.668,0.941,30.668z"/>
		<g>
			<path fill="#AFCB49" d="M3.637,18.334c-1.863,0-3.376,1.494-3.376,3.334S1.775,25,3.637,25c1.862,0,3.374-1.492,3.374-3.332
				S5.499,18.334,3.637,18.334z M3.663,24.414c-1.534,0-2.776-1.25-2.776-2.793c0-1.541,1.242-2.791,2.776-2.791
				c1.532,0,2.778,1.252,2.778,2.791C6.441,23.162,5.195,24.414,3.663,24.414z"/>
			<g>
				<path fill="#AFCB49" d="M4.719,19.93c-0.54,0-0.966,0.43-0.966,0.957c0,0.531,0.43,0.959,0.966,0.959s0.968-0.43,0.968-0.959
					C5.689,20.359,5.257,19.93,4.719,19.93z M4.719,21.371c-0.27,0-0.481-0.215-0.481-0.48s0.212-0.477,0.481-0.477
					c0.269,0,0.484,0.211,0.484,0.477C5.209,21.152,4.987,21.371,4.719,21.371z"/>
			</g>
		</g>
	</g>
</g>
</svg>
