<?xml version="1.0" encoding="utf-8"?>
<!-- Generator: Adobe Illustrator 16.0.0, SVG Export Plug-In . SVG Version: 6.00 Build 0)  -->
<!DOCTYPE svg PUBLIC "-//W3C//DTD SVG 1.1//EN" "http://www.w3.org/Graphics/SVG/1.1/DTD/svg11.dtd">
<svg version="1.1" id="Capa_1" xmlns="http://www.w3.org/2000/svg" xmlns:xlink="http://www.w3.org/1999/xlink" x="0px" y="0px"
	 width="24px" height="48px" viewBox="-6 -12 24 48" enable-background="new -6 -12 24 48" xml:space="preserve">
<g>
	<g>
		<path fill="#424143" d="M6-4.745c1.717,0,3.119-1.624,3.119-3.626S7.717-11.999,6-11.999c-1.721,0-3.117,1.624-3.117,3.626
			C2.887-6.371,4.281-4.747,6-4.745z M6-11.195c1.338,0,2.424,1.265,2.424,2.822S7.338-5.553,6-5.553s-2.426-1.263-2.426-2.82
			C3.574-9.927,4.662-11.193,6-11.195z"/>
		<path fill="#424143" d="M-1.273-5.955c0.956,0,1.73-0.902,1.73-2.016c0-1.112-0.778-2.017-1.73-2.017
			c-0.958,0-1.733,0.904-1.733,2.017C-3.005-6.857-2.231-5.955-1.273-5.955z M-1.273-9.177c0.57,0,1.038,0.542,1.038,1.208
			s-0.464,1.212-1.038,1.212c-0.573,0-1.042-0.542-1.042-1.21S-1.847-9.177-1.273-9.177z"/>
		<path fill="#424143" d="M13.275-5.955c0.957,0,1.732-0.902,1.732-2.016c0-1.112-0.777-2.017-1.732-2.017
			c-0.957,0-1.734,0.906-1.734,2.021C11.541-6.857,12.316-5.955,13.275-5.955z M13.275-9.177c0.572,0,1.039,0.542,1.039,1.208
			s-0.465,1.21-1.039,1.21c-0.57,0-1.041-0.542-1.041-1.21S12.705-9.177,13.275-9.177z"/>
		<path fill="#424143" d="M14.66-5.955c-0.074,0-0.148,0.028-0.209,0.082l-1.18,1.026l-1.176-1.026
			c-0.055-0.052-0.133-0.082-0.211-0.082c-0.568,0-1.102,0.328-1.422,0.876C9.939-5.385,9.357-5.547,8.771-5.551
			c-0.094,0-0.184,0.042-0.246,0.12L5.998-2.493L3.473-5.433c-0.066-0.076-0.152-0.12-0.246-0.12
			c-0.59,0.006-1.168,0.168-1.697,0.474c-0.316-0.548-0.853-0.876-1.42-0.876c-0.076,0-0.146,0.028-0.208,0.082l-1.179,1.028
			l-1.176-1.028c-0.062-0.052-0.132-0.082-0.21-0.082c-0.958,0.002-1.728,0.904-1.729,2.017v3.581c0,0.419,0.184,0.805,0.489,1.028
			l2.12,1.542c0.164,0.118,0.356,0.18,0.548,0.18c0.16,0,0.318-0.042,0.458-0.124l0.194-0.113v1.846c0,0.479,0.24,0.912,0.62,1.105
			l5.262,2.721c0.447,0.229,0.957,0.229,1.402,0l5.266-2.721c0.373-0.191,0.615-0.625,0.615-1.105v-2.25l0.225,0.134
			c0.293,0.168,0.637,0.168,0.932,0l2.074-1.21c0.357-0.204,0.576-0.624,0.576-1.082v-3.531C16.385-5.049,15.619-5.953,14.66-5.955z
			 M-1.081,1.543c-0.11,0.06-0.236,0.054-0.338-0.016l-2.116-1.54c-0.1-0.072-0.164-0.202-0.164-0.345v-3.581
			c0-0.621,0.398-1.139,0.931-1.205l1.287,1.125c0.124,0.107,0.292,0.107,0.416,0l1.284-1.122c0.292,0.036,0.553,0.208,0.725,0.478
			C0.921-4.639,0.899-4.619,0.879-4.597c-0.052,0.048-0.105,0.1-0.156,0.151C0.657-4.377,0.591-4.312,0.529-4.237
			c-0.048,0.059-0.095,0.114-0.139,0.17C0.333-3.991,0.275-3.913,0.223-3.833c-0.042,0.06-0.082,0.12-0.122,0.186
			c-0.05,0.084-0.096,0.17-0.14,0.257c-0.036,0.065-0.065,0.13-0.098,0.199c-0.042,0.093-0.076,0.187-0.114,0.282
			c-0.03,0.07-0.052,0.134-0.076,0.206c-0.036,0.101-0.06,0.204-0.088,0.308c-0.018,0.066-0.038,0.135-0.048,0.202
			c-0.026,0.118-0.044,0.236-0.061,0.358c-0.008,0.056-0.02,0.118-0.027,0.174c-0.019,0.182-0.03,0.368-0.03,0.546v2.372
			L-1.081,1.543z M11.885,4.001c0,0.16-0.082,0.304-0.207,0.37l-5.26,2.72c-0.27,0.139-0.574,0.139-0.84,0l-5.261-2.72
			c-0.122-0.066-0.204-0.208-0.204-0.37v-5.12c0-0.31,0.034-0.62,0.1-0.918c0.353-1.538,1.516-2.63,2.877-2.706l2.668,3.106
			c0.137,0.155,0.357,0.155,0.49,0l2.666-3.104c1.664,0.09,2.967,1.688,2.971,3.622V4.001z M15.701-0.409
			c0,0.154-0.074,0.294-0.195,0.364l-2.078,1.21c-0.098,0.056-0.207,0.056-0.305,0l-0.541-0.314v-1.97
			c-0.002-0.182-0.01-0.368-0.033-0.546c-0.004-0.058-0.012-0.118-0.023-0.176c-0.021-0.12-0.037-0.24-0.062-0.358
			c-0.012-0.065-0.033-0.134-0.051-0.202c-0.027-0.102-0.051-0.208-0.084-0.306c-0.025-0.07-0.049-0.136-0.078-0.208
			c-0.037-0.094-0.07-0.188-0.115-0.28c-0.031-0.063-0.062-0.132-0.094-0.202c-0.047-0.086-0.094-0.17-0.143-0.252
			c-0.037-0.062-0.078-0.126-0.119-0.188c-0.059-0.082-0.107-0.156-0.164-0.232c-0.047-0.058-0.094-0.115-0.141-0.174
			c-0.062-0.07-0.127-0.136-0.191-0.206c-0.053-0.05-0.107-0.102-0.16-0.151c-0.023-0.022-0.041-0.045-0.066-0.064
			c0.174-0.27,0.436-0.446,0.723-0.48l1.289,1.122c0.125,0.108,0.293,0.108,0.414,0l1.289-1.122c0.527,0.064,0.93,0.584,0.93,1.204
			V-0.409L15.701-0.409z"/>
	</g>
	<g>
		<path fill="#AFCB49" d="M6,23.257c1.717,0,3.119-1.623,3.119-3.623c0-2.004-1.398-3.629-3.119-3.629S2.883,17.63,2.883,19.63
			C2.887,21.63,4.281,23.255,6,23.257z M6,16.806c1.338,0,2.424,1.266,2.424,2.82c0,1.559-1.086,2.82-2.424,2.82
			s-2.426-1.262-2.426-2.82C3.574,18.073,4.662,16.806,6,16.806z"/>
		<path fill="#AFCB49" d="M-1.273,22.044c0.956,0,1.73-0.902,1.73-2.016c0-1.111-0.778-2.016-1.73-2.016
			c-0.958,0-1.733,0.904-1.733,2.016C-3.005,21.142-2.231,22.044-1.273,22.044z M-1.273,18.823c0.57,0,1.038,0.541,1.038,1.209
			s-0.462,1.209-1.038,1.209c-0.575,0-1.042-0.541-1.042-1.209S-1.847,18.823-1.273,18.823z"/>
		<path fill="#AFCB49" d="M13.275,22.044c0.957,0,1.732-0.902,1.732-2.016c0-1.111-0.777-2.016-1.732-2.016
			c-0.957,0-1.73,0.906-1.73,2.02C11.541,21.142,12.316,22.044,13.275,22.044z M13.275,18.823c0.572,0,1.039,0.541,1.039,1.209
			s-0.463,1.209-1.039,1.209c-0.57,0-1.041-0.541-1.041-1.209S12.705,18.823,13.275,18.823z"/>
		<path fill="#AFCB49" d="M14.66,22.044c-0.074,0-0.148,0.031-0.209,0.082l-1.18,1.029l-1.178-1.029
			c-0.057-0.051-0.131-0.082-0.209-0.082c-0.568,0-1.102,0.328-1.422,0.877c-0.527-0.307-1.105-0.471-1.695-0.475
			c-0.092,0-0.182,0.043-0.246,0.123l-2.523,2.939l-2.525-2.939c-0.066-0.076-0.152-0.123-0.246-0.123
			c-0.59,0.004-1.168,0.168-1.699,0.475c-0.316-0.549-0.853-0.877-1.42-0.877c-0.076,0-0.146,0.031-0.208,0.082l-1.177,1.029
			l-1.176-1.029c-0.062-0.051-0.132-0.082-0.21-0.082c-0.958,0.004-1.728,0.902-1.729,2.018v3.58c0,0.42,0.184,0.805,0.489,1.031
			l2.12,1.543c0.164,0.119,0.356,0.18,0.548,0.18c0.16,0,0.318-0.043,0.458-0.125l0.194-0.113v1.846c0,0.479,0.24,0.912,0.62,1.107
			l5.262,2.719c0.447,0.227,0.957,0.227,1.402,0l5.266-2.719c0.375-0.195,0.617-0.625,0.617-1.107v-2.252l0.227,0.133
			c0.291,0.168,0.633,0.168,0.93,0l2.074-1.209c0.357-0.205,0.578-0.623,0.578-1.082v-3.531
			C16.385,22.954,15.619,22.048,14.66,22.044z M-1.081,29.544c-0.11,0.059-0.236,0.053-0.338-0.016l-2.116-1.541
			c-0.102-0.074-0.164-0.205-0.164-0.346v-3.58c0-0.619,0.398-1.137,0.931-1.205l1.287,1.125c0.124,0.107,0.292,0.107,0.416,0
			l1.286-1.125c0.292,0.035,0.553,0.209,0.725,0.479c-0.024,0.025-0.046,0.045-0.066,0.066c-0.052,0.045-0.107,0.102-0.156,0.15
			c-0.065,0.066-0.132,0.135-0.195,0.209c-0.046,0.057-0.095,0.115-0.137,0.17c-0.058,0.076-0.117,0.154-0.168,0.234
			c-0.042,0.059-0.082,0.121-0.122,0.186c-0.05,0.084-0.096,0.17-0.14,0.256c-0.036,0.066-0.065,0.131-0.098,0.199
			c-0.042,0.094-0.078,0.188-0.116,0.285c-0.03,0.068-0.052,0.133-0.076,0.207c-0.036,0.102-0.06,0.205-0.088,0.307
			c-0.018,0.066-0.038,0.133-0.048,0.205c-0.026,0.117-0.042,0.234-0.059,0.355c-0.008,0.059-0.02,0.117-0.029,0.176
			c-0.017,0.18-0.028,0.367-0.028,0.543v2.373L-1.081,29.544z M11.885,32.003c0,0.16-0.082,0.303-0.207,0.373l-5.26,2.717
			c-0.27,0.139-0.574,0.139-0.84,0l-5.261-2.717c-0.124-0.066-0.208-0.209-0.208-0.373V26.88c0-0.307,0.036-0.619,0.098-0.918
			c0.352-1.537,1.516-2.627,2.879-2.705l2.668,3.104c0.135,0.156,0.357,0.156,0.49,0l2.666-3.104
			c1.664,0.092,2.971,1.689,2.975,3.623V32.003L11.885,32.003z M15.701,27.593c0,0.154-0.074,0.291-0.195,0.365l-2.078,1.207
			c-0.098,0.055-0.207,0.055-0.305,0l-0.541-0.314V26.88c-0.002-0.184-0.01-0.367-0.033-0.545c-0.004-0.057-0.016-0.119-0.027-0.176
			c-0.02-0.123-0.035-0.238-0.059-0.357c-0.016-0.066-0.035-0.133-0.051-0.203c-0.027-0.104-0.051-0.207-0.084-0.305
			c-0.025-0.07-0.049-0.137-0.078-0.207c-0.037-0.094-0.07-0.188-0.115-0.281c-0.033-0.064-0.062-0.131-0.098-0.203
			c-0.043-0.086-0.094-0.17-0.139-0.252c-0.041-0.064-0.078-0.127-0.123-0.189c-0.055-0.082-0.105-0.154-0.164-0.23
			c-0.045-0.059-0.094-0.115-0.141-0.174c-0.059-0.07-0.123-0.139-0.191-0.205c-0.049-0.051-0.105-0.105-0.156-0.154
			c-0.025-0.021-0.041-0.043-0.066-0.064c0.174-0.27,0.436-0.445,0.719-0.479l1.291,1.125c0.123,0.107,0.291,0.107,0.414,0
			l1.287-1.125c0.531,0.064,0.934,0.584,0.934,1.207V27.593z"/>
	</g>
</g>
</svg>
