<?xml version="1.0" encoding="utf-8"?>
<!-- Generator: Adobe Illustrator 16.0.0, SVG Export Plug-In . SVG Version: 6.00 Build 0)  -->
<!DOCTYPE svg PUBLIC "-//W3C//DTD SVG 1.1//EN" "http://www.w3.org/Graphics/SVG/1.1/DTD/svg11.dtd">
<svg version="1.1" id="Capa_1" xmlns="http://www.w3.org/2000/svg" xmlns:xlink="http://www.w3.org/1999/xlink" x="0px" y="0px"
	 width="24px" height="48px" viewBox="-6 -12 24 48" enable-background="new -6 -12 24 48" xml:space="preserve">
<g>
	<path fill="#424143" d="M15.602-3.38c0.105,0.062,0.234,0.063,0.344,0.006c0.105-0.058,0.176-0.168,0.176-0.292v-2
		c0-0.116-0.062-0.222-0.164-0.284l-9.781-6c-0.109-0.065-0.246-0.065-0.355,0l-4.543,2.79v-0.838c0-0.186-0.152-0.334-0.34-0.334
		h-1.353c-0.184,0-0.332,0.148-0.332,0.334v2.078l-3.214,1.97c-0.098,0.061-0.16,0.168-0.16,0.284v2
		c0,0.124,0.066,0.232,0.176,0.292c0.101,0.058,0.234,0.056,0.334-0.006l0.836-0.515V7.668c0,0.184,0.152,0.334,0.336,0.334h16.873
		c0.184,0,0.336-0.15,0.336-0.334V4.214c0.703-0.244,1.215-0.852,1.324-1.58c0.113-0.728-0.188-1.458-0.785-1.899
		c-0.031-0.024-0.062-0.042-0.098-0.062c0.43-0.88,0.254-1.934-0.443-2.628v-1.938L15.602-3.38z M-0.075-9.667h0.676v0.918
		l-0.676,0.414V-9.667z M-3.447-5.481l9.443-5.791l9.449,5.791v1.215l-9.27-5.685c-0.109-0.065-0.246-0.065-0.355,0l-9.268,5.685
		V-5.481z M-0.075,7.334v-8.667h4.046v8.667H-0.075z M10.719,7.334V2.668h0.676v4.666H10.719z M14.094,7.334H12.07v-3h2.023V7.334z
		 M15.445,2.334c-0.004,0.634-0.457,1.182-1.086,1.308c-0.086,0.019-0.176,0.026-0.266,0.026H12.07V2.334
		C12.07,2.15,11.918,2,11.734,2h-1.352c-0.184,0-0.336,0.15-0.336,0.334v1.334H7.684c-0.559,0-1.012-0.448-1.012-1
		C6.676,2.49,6.721,2.316,6.816,2.164C7.133,2.486,7.57,2.666,8.02,2.668c0.043,0,0.086-0.004,0.129-0.014
		c0.172-0.04,0.285-0.21,0.25-0.387C8.363,2.094,8.199,1.976,8.02,2C7.461,1.998,7.008,1.55,7.008,1.002
		c0-0.046,0.004-0.096,0.012-0.14c0.047-0.328,0.254-0.611,0.555-0.754c0.07-0.036,0.148-0.064,0.223-0.08h0.008
		c0.238-0.053,0.488-0.019,0.703,0.098C8.672,0.217,8.875,0.162,8.969,0C9.059-0.161,9-0.367,8.84-0.457
		c-0.242-0.132-0.516-0.2-0.793-0.204c-0.012,0-0.016-0.004-0.029-0.004c-0.031,0-0.057,0.008-0.09,0.008
		c-0.057,0.004-0.111,0.01-0.17,0.019C7.738-0.634,7.711-0.634,7.691-0.63c0-0.012-0.004-0.022-0.004-0.034
		c0-0.636,0.453-1.182,1.086-1.308C8.855-1.991,8.945-2,9.035-1.999C9.32-2,9.602-1.911,9.832-1.741
		c0.148,0.108,0.363,0.078,0.473-0.072c0.109-0.146,0.078-0.355-0.074-0.464c-0.332-0.245-0.738-0.38-1.156-0.384H9.066
		C9.07-2.672,9.074-2.68,9.078-2.69c0.02-0.093,0.047-0.181,0.082-0.269c0.016-0.034,0.035-0.06,0.047-0.092
		c0.027-0.061,0.057-0.12,0.094-0.176C9.324-3.26,9.352-3.291,9.375-3.323c0.037-0.048,0.074-0.096,0.119-0.142
		c0.033-0.028,0.057-0.056,0.09-0.084c0.041-0.042,0.094-0.08,0.139-0.116C9.76-3.69,9.789-3.712,9.826-3.735
		c0.053-0.033,0.109-0.062,0.168-0.09c0.033-0.016,0.068-0.036,0.107-0.052c0.066-0.024,0.129-0.042,0.199-0.06
		c0.033-0.009,0.066-0.021,0.1-0.028c0.217-0.044,0.441-0.044,0.658-0.004c0.035,0.01,0.07,0.023,0.102,0.034
		c0.074,0.018,0.141,0.039,0.215,0.065c0.035,0.017,0.066,0.04,0.102,0.056c0.062,0.028,0.121,0.061,0.18,0.097
		c0.035,0.026,0.066,0.054,0.098,0.08c0.055,0.04,0.109,0.078,0.152,0.124c0.035,0.033,0.059,0.069,0.086,0.104
		c0.047,0.044,0.086,0.092,0.121,0.143c0.027,0.04,0.047,0.082,0.07,0.124c0.031,0.05,0.059,0.102,0.086,0.157
		c0.02,0.045,0.027,0.095,0.043,0.141c0.02,0.056,0.039,0.113,0.055,0.172c0.012,0.046,0.012,0.1,0.02,0.147
		c0.004,0.064,0.012,0.124,0.016,0.187c-0.004,0.012-0.004,0.025-0.004,0.038c0,0.306-0.09,0.605-0.258,0.864
		c-0.102,0.153-0.055,0.359,0.102,0.462c0.156,0.098,0.367,0.05,0.469-0.106c0.18-0.278,0.295-0.59,0.344-0.916
		c0.008,0,0.016-0.002,0.027-0.002c0.578,0,1.121,0.294,1.43,0.784s0.34,1.098,0.086,1.614c-0.031-0.009-0.062-0.019-0.094-0.024
		c-0.133-0.028-0.273-0.042-0.41-0.04c-0.637-0.004-1.242,0.292-1.621,0.8c-0.113,0.148-0.082,0.356,0.07,0.468
		c0.148,0.11,0.359,0.08,0.471-0.065c0.25-0.34,0.652-0.538,1.078-0.536C14.186,1,14.281,1.01,14.371,1.03
		c0.09,0.016,0.172,0.042,0.254,0.082c0.098,0.04,0.195,0.094,0.277,0.155C15.242,1.52,15.441,1.914,15.445,2.334z M14.094-4.306
		v1.866c-0.012-0.011-0.031-0.015-0.043-0.021c-0.055-0.022-0.113-0.046-0.168-0.066c-0.029-0.012-0.059-0.02-0.09-0.029
		c-0.047-0.017-0.094-0.028-0.141-0.04c-0.035-0.006-0.07-0.017-0.109-0.024c-0.041-0.01-0.078-0.014-0.125-0.02
		c-0.043-0.005-0.078-0.013-0.117-0.017c-0.07-0.006-0.145-0.01-0.219-0.01h-0.008c-0.004,0-0.012,0-0.016,0
		c-0.004-0.026-0.008-0.05-0.016-0.074c-0.004-0.034-0.008-0.063-0.02-0.096c-0.008-0.042-0.02-0.084-0.031-0.124
		c-0.012-0.03-0.016-0.06-0.027-0.088c-0.012-0.044-0.031-0.084-0.047-0.128c-0.012-0.026-0.02-0.053-0.031-0.078
		c-0.02-0.046-0.043-0.094-0.066-0.141c-0.012-0.018-0.02-0.037-0.027-0.056c-0.035-0.062-0.074-0.124-0.117-0.182
		c-0.004-0.013-0.016-0.024-0.023-0.036c-0.035-0.046-0.066-0.094-0.102-0.136c-0.016-0.022-0.035-0.04-0.051-0.059
		c-0.031-0.034-0.062-0.071-0.098-0.104c-0.02-0.021-0.043-0.038-0.062-0.061c-0.027-0.027-0.062-0.058-0.098-0.086
		c-0.02-0.02-0.047-0.038-0.066-0.056c-0.035-0.026-0.07-0.05-0.102-0.076c-0.027-0.016-0.055-0.032-0.082-0.048
		c-0.031-0.024-0.07-0.046-0.102-0.066c-0.027-0.018-0.059-0.029-0.086-0.044c-0.041-0.02-0.078-0.04-0.119-0.056
		c-0.025-0.012-0.053-0.024-0.08-0.036c-0.043-0.016-0.082-0.032-0.125-0.046c-0.027-0.01-0.059-0.021-0.086-0.03
		c-0.043-0.01-0.09-0.021-0.133-0.031c-0.027-0.007-0.055-0.015-0.086-0.021c-0.047-0.008-0.098-0.014-0.148-0.02
		c-0.023-0.005-0.051-0.009-0.074-0.013c-0.078-0.006-0.152-0.012-0.234-0.012c-0.074,0-0.156,0.006-0.234,0.012
		c-0.023,0.004-0.051,0.008-0.078,0.013c-0.047,0.006-0.098,0.012-0.148,0.02c-0.027,0.006-0.059,0.017-0.09,0.022
		c-0.043,0.012-0.086,0.021-0.133,0.033c-0.027,0.011-0.059,0.021-0.09,0.032C9.902-4.522,9.863-4.508,9.824-4.491
		c-0.035,0.012-0.062,0.026-0.09,0.036C9.695-4.436,9.66-4.418,9.621-4.399C9.594-4.382,9.566-4.369,9.535-4.35
		C9.5-4.329,9.465-4.308,9.43-4.289C9.402-4.27,9.375-4.25,9.348-4.231C9.316-4.208,9.281-4.184,9.25-4.159
		c-0.023,0.021-0.051,0.04-0.074,0.062c-0.031,0.025-0.059,0.052-0.09,0.08c-0.023,0.023-0.047,0.048-0.07,0.069
		c-0.027,0.03-0.055,0.059-0.082,0.088C8.91-3.833,8.891-3.806,8.871-3.783C8.844-3.75,8.82-3.718,8.793-3.686
		c-0.016,0.027-0.037,0.052-0.055,0.08c-0.02,0.033-0.039,0.067-0.062,0.104C8.66-3.472,8.645-3.447,8.629-3.415
		c-0.02,0.036-0.041,0.072-0.055,0.108c-0.012,0.031-0.027,0.06-0.039,0.092C8.52-3.178,8.504-3.138,8.492-3.1
		C8.48-3.069,8.469-3.039,8.457-3.006c-0.016,0.04-0.023,0.082-0.035,0.124C8.414-2.85,8.406-2.821,8.398-2.789
		c-0.004,0.044-0.012,0.088-0.02,0.134c-0.004,0.03-0.012,0.061-0.012,0.094v0.005C8.352-2.55,8.34-2.542,8.324-2.539
		C8.281-2.522,8.242-2.502,8.199-2.483C8.141-2.458,8.082-2.43,8.023-2.399C7.984-2.375,7.945-2.35,7.906-2.325
		C7.855-2.291,7.805-2.252,7.754-2.212c-0.035,0.028-0.07,0.058-0.102,0.09C7.605-2.081,7.562-2.037,7.52-1.989
		C7.488-1.957,7.461-1.922,7.43-1.882c-0.039,0.048-0.074,0.1-0.109,0.153c-0.02,0.041-0.047,0.076-0.066,0.116
		C7.223-1.554,7.195-1.497,7.172-1.436c-0.02,0.041-0.035,0.077-0.051,0.119C7.098-1.249,7.078-1.178,7.062-1.106
		C7.055-1.071,7.043-1.039,7.035-1c-0.039,0.21-0.039,0.428-0.004,0.638v0.013C6.98-0.315,6.934-0.277,6.885-0.233
		C6.877-0.229,6.875-0.224,6.871-0.22C6.82-0.174,6.773-0.125,6.725-0.073C6.709-0.054,6.699-0.035,6.684-0.016
		C6.656,0.021,6.623,0.06,6.602,0.099C6.586,0.124,6.57,0.146,6.557,0.169C6.535,0.208,6.516,0.248,6.496,0.288
		C6.48,0.312,6.471,0.337,6.459,0.366c-0.02,0.04-0.035,0.082-0.045,0.124C6.406,0.516,6.398,0.542,6.389,0.568
		C6.377,0.616,6.367,0.662,6.359,0.71C6.355,0.734,6.352,0.758,6.348,0.782c-0.023,0.153-0.023,0.313,0.004,0.47
		c0.004,0.024,0.012,0.046,0.016,0.07C6.379,1.384,6.396,1.446,6.414,1.51c0.008,0.015,0.008,0.03,0.012,0.042
		C6.422,1.561,6.414,1.568,6.41,1.576c-0.062,0.065-0.119,0.14-0.164,0.216C6.242,1.796,6.242,1.8,6.238,1.804
		C6.195,1.878,6.156,1.958,6.121,2.038C6.113,2.054,6.109,2.07,6.102,2.084C6.07,2.166,6.045,2.25,6.027,2.338
		c0,0.016-0.004,0.034-0.008,0.05C6.004,2.48,5.996,2.574,5.996,2.668C6,3.588,6.754,4.332,7.684,4.334h2.363v3H4.648v-9
		c0-0.184-0.152-0.332-0.338-0.332h-4.726c-0.184,0-0.332,0.148-0.332,0.332v9h-1.352v-11.64l8.095-4.966L14.094-4.306z"/>
	<path fill="#424143" d="M5.996-3.667c1.121,0,2.023-0.895,2.023-2c0-1.104-0.902-2-2.023-2c-1.119,0-2.025,0.896-2.025,2
		S4.877-3.667,5.996-3.667z M4.699-5.333H5.66v0.952C5.191-4.5,4.82-4.867,4.699-5.333z M6.332-4.38v-0.952h0.969
		C7.176-4.867,6.807-4.5,6.332-4.38z M7.301-5.999H6.332v-0.954C6.807-6.831,7.176-6.464,7.301-5.999z M5.66-6.953v0.954H4.699
		C4.82-6.464,5.191-6.831,5.66-6.953z"/>
</g>
<g>
	<path fill="#AFCB49" d="M15.602,24.617c0.105,0.062,0.234,0.064,0.344,0.008c0.105-0.059,0.176-0.168,0.176-0.293v-2
		c0-0.117-0.062-0.223-0.164-0.285l-9.781-6c-0.109-0.064-0.246-0.064-0.355,0l-4.543,2.791V18c0-0.186-0.152-0.334-0.34-0.334
		h-1.353c-0.184,0-0.332,0.148-0.332,0.334v2.078l-3.214,1.969c-0.098,0.062-0.16,0.168-0.16,0.285v2
		c0,0.125,0.066,0.232,0.176,0.293c0.103,0.057,0.234,0.055,0.336-0.008l0.836-0.514v11.562C-2.775,35.85-2.623,36-2.439,36h16.873
		c0.184,0,0.336-0.15,0.336-0.334v-3.455c0.703-0.242,1.215-0.852,1.324-1.578c0.113-0.729-0.188-1.459-0.785-1.9
		c-0.031-0.025-0.062-0.043-0.098-0.062c0.43-0.881,0.254-1.934-0.443-2.627v-1.939L15.602,24.617z M-0.075,18.332h0.676v0.918
		l-0.676,0.414V18.332z M-3.447,22.518l9.443-5.791l9.449,5.791v1.215l-9.27-5.686c-0.109-0.064-0.246-0.064-0.355,0l-9.268,5.686
		V22.518z M-0.075,35.332v-8.666h4.046v8.666H-0.075z M10.719,35.332v-4.666h0.676v4.666H10.719z M14.094,35.332H12.07v-3h2.023
		V35.332z M15.445,30.332c-0.004,0.633-0.457,1.182-1.086,1.309c-0.086,0.018-0.176,0.025-0.266,0.025H12.07v-1.334
		c0-0.184-0.152-0.334-0.336-0.334h-1.352c-0.184,0-0.336,0.15-0.336,0.334v1.334H7.684c-0.559,0-1.012-0.447-1.012-1
		c0.004-0.178,0.049-0.352,0.145-0.504c0.316,0.322,0.754,0.502,1.203,0.504c0.043,0,0.086-0.004,0.129-0.014
		c0.172-0.039,0.285-0.211,0.25-0.387c-0.035-0.174-0.199-0.293-0.379-0.268C7.461,29.996,7.008,29.547,7.008,29
		c0-0.047,0.004-0.096,0.012-0.141c0.047-0.328,0.254-0.609,0.555-0.754c0.07-0.035,0.148-0.062,0.223-0.078h0.008
		c0.238-0.055,0.488-0.02,0.703,0.098c0.164,0.09,0.367,0.035,0.461-0.127C9.059,27.84,9,27.633,8.84,27.543
		c-0.242-0.131-0.516-0.201-0.793-0.205c-0.012,0-0.016-0.004-0.027-0.004c-0.031,0-0.059,0.008-0.09,0.008
		c-0.059,0.004-0.113,0.01-0.172,0.018c-0.02,0.004-0.047,0.004-0.066,0.008c0-0.012-0.004-0.021-0.004-0.033
		c0-0.635,0.453-1.182,1.086-1.307c0.082-0.02,0.172-0.029,0.262-0.027c0.287-0.002,0.566,0.088,0.797,0.258
		c0.148,0.109,0.363,0.078,0.473-0.072c0.109-0.146,0.078-0.355-0.074-0.463c-0.332-0.246-0.738-0.381-1.156-0.385H9.066
		c0.004-0.01,0.008-0.018,0.012-0.027c0.02-0.092,0.047-0.182,0.082-0.268c0.016-0.035,0.035-0.061,0.047-0.094
		c0.027-0.059,0.057-0.119,0.094-0.176c0.023-0.035,0.049-0.062,0.074-0.098c0.035-0.047,0.074-0.096,0.117-0.141
		c0.031-0.029,0.059-0.057,0.09-0.086c0.043-0.041,0.094-0.078,0.141-0.115c0.035-0.025,0.066-0.049,0.102-0.07
		c0.055-0.033,0.109-0.061,0.168-0.09c0.035-0.016,0.07-0.037,0.109-0.049c0.066-0.025,0.129-0.043,0.199-0.061
		c0.033-0.01,0.066-0.021,0.1-0.029c0.217-0.043,0.441-0.043,0.658-0.004c0.037,0.008,0.07,0.023,0.104,0.035
		c0.074,0.018,0.139,0.039,0.213,0.066c0.037,0.016,0.066,0.039,0.102,0.055c0.062,0.027,0.123,0.061,0.182,0.098
		c0.037,0.025,0.064,0.053,0.098,0.078c0.053,0.041,0.111,0.078,0.152,0.125c0.037,0.033,0.057,0.07,0.086,0.104
		c0.045,0.045,0.086,0.092,0.123,0.143c0.027,0.039,0.045,0.082,0.068,0.125c0.033,0.049,0.059,0.102,0.088,0.156
		c0.02,0.045,0.027,0.094,0.041,0.141c0.02,0.055,0.039,0.113,0.053,0.172c0.012,0.047,0.012,0.1,0.02,0.148
		c0.004,0.062,0.014,0.123,0.018,0.186C12.4,25.674,12.4,25.688,12.4,25.699c0,0.307-0.092,0.605-0.26,0.865
		c-0.102,0.154-0.053,0.361,0.104,0.463c0.156,0.098,0.369,0.049,0.467-0.107c0.18-0.279,0.297-0.59,0.344-0.916
		C13.062,26.002,13.07,26,13.082,26c0.578,0,1.121,0.293,1.43,0.785c0.309,0.488,0.34,1.098,0.086,1.613
		c-0.031-0.008-0.062-0.02-0.094-0.023c-0.133-0.029-0.273-0.043-0.41-0.041c-0.637-0.004-1.242,0.291-1.621,0.799
		c-0.113,0.148-0.082,0.357,0.07,0.467c0.148,0.111,0.359,0.08,0.471-0.064c0.25-0.34,0.652-0.539,1.078-0.537
		c0.094-0.002,0.189,0.008,0.279,0.029c0.09,0.016,0.172,0.041,0.254,0.082c0.098,0.039,0.195,0.094,0.277,0.154
		C15.242,29.518,15.441,29.912,15.445,30.332z M14.094,23.691v1.869c-0.012-0.01-0.031-0.014-0.043-0.021
		c-0.053-0.023-0.113-0.045-0.168-0.066c-0.027-0.012-0.057-0.02-0.09-0.027c-0.045-0.018-0.094-0.029-0.139-0.041
		c-0.037-0.008-0.07-0.018-0.111-0.025c-0.039-0.012-0.078-0.016-0.123-0.02c-0.041-0.008-0.078-0.016-0.119-0.02
		c-0.068-0.006-0.143-0.01-0.217-0.01h-0.01c-0.004,0-0.012,0-0.016,0c-0.004-0.025-0.008-0.049-0.016-0.074
		c-0.004-0.033-0.008-0.064-0.02-0.096c-0.01-0.043-0.021-0.084-0.033-0.125c-0.014-0.029-0.018-0.057-0.029-0.086
		c-0.012-0.043-0.031-0.086-0.045-0.127c-0.012-0.025-0.02-0.053-0.033-0.078c-0.02-0.045-0.041-0.094-0.064-0.141
		c-0.014-0.018-0.021-0.037-0.029-0.053c-0.035-0.062-0.074-0.125-0.117-0.184c-0.004-0.014-0.016-0.025-0.023-0.037
		c-0.035-0.045-0.066-0.094-0.102-0.135c-0.016-0.023-0.037-0.041-0.051-0.059c-0.031-0.035-0.062-0.07-0.098-0.105
		c-0.02-0.02-0.043-0.037-0.062-0.059c-0.027-0.027-0.062-0.057-0.098-0.086c-0.02-0.02-0.047-0.037-0.066-0.055
		c-0.035-0.027-0.07-0.051-0.102-0.076c-0.027-0.016-0.055-0.033-0.082-0.049c-0.027-0.025-0.066-0.047-0.098-0.066
		c-0.027-0.02-0.059-0.031-0.086-0.045c-0.041-0.02-0.078-0.041-0.119-0.057c-0.027-0.012-0.053-0.023-0.082-0.035
		c-0.041-0.016-0.08-0.031-0.123-0.043c-0.027-0.012-0.059-0.021-0.086-0.031c-0.043-0.012-0.09-0.023-0.133-0.033
		c-0.027-0.006-0.055-0.014-0.086-0.021c-0.047-0.008-0.098-0.016-0.148-0.021c-0.023-0.004-0.051-0.008-0.074-0.012
		c-0.078-0.006-0.152-0.012-0.234-0.012c-0.072,0-0.154,0.006-0.232,0.012c-0.025,0.004-0.051,0.008-0.078,0.012
		c-0.045,0.006-0.1,0.014-0.148,0.021c-0.027,0.008-0.057,0.016-0.09,0.023c-0.041,0.012-0.086,0.021-0.131,0.033
		c-0.029,0.01-0.059,0.021-0.09,0.033c-0.043,0.014-0.082,0.027-0.123,0.043c-0.037,0.012-0.062,0.027-0.09,0.039
		C9.695,23.562,9.66,23.58,9.621,23.6c-0.027,0.018-0.053,0.033-0.086,0.049C9.5,23.67,9.465,23.689,9.43,23.711
		c-0.027,0.018-0.055,0.037-0.082,0.055c-0.031,0.023-0.066,0.047-0.098,0.072c-0.023,0.021-0.051,0.041-0.074,0.064
		c-0.031,0.025-0.059,0.051-0.09,0.08c-0.023,0.023-0.047,0.045-0.07,0.068c-0.027,0.031-0.055,0.059-0.082,0.09
		c-0.023,0.025-0.043,0.049-0.062,0.074c-0.027,0.033-0.049,0.062-0.078,0.098c-0.016,0.027-0.035,0.051-0.053,0.078
		c-0.021,0.035-0.041,0.07-0.062,0.105c-0.016,0.031-0.031,0.055-0.045,0.088c-0.02,0.037-0.041,0.072-0.055,0.107
		c-0.012,0.031-0.027,0.061-0.039,0.094c-0.02,0.035-0.035,0.074-0.047,0.113c-0.012,0.031-0.023,0.062-0.035,0.094
		c-0.016,0.039-0.025,0.082-0.037,0.125c-0.008,0.033-0.016,0.061-0.023,0.094c-0.006,0.043-0.014,0.09-0.021,0.133
		c-0.004,0.031-0.012,0.061-0.012,0.094v0.004c-0.016,0.008-0.027,0.016-0.041,0.02c-0.041,0.018-0.082,0.037-0.123,0.055
		c-0.059,0.027-0.117,0.053-0.176,0.084c-0.039,0.025-0.078,0.049-0.117,0.074c-0.051,0.037-0.102,0.072-0.152,0.111
		c-0.035,0.031-0.07,0.059-0.102,0.094c-0.047,0.041-0.09,0.086-0.133,0.131c-0.031,0.033-0.059,0.066-0.09,0.107
		c-0.039,0.047-0.074,0.102-0.109,0.152c-0.02,0.041-0.047,0.076-0.066,0.117c-0.031,0.059-0.059,0.117-0.082,0.178
		c-0.02,0.041-0.035,0.076-0.051,0.119c-0.023,0.068-0.041,0.139-0.057,0.211C7.055,26.93,7.043,26.961,7.035,27
		c-0.039,0.211-0.039,0.428-0.004,0.637v0.014c-0.049,0.035-0.098,0.072-0.145,0.117c-0.008,0.004-0.012,0.01-0.016,0.014
		c-0.049,0.045-0.098,0.094-0.145,0.146c-0.016,0.018-0.027,0.041-0.041,0.057c-0.027,0.037-0.059,0.076-0.082,0.115
		c-0.016,0.025-0.031,0.047-0.043,0.07C6.537,28.207,6.52,28.248,6.5,28.289c-0.016,0.025-0.025,0.049-0.037,0.078
		c-0.02,0.039-0.035,0.082-0.045,0.123c-0.008,0.025-0.016,0.049-0.025,0.078c-0.012,0.045-0.023,0.094-0.031,0.143
		c-0.004,0.023-0.008,0.045-0.012,0.07c-0.023,0.152-0.023,0.312,0.004,0.469c0.004,0.023,0.012,0.047,0.016,0.07
		c0.012,0.062,0.029,0.125,0.047,0.188c0.008,0.014,0.008,0.031,0.012,0.043c-0.004,0.008-0.012,0.016-0.016,0.023
		c-0.062,0.066-0.119,0.141-0.164,0.215c-0.004,0.004-0.004,0.008-0.008,0.012c-0.043,0.074-0.082,0.152-0.119,0.234
		c-0.008,0.016-0.012,0.031-0.02,0.045c-0.031,0.082-0.055,0.166-0.074,0.254c0,0.016-0.004,0.033-0.008,0.049
		c-0.016,0.094-0.023,0.188-0.023,0.281C6,31.584,6.754,32.328,7.684,32.33h2.363v3H4.648v-9c0-0.182-0.152-0.33-0.338-0.33h-4.726
		c-0.184,0-0.332,0.148-0.332,0.332v9h-1.352V23.691l8.095-4.965L14.094,23.691z"/>
	<path fill="#AFCB49" d="M5.996,24.332c1.121,0,2.023-0.895,2.023-2c0-1.104-0.902-2-2.023-2c-1.119,0-2.025,0.896-2.025,2
		S4.877,24.332,5.996,24.332z M4.699,22.666H5.66v0.951C5.191,23.498,4.82,23.133,4.699,22.666z M6.332,23.617v-0.951h0.969
		C7.176,23.133,6.807,23.498,6.332,23.617z M7.301,22H6.332v-0.953C6.807,21.168,7.176,21.535,7.301,22z M5.66,21.047V22H4.699
		C4.82,21.535,5.191,21.168,5.66,21.047z"/>
</g>
</svg>
