<?xml version="1.0" encoding="utf-8"?>
<!-- Generator: Adobe Illustrator 16.0.0, SVG Export Plug-In . SVG Version: 6.00 Build 0)  -->
<!DOCTYPE svg PUBLIC "-//W3C//DTD SVG 1.1//EN" "http://www.w3.org/Graphics/SVG/1.1/DTD/svg11.dtd">
<svg version="1.1" id="Capa_1" xmlns="http://www.w3.org/2000/svg" xmlns:xlink="http://www.w3.org/1999/xlink" x="0px" y="0px"
	 width="24px" height="48px" viewBox="-6 -12 24 48" enable-background="new -6 -12 24 48" xml:space="preserve">
<g>
	<g>
		<path fill="#424143" d="M16.096-2.751c0.014-0.032,0.018-0.062,0.021-0.098c0-0.036-0.004-0.07-0.018-0.103l-0.025-0.074
			c-0.277-2.636-1.602-5.054-3.684-6.726c-0.148-0.118-0.303-0.226-0.459-0.336c-0.006-0.008-0.012-0.016-0.02-0.024
			c-0.008-0.004-0.014-0.004-0.021-0.008c-1.723-1.22-3.789-1.876-5.9-1.88c-0.088,0-0.179,0-0.24,0.006
			c-1.128,0.022-2.246,0.234-3.3,0.628c-0.918-0.708-2.164-0.836-3.204-0.33C-1.796-11.19-2.46-10.143-2.46-8.993
			c0.02,0.382,0.11,0.758,0.266,1.108C-2.538-7.421-2.842-6.927-3.1-6.407c-0.009,0.006-0.009,0.017-0.017,0.024
			C-5.51-1.487-3.518,4.408,1.376,6.891c4.896,2.488,10.905,0.66,13.54-4.113c0.721-1.314,1.131-2.775,1.201-4.267
			c0.012-0.16,0.012-0.326,0.012-0.49C16.129-2.239,16.117-2.495,16.096-2.751z M15.117-4.463c-0.043-0.038-0.086-0.082-0.127-0.116
			c-0.443-0.332-0.943-0.578-1.477-0.729c-0.486-0.12-0.994-0.124-1.479-0.017c-0.418,0.094-0.852,0.099-1.268,0.008
			C9.961-5.491,9.32-5.629,8.98-6.163c-0.482-0.77-0.258-1.85,0.254-2.228c0.172-0.116,0.375-0.16,0.582-0.124
			c0.355,0.029,0.715-0.032,1.043-0.174c0.352-0.162,0.664-0.395,0.914-0.688c0.062,0.048,0.131,0.094,0.195,0.144
			C13.492-8.005,14.592-6.337,15.117-4.463z M0.584-11.331c1.302,0.002,2.362,1.048,2.366,2.338c0,1-1.521,3.286-2.366,4.446
			C-0.22-5.621-0.918-6.765-1.502-7.969c-0.158-0.32-0.254-0.668-0.282-1.024C-1.78-10.285-0.724-11.329,0.584-11.331z
			 M-3.472-1.979c0-0.623,0.063-1.243,0.191-1.854c0.036,0.464,0.095,0.878,0.152,1.236c0.208,1.37,0.404,2.658,1.426,3.842
			c0.426,0.496,1.141,1.328,2.25,1.45C1.654,2.82,3.036,2.192,3.436,1.994L3.59,1.917C3.8,1.786,4.048,1.709,4.298,1.696
			c0.426,0.04,0.824,0.237,1.108,0.558c0.576,0.628,0.72,1.684,0.31,2.254c-0.13,0.168-0.31,0.292-0.52,0.356
			C4.844,4.982,4.544,5.219,4.348,5.532C4.062,6.043,4.008,6.65,4.204,7.204C-0.25,6.349-3.464,2.501-3.472-1.979z M5.992,7.374
			c-0.328,0-0.654-0.019-0.979-0.048C4.986,7.29,4.962,7.251,4.934,7.213c-0.226-0.416-0.229-0.92-0.006-1.34
			c0.124-0.19,0.312-0.33,0.534-0.392c0.32-0.11,0.603-0.316,0.804-0.586C6.854,4.08,6.688,2.664,5.904,1.807
			C5.498,1.349,4.922,1.068,4.302,1.028H4.29C3.932,1.04,3.584,1.141,3.282,1.324l-0.145,0.07C2.4,1.753,1.346,2.11,0.622,2.028
			C-0.22,1.935-0.8,1.255-1.186,0.807c-0.896-1.037-1.072-2.18-1.278-3.506c-0.214-1.134-0.222-2.298-0.024-3.436
			c0.181-0.364,0.382-0.71,0.614-1.048C-1.862-7.161-1.85-7.139-1.84-7.115c0.023,0.042,0.044,0.082,0.067,0.124
			c0.036,0.062,0.066,0.126,0.103,0.192c0.02,0.042,0.042,0.084,0.07,0.128c0.035,0.062,0.069,0.124,0.107,0.189
			c0.024,0.043,0.046,0.084,0.072,0.127c0.038,0.062,0.076,0.123,0.114,0.189c0.025,0.042,0.052,0.08,0.075,0.124
			c0.042,0.066,0.08,0.128,0.122,0.194c0.024,0.038,0.044,0.074,0.066,0.109c0.048,0.08,0.102,0.156,0.148,0.232
			c0.016,0.021,0.027,0.042,0.042,0.062C-0.79-5.349-0.728-5.255-0.67-5.165c0.023,0.034,0.046,0.066,0.07,0.102
			c0.038,0.055,0.073,0.11,0.109,0.16l0.082,0.118c0.026,0.042,0.059,0.086,0.084,0.124l0.082,0.116
			c0.028,0.038,0.046,0.072,0.072,0.106c0.026,0.033,0.052,0.071,0.078,0.105c0.023,0.036,0.042,0.058,0.06,0.086l0.066,0.092
			l0.054,0.074L0.14-4.009l0.044,0.06l0.042,0.054l0.028,0.034c0.028,0.04,0.046,0.07,0.054,0.078
			C0.37-3.697,0.472-3.649,0.582-3.649c0.106,0,0.208-0.048,0.27-0.134c0.286-0.372,2.774-3.668,2.774-5.21
			c0-0.098-0.008-0.195-0.018-0.292c-0.002-0.03-0.007-0.06-0.011-0.088C3.588-9.438,3.58-9.507,3.564-9.575
			C3.556-9.609,3.552-9.639,3.544-9.671C3.526-9.739,3.508-9.805,3.49-9.873c-0.013-0.028-0.017-0.054-0.028-0.08
			c-0.03-0.09-0.062-0.18-0.104-0.266c-0.009-0.017-0.019-0.032-0.024-0.046c-0.032-0.068-0.066-0.137-0.102-0.204
			c-0.021-0.03-0.04-0.059-0.055-0.088c-0.031-0.053-0.067-0.104-0.102-0.154c-0.024-0.032-0.044-0.06-0.066-0.09
			C3-10.815,2.99-10.833,2.978-10.843c0.702-0.234,1.433-0.384,2.173-0.446c-0.528,0.98-0.7,1.89-0.504,2.704
			c0.147,0.546,0.426,1.046,0.812,1.46c0.316,0.39,0.544,0.672,0.534,1.128c-0.03,0.968-1.136,1.776-1.557,2.078
			c-0.548,0.39-1.163,0.686-1.813,0.868c-0.616,0.2-1.145,0.37-1.348,0.966c-0.2,0.79,0.128,1.616,0.819,2.06
			c0.412,0.219,0.9,0.263,1.347,0.118C3.928-0.021,4.434-0.043,4.93,0.021c0.643,0.093,1.2,0.168,1.46,0.533
			c0.158,0.216,0.15,0.442,0.118,0.854C6.438,1.99,6.5,2.58,6.682,3.137C6.836,3.595,7.07,4.284,7.629,4.364
			C7.666,4.37,7.703,4.372,7.74,4.372c0.396,0,0.639-0.344,0.893-0.708c0.113-0.16,0.234-0.336,0.383-0.508
			c0.699,1.109,1.402,2.038,1.438,2.08c0.059,0.084,0.164,0.134,0.27,0.134c0.109,0,0.207-0.05,0.271-0.134
			c0.732-0.971,1.4-1.986,2-3.042c0.416,0.118,0.811,0.294,1.174,0.529C12.473,5.601,9.359,7.375,5.992,7.374z M12.301-1.715
			c0.5,0.442,0.789,1.074,0.789,1.74c0,0.239-0.1,0.716-0.566,1.621c-0.539,0.979-1.137,1.926-1.797,2.823
			c-0.318-0.438-0.867-1.214-1.355-2.032c-0.275-0.447-0.52-0.911-0.734-1.39c-0.154-0.319-0.25-0.667-0.277-1.022
			c0-1.292,1.059-2.339,2.367-2.339c0.07,0,0.145,0.005,0.215,0.011C11.445-2.259,11.92-2.051,12.301-1.715z M15.441-1.525
			c-0.059,1.271-0.377,2.517-0.953,3.657c-0.371-0.231-0.766-0.416-1.184-0.546c0.258-0.482,0.418-1.016,0.457-1.56
			c-0.002-1.146-0.662-2.194-1.703-2.7l-0.023-0.01c-0.074-0.036-0.152-0.07-0.227-0.101c-0.055-0.021-0.113-0.038-0.168-0.054
			c-0.035-0.01-0.062-0.022-0.098-0.034c-0.086-0.024-0.172-0.042-0.266-0.06h-0.004c-0.051-0.011-0.109-0.017-0.16-0.022
			c-0.873-0.122-1.75,0.14-2.41,0.71c-0.656,0.574-1.035,1.4-1.027,2.269c0.027,0.445,0.141,0.88,0.336,1.284
			C8.199,1.734,8.414,2.15,8.648,2.551C8.441,2.78,8.246,3.024,8.072,3.282c-0.096,0.155-0.209,0.298-0.35,0.42
			C7.656,3.689,7.531,3.549,7.316,2.923C7.164,2.45,7.109,1.948,7.176,1.452c0.088-0.444,0.002-0.904-0.24-1.291
			c-0.432-0.596-1.186-0.7-1.918-0.804C4.45-0.717,3.868-0.693,3.31-0.565C2.876-0.483,2.678-0.453,2.446-0.595
			c-0.42-0.286-0.628-0.788-0.532-1.282C2-2.146,2.272-2.241,2.826-2.419c0.718-0.206,1.397-0.53,2.008-0.962
			c0.49-0.358,1.79-1.304,1.83-2.599c0.02-0.707-0.338-1.142-0.682-1.563C5.66-7.883,5.428-8.291,5.302-8.737
			c-0.18-0.746,0.042-1.617,0.645-2.596h0.042c1.859,0.002,3.676,0.544,5.227,1.562c-0.18,0.197-0.395,0.357-0.637,0.47
			c-0.234,0.102-0.492,0.14-0.748,0.116C9.473-9.227,9.117-9.137,8.826-8.929C8.059-8.359,7.715-6.905,8.404-5.812
			c0.49,0.774,1.326,0.955,2.24,1.15c0.492,0.104,1,0.1,1.492-0.006c0.395-0.094,0.809-0.092,1.203,0.004
			c0.445,0.124,0.859,0.332,1.227,0.606c0.379,0.312,0.672,0.722,0.838,1.184c0.029,0.296,0.045,0.592,0.045,0.892
			C15.457-1.829,15.449-1.679,15.441-1.525L15.441-1.525z"/>
		<path fill="#424143" d="M0.584-7.991c0.744,0,1.35-0.598,1.35-1.336s-0.604-1.336-1.35-1.336c-0.748,0-1.354,0.598-1.354,1.336
			S-0.164-7.991,0.584-7.991z M0.584-9.995c0.374,0,0.674,0.298,0.674,0.668s-0.3,0.668-0.674,0.668
			c-0.376,0-0.678-0.298-0.678-0.668S0.212-9.995,0.584-9.995z"/>
		<path fill="#424143" d="M9.371-0.309c0,0.737,0.605,1.336,1.352,1.336s1.355-0.599,1.355-1.336c0-0.738-0.609-1.337-1.355-1.337
			C9.973-1.646,9.371-1.047,9.371-0.309z M11.398-0.309c0,0.368-0.303,0.668-0.676,0.668c-0.377,0-0.68-0.3-0.68-0.668
			c0-0.37,0.301-0.668,0.68-0.668C11.096-0.977,11.398-0.679,11.398-0.309z"/>
	</g>
	<g>
		<path fill="#AFCB49" d="M16.096,25.248c0.014-0.033,0.018-0.062,0.021-0.098c0-0.037-0.004-0.07-0.018-0.104l-0.025-0.074
			c-0.277-2.635-1.602-5.053-3.684-6.725c-0.148-0.119-0.303-0.227-0.459-0.336c-0.006-0.008-0.012-0.016-0.02-0.025
			c-0.008-0.004-0.014-0.004-0.021-0.008C10.168,16.66,8.104,16.004,5.992,16c-0.088,0-0.178,0-0.24,0.006
			c-1.128,0.021-2.246,0.234-3.3,0.627c-0.918-0.709-2.164-0.836-3.206-0.328c-1.042,0.504-1.706,1.549-1.706,2.701
			c0.02,0.381,0.11,0.758,0.266,1.107c-0.344,0.465-0.647,0.959-0.905,1.479c-0.009,0.006-0.009,0.018-0.017,0.025
			c-2.394,4.895-0.401,10.791,4.492,13.273c4.896,2.488,10.905,0.66,13.54-4.113c0.721-1.316,1.131-2.775,1.201-4.268
			c0.012-0.16,0.012-0.326,0.012-0.49C16.129,25.76,16.117,25.504,16.096,25.248z M15.117,23.535
			c-0.043-0.037-0.086-0.082-0.127-0.115c-0.443-0.332-0.943-0.578-1.477-0.729c-0.486-0.121-0.994-0.123-1.479-0.018
			c-0.414,0.094-0.85,0.098-1.266,0.008c-0.809-0.174-1.449-0.311-1.789-0.846c-0.482-0.77-0.258-1.85,0.254-2.227
			c0.172-0.117,0.375-0.16,0.582-0.123c0.355,0.029,0.715-0.033,1.043-0.176c0.352-0.16,0.66-0.393,0.914-0.689
			c0.061,0.049,0.129,0.094,0.195,0.145C13.492,19.994,14.592,21.662,15.117,23.535z M0.584,16.668
			c1.302,0.002,2.362,1.047,2.366,2.338c0,1-1.521,3.287-2.366,4.447c-0.804-1.074-1.504-2.217-2.088-3.422
			c-0.158-0.32-0.254-0.668-0.282-1.025C-1.78,17.715-0.724,16.67,0.584,16.668z M-3.472,26.02c0-0.623,0.063-1.242,0.191-1.854
			c0.036,0.463,0.095,0.877,0.152,1.236c0.208,1.369,0.404,2.656,1.426,3.842c0.426,0.496,1.141,1.328,2.25,1.451
			c1.106,0.125,2.488-0.504,2.888-0.703l0.154-0.076c0.21-0.131,0.458-0.209,0.708-0.221c0.426,0.041,0.824,0.236,1.108,0.557
			c0.576,0.627,0.72,1.684,0.31,2.254c-0.128,0.168-0.31,0.291-0.52,0.357c-0.353,0.119-0.652,0.355-0.849,0.668
			c-0.286,0.512-0.34,1.119-0.144,1.672C-0.25,34.348-3.464,30.5-3.472,26.02z M5.992,35.371c-0.328,0-0.654-0.018-0.979-0.045
			c-0.027-0.037-0.05-0.074-0.078-0.115c-0.226-0.414-0.229-0.918-0.006-1.34c0.124-0.189,0.311-0.328,0.534-0.389
			c0.32-0.111,0.603-0.316,0.804-0.586c0.589-0.816,0.423-2.232-0.363-3.092c-0.406-0.457-0.982-0.736-1.603-0.777H4.29
			c-0.358,0.012-0.706,0.113-1.008,0.295l-0.145,0.068c-0.737,0.361-1.792,0.719-2.516,0.637c-0.842-0.094-1.422-0.773-1.808-1.223
			c-0.896-1.037-1.072-2.18-1.278-3.504c-0.214-1.135-0.222-2.299-0.024-3.438c0.181-0.365,0.382-0.709,0.614-1.047
			c0.012,0.021,0.024,0.043,0.034,0.066c0.023,0.041,0.044,0.082,0.067,0.123c0.036,0.062,0.066,0.123,0.103,0.193
			c0.021,0.041,0.042,0.086,0.07,0.127c0.038,0.061,0.069,0.123,0.109,0.189c0.024,0.043,0.046,0.084,0.072,0.125
			c0.038,0.062,0.076,0.125,0.114,0.191c0.025,0.043,0.05,0.08,0.076,0.125c0.042,0.064,0.079,0.127,0.121,0.195
			c0.024,0.039,0.045,0.074,0.066,0.109c0.048,0.08,0.102,0.156,0.148,0.232c0.016,0.021,0.027,0.041,0.042,0.061
			c0.062,0.096,0.124,0.189,0.182,0.279c0.024,0.033,0.044,0.066,0.068,0.102c0.038,0.055,0.073,0.111,0.109,0.16l0.082,0.119
			c0.028,0.043,0.059,0.086,0.086,0.125l0.082,0.117c0.028,0.039,0.046,0.074,0.072,0.105c0.026,0.035,0.052,0.074,0.078,0.107
			c0.023,0.037,0.042,0.057,0.06,0.086l0.066,0.092l0.054,0.076l0.05,0.072l0.046,0.059l0.042,0.055l0.026,0.035
			c0.03,0.039,0.048,0.07,0.056,0.078c0.062,0.086,0.164,0.131,0.272,0.131c0.106,0,0.206-0.045,0.27-0.131
			c0.288-0.375,2.772-3.668,2.772-5.211c0-0.098-0.004-0.195-0.016-0.293c-0.002-0.029-0.007-0.057-0.011-0.086
			c-0.01-0.064-0.02-0.133-0.033-0.203c-0.009-0.035-0.017-0.062-0.024-0.096c-0.016-0.068-0.034-0.135-0.052-0.201
			c-0.011-0.031-0.019-0.055-0.026-0.082c-0.032-0.09-0.065-0.18-0.105-0.266c-0.009-0.018-0.019-0.033-0.024-0.045
			c-0.036-0.07-0.068-0.139-0.106-0.209c-0.02-0.029-0.04-0.059-0.054-0.086C3.14,17.391,3.106,17.34,3.07,17.289
			c-0.024-0.031-0.042-0.057-0.064-0.09c-0.012-0.014-0.021-0.031-0.034-0.041c0.704-0.234,1.433-0.385,2.172-0.447
			C4.616,17.689,4.444,18.6,4.64,19.416c0.148,0.545,0.427,1.045,0.812,1.459c0.322,0.387,0.55,0.668,0.54,1.125
			c-0.03,0.969-1.134,1.777-1.554,2.078c-0.549,0.391-1.164,0.686-1.814,0.867c-0.616,0.203-1.144,0.373-1.348,0.967
			c-0.2,0.791,0.128,1.615,0.819,2.061c0.412,0.217,0.898,0.262,1.347,0.117c0.487-0.113,0.993-0.137,1.489-0.072
			c0.643,0.092,1.2,0.168,1.46,0.533c0.156,0.215,0.148,0.443,0.118,0.855c-0.069,0.582-0.01,1.172,0.174,1.727
			c0.154,0.459,0.389,1.148,0.945,1.227c0.039,0.008,0.074,0.008,0.113,0.008c0.395,0,0.637-0.344,0.891-0.707
			c0.115-0.16,0.234-0.336,0.385-0.508c0.697,1.109,1.402,2.039,1.436,2.08c0.061,0.084,0.164,0.135,0.27,0.135
			c0.111,0,0.209-0.051,0.273-0.135c0.73-0.971,1.4-1.986,2-3.043c0.416,0.119,0.809,0.293,1.174,0.529
			C12.473,33.6,9.359,35.375,5.992,35.371z M12.301,26.285c0.5,0.443,0.789,1.074,0.789,1.738c0,0.24-0.1,0.717-0.566,1.623
			c-0.539,0.979-1.137,1.926-1.797,2.822c-0.316-0.438-0.867-1.213-1.355-2.033c-0.275-0.447-0.52-0.912-0.734-1.389
			c-0.154-0.318-0.25-0.668-0.277-1.023c0-1.291,1.059-2.338,2.367-2.338c0.07,0,0.145,0.006,0.215,0.01
			C11.445,25.74,11.92,25.949,12.301,26.285z M15.441,26.473c-0.059,1.271-0.377,2.518-0.953,3.656
			c-0.371-0.23-0.766-0.414-1.184-0.545c0.258-0.482,0.418-1.016,0.457-1.561c-0.002-1.145-0.662-2.193-1.703-2.699l-0.023-0.01
			c-0.074-0.037-0.152-0.07-0.227-0.1c-0.055-0.025-0.113-0.041-0.168-0.055c-0.037-0.01-0.062-0.023-0.098-0.035
			c-0.086-0.025-0.172-0.043-0.266-0.059h-0.004c-0.051-0.012-0.109-0.016-0.16-0.023c-0.873-0.123-1.75,0.139-2.41,0.709
			c-0.656,0.574-1.035,1.4-1.027,2.268c0.027,0.449,0.141,0.881,0.336,1.285c0.188,0.428,0.402,0.844,0.637,1.246
			c-0.207,0.227-0.402,0.469-0.576,0.73c-0.096,0.152-0.209,0.295-0.35,0.418c-0.066-0.014-0.191-0.152-0.406-0.779
			c-0.152-0.471-0.207-0.975-0.141-1.471c0.088-0.445,0.002-0.902-0.24-1.291c-0.432-0.596-1.186-0.701-1.918-0.805
			c-0.567-0.072-1.149-0.049-1.708,0.078c-0.434,0.082-0.63,0.115-0.863-0.029c-0.42-0.289-0.628-0.789-0.534-1.285
			C2,25.854,2.272,25.758,2.826,25.58c0.718-0.205,1.397-0.529,2.008-0.963c0.49-0.357,1.79-1.301,1.83-2.598
			c0.021-0.707-0.338-1.141-0.682-1.562c-0.322-0.34-0.555-0.75-0.681-1.195c-0.18-0.746,0.042-1.617,0.645-2.596h0.042
			c1.859,0.002,3.676,0.545,5.227,1.561c-0.18,0.199-0.393,0.359-0.635,0.473c-0.234,0.102-0.492,0.137-0.748,0.115
			c-0.359-0.043-0.711,0.049-1.004,0.256c-0.77,0.57-1.113,2.023-0.422,3.117c0.49,0.773,1.326,0.953,2.24,1.15
			c0.49,0.104,1,0.1,1.49-0.006c0.395-0.094,0.809-0.092,1.205,0.004c0.447,0.125,0.861,0.332,1.227,0.605
			c0.377,0.312,0.672,0.723,0.838,1.184c0.029,0.297,0.043,0.594,0.043,0.893C15.457,26.17,15.449,26.32,15.441,26.473
			L15.441,26.473z"/>
		<path fill="#AFCB49" d="M0.584,20.008c0.744,0,1.35-0.598,1.35-1.336s-0.605-1.336-1.35-1.336c-0.748,0-1.354,0.598-1.354,1.336
			S-0.164,20.008,0.584,20.008z M0.584,18.004c0.374,0,0.674,0.297,0.674,0.668s-0.3,0.668-0.674,0.668
			c-0.376,0-0.678-0.297-0.678-0.668S0.212,18.004,0.584,18.004z"/>
		<path fill="#AFCB49" d="M9.371,27.691c0,0.736,0.605,1.336,1.352,1.336s1.355-0.6,1.355-1.336c0-0.738-0.609-1.338-1.355-1.338
			C9.973,26.354,9.371,26.953,9.371,27.691z M11.398,27.691c0,0.369-0.303,0.668-0.676,0.668c-0.377,0-0.68-0.299-0.68-0.668
			c0-0.371,0.301-0.67,0.68-0.67C11.096,27.021,11.398,27.32,11.398,27.691z"/>
	</g>
</g>
</svg>
