<?xml version="1.0" encoding="utf-8"?>
<!-- Generator: Adobe Illustrator 16.0.0, SVG Export Plug-In . SVG Version: 6.00 Build 0)  -->
<!DOCTYPE svg PUBLIC "-//W3C//DTD SVG 1.1//EN" "http://www.w3.org/Graphics/SVG/1.1/DTD/svg11.dtd">
<svg version="1.1" id="Capa_1" xmlns="http://www.w3.org/2000/svg" xmlns:xlink="http://www.w3.org/1999/xlink" x="0px" y="0px"
	 width="24px" height="48px" viewBox="-6 -12 24 48" enable-background="new -6 -12 24 48" xml:space="preserve">
<g>
	<g>
		<path fill="#424143" d="M15.984-4.6l-1.891-1.418v-3.98c0-0.188-0.148-0.336-0.338-0.336h-5.42l-2.131-1.602
			c-0.125-0.086-0.291-0.086-0.41,0l-2.131,1.602h-5.423c-0.187,0-0.338,0.148-0.338,0.336v3.98L-3.987-4.6
			c-0.084,0.062-0.134,0.16-0.134,0.266V6.334c0,0.918,0.754,1.664,1.688,1.664h16.866c0.93,0,1.688-0.746,1.688-1.664V-4.334
			C16.121-4.439,16.07-4.538,15.984-4.6z M15.219-4.334l-1.125,0.848v-1.691L15.219-4.334z M5.998-11.248l1.221,0.914H4.779
			L5.998-11.248z M13.418-9.666v6.684l-0.674,0.509v-4.192c0-0.184-0.148-0.336-0.338-0.336c-0.93,0-1.688-0.746-1.688-1.664
			c0-0.184-0.148-0.332-0.336-0.332H1.615c-0.19,0-0.338,0.148-0.338,0.332C1.275-7.748,0.521-7.002-0.411-7.002
			c-0.189,0-0.338,0.152-0.338,0.336v4.192l-0.674-0.509v-6.684H13.418z M-0.073-6.362c1.034-0.147,1.847-0.95,1.995-1.972h8.15
			c0.15,1.023,0.963,1.824,1.996,1.972v4.391L6.615,2.124c-0.367,0.271-0.867,0.271-1.227,0l-5.46-4.094L-0.073-6.362L-0.073-6.362z
			 M-2.101-3.486l-1.126-0.848l1.126-0.844V-3.486z M14.432,7.334H-2.438c-0.556,0-1.012-0.45-1.012-1v-9.996l8.43,6.316
			c0.602,0.449,1.434,0.449,2.037,0l8.428-6.316v9.996C15.445,6.884,14.988,7.334,14.432,7.334z"/>
		<path fill="#424143" d="M10.047-2.998c0-2.21-1.811-4.004-4.047-4.004S1.955-5.21,1.955-2.998c0,2.208,1.809,4,4.045,4
			C8.23,0.998,10.043-0.792,10.047-2.998z M2.625-2.998c0-1.844,1.512-3.336,3.375-3.336s3.371,1.492,3.371,3.336
			c0,1.84-1.508,3.332-3.373,3.332C4.133,0.33,2.629-1.158,2.625-2.998z"/>
		<path fill="#424143" d="M6.338-0.334v-0.378c0.717-0.185,1.15-0.91,0.967-1.622c-0.156-0.59-0.691-1-1.307-1
			c-0.373,0-0.672-0.296-0.672-0.664c0-0.372,0.299-0.668,0.672-0.668c0.375,0,0.676,0.296,0.676,0.668
			c0,0.184,0.15,0.332,0.336,0.332c0.189,0,0.338-0.148,0.338-0.332c-0.002-0.61-0.418-1.136-1.01-1.29v-0.378
			c0-0.184-0.152-0.332-0.34-0.332c-0.186,0-0.336,0.148-0.336,0.332v0.378c-0.719,0.185-1.154,0.91-0.965,1.622
			c0.148,0.59,0.688,1,1.301,1c0.375,0,0.676,0.296,0.676,0.668c0,0.368-0.301,0.664-0.676,0.664c-0.373,0-0.672-0.296-0.672-0.664
			c0-0.188-0.154-0.336-0.338-0.336c-0.188,0-0.338,0.152-0.338,0.336c0,0.606,0.416,1.132,1.012,1.286v0.378
			c0,0.184,0.15,0.336,0.336,0.336C6.186,0.002,6.338-0.15,6.338-0.334z"/>
	</g>
	<g>
		<path fill="#AFCB49" d="M15.984,23.402l-1.891-1.418v-3.982c0-0.186-0.148-0.336-0.338-0.336h-5.42l-2.131-1.6
			c-0.125-0.088-0.291-0.088-0.41,0l-2.129,1.6h-5.425c-0.187,0-0.338,0.15-0.338,0.336v3.982l-1.889,1.418
			c-0.084,0.062-0.134,0.16-0.134,0.266v10.668C-4.121,35.254-3.367,36-2.438,36h16.869c0.932,0,1.689-0.746,1.689-1.664V23.668
			C16.121,23.562,16.07,23.465,15.984,23.402z M15.219,23.668l-1.125,0.848v-1.691L15.219,23.668z M5.998,16.752l1.221,0.914H4.779
			L5.998,16.752z M13.418,18.334v6.686l-0.674,0.508v-4.193c0-0.184-0.148-0.334-0.338-0.334c-0.93-0.002-1.688-0.746-1.688-1.666
			c0-0.184-0.148-0.332-0.336-0.332H1.615c-0.19,0-0.338,0.148-0.338,0.332C1.275,20.254,0.521,20.998-0.411,21
			c-0.189,0-0.338,0.15-0.338,0.334v4.193l-0.674-0.508v-6.686H13.418z M-0.073,21.641c1.036-0.148,1.847-0.955,1.995-1.975h8.15
			c0.15,1.025,0.963,1.826,1.996,1.975v4.391l-5.457,4.094c-0.365,0.27-0.865,0.27-1.223,0l-5.46-4.094v-4.391H-0.073z
			 M-2.101,24.516l-1.126-0.848l1.126-0.844V24.516z M14.432,35.336H-2.438c-0.556,0-1.012-0.449-1.012-1V24.34l8.43,6.316
			c0.602,0.449,1.434,0.449,2.037,0l8.428-6.316v9.996C15.445,34.887,14.988,35.336,14.432,35.336z"/>
		<path fill="#AFCB49" d="M10.047,25.004C10.047,22.793,8.236,21,6,21s-4.045,1.793-4.045,4.004c0,2.207,1.809,3.998,4.045,3.998
			C8.23,29,10.043,27.211,10.047,25.004z M2.625,25.004c0-1.844,1.512-3.338,3.375-3.338s3.371,1.494,3.371,3.338
			c0,1.84-1.508,3.332-3.373,3.332C4.133,28.332,2.629,26.844,2.625,25.004z"/>
		<path fill="#AFCB49" d="M6.338,27.668v-0.379c0.717-0.184,1.15-0.91,0.967-1.621c-0.156-0.59-0.691-1-1.307-1
			c-0.373,0-0.672-0.297-0.672-0.666s0.299-0.666,0.672-0.666c0.375,0,0.676,0.297,0.676,0.666c0,0.184,0.15,0.334,0.336,0.334
			c0.189,0,0.338-0.15,0.338-0.334c-0.002-0.607-0.418-1.135-1.01-1.287v-0.381c0-0.184-0.152-0.332-0.34-0.332
			c-0.186,0-0.336,0.148-0.336,0.332v0.381c-0.719,0.184-1.154,0.91-0.965,1.621c0.148,0.59,0.688,1,1.301,1
			c0.375,0,0.676,0.297,0.676,0.666s-0.301,0.666-0.676,0.666c-0.373,0-0.672-0.297-0.672-0.666c0-0.186-0.154-0.334-0.338-0.334
			c-0.188,0-0.338,0.15-0.338,0.334c0,0.607,0.416,1.135,1.012,1.287v0.379c0,0.184,0.15,0.334,0.336,0.334
			C6.186,28.002,6.338,27.852,6.338,27.668z"/>
	</g>
</g>
</svg>
