<?xml version="1.0" encoding="utf-8"?>
<!-- Generator: Adobe Illustrator 16.0.0, SVG Export Plug-In . SVG Version: 6.00 Build 0)  -->
<!DOCTYPE svg PUBLIC "-//W3C//DTD SVG 1.1//EN" "http://www.w3.org/Graphics/SVG/1.1/DTD/svg11.dtd">
<svg version="1.1" id="Capa_1" xmlns="http://www.w3.org/2000/svg" xmlns:xlink="http://www.w3.org/1999/xlink" x="0px" y="0px"
	 width="24px" height="48px" viewBox="-6 -12 24 48" enable-background="new -6 -12 24 48" xml:space="preserve">
<g>
	<path fill="#424143" d="M16.095-3.129c0.039-0.09,0.039-0.188,0-0.278c-0.02-0.044-0.043-0.086-0.082-0.12L11.599-7.89
		c-0.141-0.145-0.375-0.145-0.52,0c-0.145,0.14-0.145,0.372,0,0.512l3.789,3.745H9.13v-8C9.13-11.836,8.97-12,8.761-12H-3.75
		c-0.012,0-0.024,0.006-0.036,0.008c-0.021,0-0.04,0.006-0.054,0.01c-0.036,0.009-0.066,0.022-0.099,0.04
		c-0.008,0.007-0.02,0.007-0.031,0.013C-3.982-11.92-3.99-11.91-4-11.902c-0.006,0.011-0.012,0.015-0.02,0.021
		c-0.028,0.03-0.051,0.062-0.064,0.098c-0.004,0.008-0.006,0.019-0.008,0.026c-0.019,0.04-0.03,0.082-0.03,0.126V5.097
		c0,0.042,0.012,0.086,0.03,0.126c0.004,0.015,0.012,0.026,0.02,0.038c0.013,0.028,0.028,0.048,0.048,0.072
		c0.009,0.01,0.021,0.021,0.032,0.034C-3.972,5.383-3.95,5.401-3.92,5.413c0.014,0.008,0.026,0.016,0.042,0.02
		C-3.87,5.435-3.866,5.44-3.858,5.44l8.096,2.547c0.033,0.012,0.071,0.014,0.107,0.014c0.078,0,0.154-0.024,0.216-0.068
		c0.099-0.067,0.152-0.178,0.152-0.294v-2.18h4.044c0.209,0,0.373-0.162,0.373-0.362v-8.004h5.734l-3.789,3.745
		c-0.141,0.14-0.141,0.372,0,0.514c0.074,0.07,0.168,0.108,0.262,0.108s0.188-0.038,0.258-0.108l4.418-4.366
		C16.052-3.043,16.075-3.085,16.095-3.129z M3.977,7.141l-7.36-2.313v-15.961l7.36,2.312V7.141z M8.396,4.731H4.715V-9.088
		c0-0.158-0.105-0.298-0.258-0.348L-1.38-11.27h9.775V4.731L8.396,4.731z"/>
	<path fill="#424143" d="M3.379-0.7l-1.84-0.729C1.351-1.5,1.136-1.412,1.062-1.221C0.984-1.038,1.08-0.826,1.267-0.75l1.841,0.729
		c0.042,0.016,0.09,0.022,0.136,0.022c0.144,0,0.286-0.086,0.342-0.226C3.661-0.414,3.567-0.624,3.379-0.7z"/>
</g>
<g>
	<path fill="#AFCB49" d="M16.095,24.867c0.039-0.09,0.039-0.188,0-0.277c-0.02-0.043-0.043-0.086-0.082-0.121l-4.414-4.36
		c-0.141-0.145-0.375-0.145-0.52,0c-0.145,0.139-0.145,0.371,0,0.512l3.789,3.743H9.13v-8.001c0-0.201-0.16-0.365-0.369-0.365H-3.75
		c-0.012,0-0.024,0.004-0.036,0.008c-0.021,0-0.04,0.008-0.054,0.012c-0.036,0.01-0.066,0.021-0.099,0.041
		c-0.008,0.008-0.02,0.008-0.031,0.012c-0.013,0.008-0.021,0.02-0.032,0.027c-0.006,0.008-0.012,0.012-0.021,0.02
		c-0.027,0.033-0.048,0.062-0.063,0.098c-0.004,0.008-0.006,0.021-0.008,0.029c-0.019,0.041-0.03,0.082-0.03,0.123v16.728
		c0,0.043,0.012,0.086,0.03,0.125c0.004,0.016,0.012,0.027,0.02,0.039c0.015,0.027,0.03,0.051,0.048,0.074
		c0.009,0.008,0.021,0.02,0.032,0.031c0.022,0.02,0.042,0.037,0.072,0.047c0.014,0.008,0.025,0.016,0.042,0.02
		c0.008,0.004,0.012,0.008,0.02,0.008l8.096,2.547C4.271,35.996,4.309,36,4.345,36c0.078,0,0.154-0.023,0.216-0.066
		c0.099-0.07,0.152-0.18,0.152-0.297v-2.18h4.044c0.209,0,0.373-0.164,0.373-0.363v-8h5.734l-3.791,3.742
		c-0.141,0.141-0.141,0.371,0,0.516c0.074,0.07,0.168,0.105,0.262,0.105s0.189-0.035,0.258-0.105l4.418-4.367
		C16.052,24.953,16.075,24.914,16.095,24.867z M3.977,35.141l-7.36-2.312V16.862l7.36,2.312V35.141z M8.396,32.73H4.715V18.909
		c0-0.156-0.105-0.297-0.258-0.348l-5.837-1.832h9.775V32.73L8.396,32.73z"/>
	<path fill="#AFCB49" d="M3.379,27.301l-1.84-0.73c-0.188-0.07-0.403,0.02-0.478,0.207c-0.077,0.184,0.019,0.398,0.207,0.473
		l1.841,0.727C3.153,27.992,3.199,28,3.245,28c0.146,0,0.286-0.086,0.342-0.227C3.661,27.586,3.567,27.375,3.379,27.301z"/>
</g>
</svg>
