<?xml version="1.0" encoding="utf-8"?>
<!-- Generator: Adobe Illustrator 16.0.0, SVG Export Plug-In . SVG Version: 6.00 Build 0)  -->
<!DOCTYPE svg PUBLIC "-//W3C//DTD SVG 1.1//EN" "http://www.w3.org/Graphics/SVG/1.1/DTD/svg11.dtd">
<svg version="1.1" id="Capa_1" xmlns="http://www.w3.org/2000/svg" xmlns:xlink="http://www.w3.org/1999/xlink" x="0px" y="0px"
	 width="24px" height="48px" viewBox="-6 -12 24 48" enable-background="new -6 -12 24 48" xml:space="preserve">
<g>
	<g>
		<path fill="#424143" d="M5.998-4.997c-1.49,0-2.7,1.194-2.7,2.666s1.208,2.666,2.7,2.666s2.699-1.194,2.699-2.666
			C8.693-3.801,7.488-4.995,5.998-4.997z M5.998-0.331c-1.118,0-2.024-0.894-2.024-2c0-1.105,0.906-2,2.024-2
			c1.121,0,2.023,0.895,2.023,2C8.021-1.228,7.119-0.333,5.998-0.331z"/>
		<path fill="#424143" d="M16.119-1.997c0-4.728-3.352-8.81-8.031-9.786c-4.682-0.974-9.415,1.42-11.345,5.744
			S-3.795,3.359,0.089,6.119c3.529,2.51,8.284,2.51,11.813,0C14.541,4.241,16.115,1.217,16.119-1.997z M10.914,3.043
			c-0.008-0.012-0.02-0.021-0.029-0.032c-0.117-0.144-0.246-0.29-0.375-0.424L10.5,2.581c-0.131-0.132-0.279-0.256-0.42-0.376
			c-0.014-0.01-0.027-0.024-0.039-0.036c-0.146-0.112-0.293-0.212-0.443-0.31L9.537,1.817C9.381,1.723,9.23,1.637,9.074,1.562
			L8.996,1.521c-0.158-0.071-0.32-0.14-0.484-0.199L8.43,1.293c-0.17-0.056-0.338-0.11-0.51-0.15
			c-0.025-0.006-0.047-0.01-0.076-0.016c-0.178-0.04-0.357-0.07-0.541-0.094c-0.02-0.002-0.037-0.002-0.049-0.004
			c-0.197-0.022-0.386-0.03-0.584-0.03H5.318c-0.192,0-0.387,0.012-0.578,0.034c-0.021,0-0.036,0.002-0.052,0.004
			C4.508,1.059,4.326,1.089,4.15,1.131C4.122,1.133,4.098,1.139,4.074,1.143C3.9,1.185,3.732,1.237,3.564,1.293l-0.086,0.03
			c-0.164,0.056-0.322,0.124-0.48,0.197l-0.08,0.041C2.76,1.637,2.606,1.723,2.458,1.817L2.396,1.859
			c-0.15,0.096-0.299,0.199-0.442,0.31c-0.016,0.01-0.028,0.024-0.04,0.036c-0.146,0.118-0.288,0.242-0.42,0.376L1.486,2.585
			c-0.136,0.136-0.262,0.28-0.379,0.424C1.099,3.021,1.087,3.033,1.081,3.043c-2.082-1.981-2.732-5.012-1.652-7.66
			c1.082-2.644,3.68-4.378,6.569-4.378c2.887,0,5.488,1.732,6.566,4.378C13.645-1.969,12.994,1.062,10.914,3.043L10.914,3.043z
			 M0.655,5.697c0.01-0.072,0.021-0.145,0.038-0.218c0.014-0.076,0.029-0.156,0.044-0.232c0.025-0.11,0.062-0.212,0.096-0.32
			c0.024-0.072,0.042-0.142,0.068-0.212c0.042-0.116,0.094-0.226,0.144-0.336c0.028-0.056,0.048-0.118,0.078-0.17
			c0.805-1.558,2.429-2.538,4.199-2.536h1.352c1.77-0.002,3.391,0.977,4.199,2.536c0.025,0.052,0.047,0.114,0.078,0.17
			c0.049,0.11,0.105,0.22,0.146,0.336c0.025,0.07,0.041,0.14,0.066,0.212c0.037,0.106,0.066,0.21,0.092,0.318
			c0.02,0.076,0.039,0.156,0.047,0.231c0.014,0.074,0.027,0.146,0.037,0.219C8.123,7.881,3.872,7.881,0.655,5.697L0.655,5.697z
			 M11.955,5.245c0-0.01-0.004-0.019-0.008-0.028c-0.035-0.146-0.074-0.296-0.117-0.438c-0.01-0.032-0.023-0.061-0.031-0.091
			c-0.043-0.132-0.094-0.264-0.143-0.388c-0.008-0.02-0.018-0.04-0.029-0.056c-0.053-0.141-0.123-0.276-0.195-0.408
			c-0.016-0.03-0.033-0.058-0.051-0.09c-0.029-0.05-0.053-0.1-0.086-0.148c2.324-2.151,3.082-5.485,1.914-8.414
			c-1.168-2.928-4.031-4.85-7.213-4.85c-3.187,0-6.041,1.922-7.211,4.848c-1.174,2.931-0.412,6.265,1.91,8.414
			c-0.03,0.049-0.057,0.103-0.086,0.15c-0.019,0.032-0.032,0.06-0.049,0.09C0.487,3.969,0.423,4.104,0.361,4.245
			c-0.011,0.018-0.019,0.04-0.026,0.056c-0.048,0.124-0.1,0.256-0.142,0.386c-0.011,0.03-0.021,0.059-0.032,0.091
			c-0.042,0.142-0.08,0.294-0.116,0.438c0,0.01-0.004,0.019-0.008,0.028c-3.1-2.492-4.28-6.643-2.942-10.366s4.899-6.21,8.897-6.21
			c4,0,7.561,2.488,8.896,6.21C16.23-1.401,15.053,2.751,11.955,5.245z"/>
	</g>
	<g>
		<path fill="#AFCB49" d="M5.998,23.005c-1.49,0-2.7,1.195-2.7,2.666s1.208,2.666,2.7,2.666s2.699-1.195,2.699-2.666
			C8.693,24.2,7.488,23.007,5.998,23.005z M5.998,27.671c-1.118,0-2.024-0.893-2.024-2c0-1.105,0.906-2,2.024-2
			c1.121,0,2.023,0.895,2.023,2C8.021,26.774,7.119,27.669,5.998,27.671z"/>
		<path fill="#AFCB49" d="M16.119,26.005c0-4.727-3.352-8.809-8.031-9.789c-4.682-0.973-9.415,1.422-11.345,5.746
			s-0.538,9.395,3.348,12.156c3.529,2.508,8.286,2.508,11.813,0C14.541,32.241,16.115,29.216,16.119,26.005z M10.914,31.044
			c-0.008-0.012-0.02-0.021-0.029-0.033c-0.119-0.146-0.246-0.291-0.375-0.424l-0.01-0.006c-0.131-0.131-0.279-0.256-0.42-0.377
			c-0.014-0.012-0.027-0.023-0.043-0.035c-0.143-0.113-0.291-0.215-0.441-0.312l-0.062-0.041c-0.152-0.092-0.303-0.178-0.459-0.256
			l-0.078-0.041c-0.158-0.072-0.32-0.139-0.484-0.201L8.43,29.286c-0.17-0.053-0.338-0.107-0.51-0.148
			c-0.025-0.004-0.047-0.008-0.076-0.016c-0.178-0.039-0.357-0.07-0.541-0.094c-0.02,0-0.037,0-0.049-0.004
			c-0.197-0.021-0.386-0.031-0.584-0.031H5.318c-0.192,0-0.387,0.012-0.578,0.035c-0.021,0-0.036,0-0.052,0.004
			c-0.181,0.02-0.362,0.051-0.538,0.094C4.122,29.13,4.1,29.134,4.074,29.138c-0.174,0.043-0.342,0.096-0.51,0.148l-0.086,0.037
			c-0.164,0.057-0.322,0.123-0.48,0.199l-0.08,0.039c-0.158,0.076-0.312,0.162-0.46,0.256L2.396,29.86
			c-0.15,0.098-0.299,0.199-0.442,0.309c-0.016,0.012-0.028,0.027-0.042,0.039c-0.145,0.117-0.288,0.242-0.42,0.375l-0.008,0.006
			c-0.134,0.135-0.262,0.279-0.377,0.424c-0.009,0.012-0.021,0.023-0.028,0.031c-2.08-1.979-2.73-5.012-1.65-7.656
			c1.082-2.645,3.68-4.377,6.567-4.377c2.885,0,5.488,1.732,6.566,4.377C13.645,26.032,12.994,29.062,10.914,31.044L10.914,31.044z
			 M0.655,33.7c0.01-0.074,0.021-0.145,0.038-0.219c0.014-0.076,0.029-0.156,0.044-0.232c0.027-0.107,0.062-0.213,0.096-0.318
			c0.024-0.07,0.042-0.141,0.068-0.211c0.042-0.117,0.094-0.225,0.144-0.336c0.028-0.057,0.048-0.119,0.078-0.172
			c0.805-1.557,2.429-2.539,4.199-2.537h1.352c1.77-0.002,3.391,0.977,4.199,2.537c0.027,0.053,0.047,0.115,0.078,0.172
			c0.049,0.111,0.105,0.219,0.146,0.336c0.025,0.07,0.041,0.141,0.066,0.211c0.037,0.105,0.066,0.211,0.092,0.318
			c0.02,0.076,0.039,0.156,0.047,0.232c0.014,0.074,0.027,0.145,0.037,0.219C8.123,35.88,3.872,35.88,0.655,33.7L0.655,33.7z
			 M11.955,33.245c0-0.01-0.004-0.021-0.008-0.029c-0.035-0.145-0.07-0.293-0.117-0.438c-0.01-0.033-0.023-0.062-0.031-0.092
			c-0.043-0.131-0.094-0.262-0.143-0.385c-0.008-0.02-0.018-0.041-0.029-0.055c-0.053-0.141-0.123-0.277-0.195-0.408
			c-0.016-0.033-0.033-0.057-0.051-0.092c-0.029-0.047-0.053-0.1-0.086-0.148c2.324-2.148,3.082-5.484,1.914-8.414
			c-1.172-2.926-4.033-4.848-7.215-4.848c-3.187,0-6.041,1.922-7.211,4.848c-1.172,2.93-0.41,6.266,1.912,8.414
			c-0.032,0.049-0.057,0.102-0.086,0.148c-0.019,0.035-0.034,0.059-0.049,0.092c-0.073,0.131-0.138,0.268-0.199,0.408
			c-0.011,0.018-0.019,0.039-0.026,0.055c-0.048,0.125-0.1,0.254-0.142,0.385c-0.011,0.029-0.021,0.059-0.032,0.092
			c-0.042,0.141-0.082,0.293-0.118,0.438c0,0.008-0.004,0.02-0.008,0.029c-3.101-2.492-4.28-6.643-2.942-10.369
			c1.338-3.721,4.899-6.207,8.897-6.207c4,0,7.562,2.488,8.898,6.207C16.23,26.601,15.053,30.753,11.955,33.245z"/>
	</g>
</g>
</svg>
