<?xml version="1.0" encoding="utf-8"?>
<!-- Generator: Adobe Illustrator 16.0.0, SVG Export Plug-In . SVG Version: 6.00 Build 0)  -->
<!DOCTYPE svg PUBLIC "-//W3C//DTD SVG 1.1//EN" "http://www.w3.org/Graphics/SVG/1.1/DTD/svg11.dtd">
<svg version="1.1" id="Capa_1" xmlns="http://www.w3.org/2000/svg" xmlns:xlink="http://www.w3.org/1999/xlink" x="0px" y="0px"
	 width="320px" height="302.448px" viewBox="0 0 320 302.448" enable-background="new 0 0 320 302.448" xml:space="preserve">
<g opacity="0.2">
	<path fill="#AFCB49" d="M118.377,10.028c2.768,0,5.014-2.24,5.014-5.013S121.145,0,118.377,0c-2.775,0-5.014,2.241-5.014,5.015
		C113.362,7.788,115.601,10.028,118.377,10.028z"/>
	<path fill="#AFCB49" d="M138.042,10.028c2.773,0,5.013-2.24,5.013-5.013S140.814,0,138.042,0c-2.774,0-5.015,2.241-5.015,5.015
		S135.267,10.028,138.042,10.028z"/>
	<path fill="#AFCB49" d="M157.708,10.028c2.771,0,5.013-2.24,5.013-5.013S160.479,0,157.708,0c-2.775,0-5.017,2.241-5.017,5.015
		S154.933,10.028,157.708,10.028z"/>
	<path fill="#AFCB49" d="M177.376,5.121c0.054,0,0.108-0.04,0.108-0.106c0-0.054-0.055-0.107-0.108-0.107
		c-0.065,0-0.119,0.054-0.119,0.107C177.257,5.081,177.311,5.121,177.376,5.121z"/>
	<path fill="#AFCB49" d="M197.036,9.976c2.75,0,4.961-2.213,4.961-4.961c0-2.733-2.211-4.961-4.961-4.961
		c-2.734,0-4.963,2.228-4.963,4.961C192.073,7.762,194.304,9.976,197.036,9.976z"/>
	<path fill="#AFCB49" d="M216.709,8.016c1.652,0,3-1.347,3-3.001c0-1.654-1.348-3-3-3c-1.668,0-3.003,1.345-3.003,3
		C213.706,6.67,215.04,8.016,216.709,8.016z"/>
	<path fill="#AFCB49" d="M236.366,5.776c0.426,0,0.759-0.334,0.759-0.761c0-0.428-0.333-0.76-0.759-0.76
		c-0.414,0-0.762,0.333-0.762,0.76C235.604,5.441,235.952,5.776,236.366,5.776z"/>
	<path fill="#AFCB49" d="M59.376,29.646c2.745,0,4.961-2.227,4.961-4.959c0-2.749-2.215-4.962-4.961-4.962
		c-2.742,0-4.961,2.213-4.961,4.962C54.415,27.42,56.633,29.646,59.376,29.646z"/>
	<path fill="#AFCB49" d="M79.047,25.886c0.661,0,1.194-0.546,1.194-1.2c0-0.667-0.534-1.202-1.194-1.202
		c-0.667,0-1.2,0.534-1.2,1.202C77.847,25.341,78.38,25.886,79.047,25.886z"/>
	<path fill="#AFCB49" d="M98.712,27.459c1.534,0,2.782-1.237,2.782-2.771c0-1.549-1.248-2.788-2.782-2.788
		c-1.542,0-2.781,1.239-2.781,2.788C95.93,26.22,97.17,27.459,98.712,27.459z"/>
	<path fill="#AFCB49" d="M118.377,29.7c2.768,0,5.014-2.254,5.014-5.013c0-2.775-2.247-5.016-5.014-5.016
		c-2.775,0-5.014,2.24-5.014,5.016C113.362,27.446,115.601,29.7,118.377,29.7z"/>
	<path fill="#AFCB49" d="M138.042,25.287c0.333,0,0.6-0.281,0.6-0.6c0-0.334-0.267-0.602-0.6-0.602c-0.334,0-0.6,0.268-0.6,0.602
		C137.441,25.007,137.708,25.287,138.042,25.287z"/>
	<path fill="#AFCB49" d="M157.708,25.821c0.633,0,1.146-0.507,1.146-1.133c0-0.642-0.513-1.148-1.146-1.148
		c-0.636,0-1.149,0.507-1.149,1.148C156.559,25.313,157.072,25.821,157.708,25.821z"/>
	<path fill="#AFCB49" d="M177.376,24.847c0.082,0,0.162-0.079,0.162-0.16c0-0.095-0.08-0.173-0.162-0.173
		c-0.094,0-0.173,0.078-0.173,0.173C177.203,24.767,177.283,24.847,177.376,24.847z"/>
	<path fill="#AFCB49" d="M197.036,26.154c0.813,0,1.479-0.653,1.479-1.466c0-0.815-0.666-1.482-1.479-1.482
		c-0.812,0-1.468,0.667-1.468,1.482C195.568,25.5,196.224,26.154,197.036,26.154z"/>
	<path fill="#AFCB49" d="M216.709,28.768c2.252,0,4.079-1.827,4.079-4.081c0-2.269-1.827-4.096-4.079-4.096
		c-2.27,0-4.095,1.828-4.095,4.096C212.612,26.941,214.438,28.768,216.709,28.768z"/>
	<path fill="#AFCB49" d="M236.366,25.552c0.479,0,0.881-0.386,0.881-0.865c0-0.495-0.4-0.88-0.881-0.88s-0.868,0.386-0.868,0.88
		C235.498,25.167,235.884,25.552,236.366,25.552z"/>
	<path fill="#AFCB49" d="M256.038,24.953c0.146,0,0.268-0.121,0.268-0.266c0-0.161-0.12-0.281-0.268-0.281
		c-0.146,0-0.28,0.12-0.28,0.281C255.758,24.833,255.893,24.953,256.038,24.953z"/>
	<path fill="#AFCB49" d="M20.046,45.104c0.419,0,0.764-0.334,0.764-0.76c0-0.414-0.345-0.761-0.764-0.761
		c-0.421,0-0.761,0.347-0.761,0.761C19.285,44.77,19.625,45.104,20.046,45.104z"/>
	<path fill="#AFCB49" d="M59.376,47.346c1.659,0,3-1.349,3-3.002c0-1.653-1.341-3-3-3c-1.654,0-2.994,1.347-2.994,3
		C56.38,45.998,57.721,47.346,59.376,47.346z"/>
	<path fill="#AFCB49" d="M79.047,48.333c2.194,0,3.976-1.787,3.976-3.989c0-2.199-1.782-3.973-3.976-3.973
		c-2.2,0-3.981,1.774-3.981,3.973C75.065,46.545,76.846,48.333,79.047,48.333z"/>
	<path fill="#AFCB49" d="M98.712,47.4c1.687,0,3.055-1.361,3.055-3.056c0-1.68-1.368-3.054-3.055-3.054
		c-1.688,0-3.055,1.374-3.055,3.054C95.657,46.038,97.024,47.4,98.712,47.4z"/>
	<path fill="#AFCB49" d="M118.377,51.052c3.7,0,6.7-2.999,6.7-6.708c0-3.707-3-6.708-6.7-6.708c-3.708,0-6.709,3-6.709,6.708
		C111.667,48.052,114.668,51.052,118.377,51.052z"/>
	<path fill="#AFCB49" d="M138.042,51.92c4.187,0,7.575-3.387,7.575-7.576c0-4.187-3.388-7.574-7.575-7.574
		c-4.188,0-7.583,3.387-7.583,7.574C130.458,48.532,133.854,51.92,138.042,51.92z"/>
	<path fill="#AFCB49" d="M157.708,49.468c2.832,0,5.127-2.281,5.127-5.124c0-2.826-2.295-5.122-5.127-5.122
		c-2.836,0-5.13,2.296-5.13,5.122C152.578,47.187,154.872,49.468,157.708,49.468z"/>
	<path fill="#AFCB49" d="M177.376,49.468c2.829,0,5.124-2.281,5.124-5.124c0-2.826-2.295-5.122-5.124-5.122
		c-2.838,0-5.134,2.296-5.134,5.122C172.242,47.187,174.538,49.468,177.376,49.468z"/>
	<path fill="#AFCB49" d="M197.036,45.825c0.813,0,1.479-0.667,1.479-1.481c0-0.815-0.666-1.465-1.479-1.465
		c-0.812,0-1.468,0.65-1.468,1.465C195.568,45.157,196.224,45.825,197.036,45.825z"/>
	<path fill="#AFCB49" d="M216.709,45.651c0.72,0,1.307-0.587,1.307-1.307s-0.587-1.305-1.307-1.305
		c-0.733,0-1.308,0.585-1.308,1.305S215.976,45.651,216.709,45.651z"/>
	<path fill="#AFCB49" d="M236.366,50.999c3.682,0,6.654-2.973,6.654-6.655c0-3.667-2.973-6.653-6.654-6.653
		c-3.668,0-6.654,2.985-6.654,6.653C229.712,48.025,232.698,50.999,236.366,50.999z"/>
	<path fill="#AFCB49" d="M256.038,45.223c0.479,0,0.867-0.399,0.867-0.88s-0.387-0.867-0.867-0.867s-0.882,0.387-0.882,0.867
		S255.558,45.223,256.038,45.223z"/>
	<path fill="#AFCB49" d="M20.046,64.284c0.153,0,0.274-0.121,0.274-0.268c0-0.16-0.12-0.28-0.274-0.28
		c-0.146,0-0.272,0.121-0.272,0.28C19.773,64.162,19.899,64.284,20.046,64.284z"/>
	<path fill="#AFCB49" d="M39.711,65.591c0.874,0,1.579-0.708,1.579-1.575c0-0.879-0.706-1.586-1.579-1.586
		c-0.875,0-1.582,0.707-1.582,1.586C38.129,64.882,38.835,65.591,39.711,65.591z"/>
	<path fill="#AFCB49" d="M59.376,67.882c2.14,0,3.875-1.732,3.875-3.867c0-2.146-1.735-3.881-3.875-3.881
		c-2.135,0-3.87,1.733-3.87,3.881C55.506,66.151,57.24,67.882,59.376,67.882z"/>
	<path fill="#AFCB49" d="M79.047,69.952c3.281,0,5.942-2.655,5.942-5.937c0-3.28-2.661-5.948-5.942-5.948
		c-3.286,0-5.949,2.667-5.949,5.948C73.098,67.297,75.76,69.952,79.047,69.952z"/>
	<path fill="#AFCB49" d="M98.712,69.191c2.862,0,5.175-2.321,5.175-5.175c0-2.866-2.313-5.188-5.175-5.188
		c-2.869,0-5.182,2.322-5.182,5.188C93.53,66.87,95.843,69.191,98.712,69.191z"/>
	<path fill="#AFCB49" d="M118.377,68.217c2.319,0,4.194-1.88,4.194-4.201s-1.875-4.201-4.194-4.201c-2.32,0-4.203,1.88-4.203,4.201
		C114.175,66.335,116.056,68.217,118.377,68.217z"/>
	<path fill="#AFCB49" d="M138.042,70.672c3.674,0,6.648-2.988,6.648-6.656c0-3.679-2.974-6.656-6.648-6.656
		c-3.675,0-6.656,2.977-6.656,6.656C131.385,67.684,134.367,70.672,138.042,70.672z"/>
	<path fill="#AFCB49" d="M157.708,70.551c3.611,0,6.54-2.921,6.54-6.536c0-3.613-2.929-6.547-6.54-6.547
		c-3.616,0-6.543,2.934-6.543,6.547C151.166,67.631,154.092,70.551,157.708,70.551z"/>
	<path fill="#AFCB49" d="M177.376,69.243c2.883,0,5.231-2.333,5.231-5.229c0-2.892-2.349-5.24-5.231-5.24
		c-2.893,0-5.24,2.348-5.24,5.24C172.136,66.91,174.483,69.243,177.376,69.243z"/>
	<path fill="#AFCB49" d="M197.036,70.445c3.56,0,6.441-2.881,6.441-6.429c0-3.56-2.882-6.441-6.441-6.441
		c-3.549,0-6.429,2.881-6.429,6.441C190.607,67.564,193.487,70.445,197.036,70.445z"/>
	<path fill="#AFCB49" d="M216.709,68.537c2.493,0,4.521-2.028,4.521-4.522c0-2.508-2.027-4.534-4.521-4.534
		c-2.508,0-4.537,2.024-4.537,4.534C212.172,66.509,214.201,68.537,216.709,68.537z"/>
	<path fill="#AFCB49" d="M236.366,66.683c1.48,0,2.681-1.199,2.681-2.667c0-1.48-1.2-2.682-2.681-2.682
		c-1.468,0-2.668,1.202-2.668,2.682C233.698,65.484,234.898,66.683,236.366,66.683z"/>
	<path fill="#AFCB49" d="M256.038,64.443c0.241,0,0.44-0.186,0.44-0.427c0-0.24-0.199-0.438-0.44-0.438
		c-0.24,0-0.439,0.199-0.439,0.438C255.599,64.257,255.797,64.443,256.038,64.443z"/>
	<path fill="#AFCB49" d="M275.696,64.882c0.494,0,0.88-0.386,0.88-0.867c0-0.479-0.386-0.879-0.88-0.879
		c-0.479,0-0.866,0.4-0.866,0.879C274.83,64.497,275.214,64.882,275.696,64.882z"/>
	<path fill="#AFCB49" d="M20.046,84.552c0.479,0,0.872-0.398,0.872-0.877c0-0.482-0.392-0.868-0.872-0.868s-0.875,0.386-0.875,0.868
		C19.171,84.156,19.566,84.552,20.046,84.552z"/>
	<circle fill="#AFCB49" cx="39.711" cy="83.675" r="1.906"/>
	<path fill="#AFCB49" d="M59.376,86.728c1.686,0,3.054-1.358,3.054-3.051c0-1.681-1.368-3.055-3.054-3.055
		c-1.687,0-3.049,1.374-3.049,3.055C56.327,85.368,57.689,86.728,59.376,86.728z"/>
	<path fill="#AFCB49" d="M79.047,85.314c0.899,0,1.633-0.733,1.633-1.638c0-0.895-0.734-1.628-1.633-1.628
		c-0.905,0-1.641,0.733-1.641,1.628C77.406,84.581,78.142,85.314,79.047,85.314z"/>
	<path fill="#AFCB49" d="M98.712,87.22c1.955,0,3.541-1.587,3.541-3.544c0-1.962-1.586-3.537-3.541-3.537
		c-1.959,0-3.546,1.575-3.546,3.537C95.166,85.634,96.751,87.22,98.712,87.22z"/>
	<path fill="#AFCB49" d="M118.377,90.062c3.521,0,6.376-2.854,6.376-6.386c0-3.523-2.855-6.376-6.376-6.376
		c-3.528,0-6.382,2.853-6.382,6.376C111.996,87.209,114.849,90.062,118.377,90.062z"/>
	<path fill="#AFCB49" d="M138.042,90.276c3.647,0,6.595-2.949,6.595-6.601c0-3.644-2.948-6.589-6.595-6.589
		c-3.648,0-6.596,2.945-6.596,6.589C131.446,87.328,134.394,90.276,138.042,90.276z"/>
	<path fill="#AFCB49" d="M157.708,90.329c3.672,0,6.653-2.975,6.653-6.654c0-3.67-2.98-6.643-6.653-6.643
		c-3.678,0-6.656,2.973-6.656,6.643C151.052,87.355,154.03,90.329,157.708,90.329z"/>
	<path fill="#AFCB49" d="M177.376,89.621c3.282,0,5.937-2.653,5.937-5.945c0-3.282-2.654-5.937-5.937-5.937
		c-3.292,0-5.945,2.654-5.945,5.937C171.431,86.969,174.084,89.621,177.376,89.621z"/>
	<path fill="#AFCB49" d="M197.036,89.023c2.946,0,5.347-2.387,5.347-5.347c0-2.95-2.403-5.337-5.347-5.337
		c-2.945,0-5.349,2.387-5.349,5.337C191.688,86.635,194.091,89.023,197.036,89.023z"/>
	<path fill="#AFCB49" d="M216.709,85.755c1.147,0,2.065-0.934,2.065-2.079c0-1.148-0.918-2.068-2.065-2.068s-2.082,0.92-2.082,2.068
		C214.626,84.821,215.562,85.755,216.709,85.755z"/>
	<path fill="#AFCB49" d="M236.366,88.636c2.748,0,4.962-2.214,4.962-4.96c0-2.735-2.214-4.963-4.962-4.963
		c-2.734,0-4.962,2.228-4.962,4.963C231.404,86.422,233.632,88.636,236.366,88.636z"/>
	<path fill="#AFCB49" d="M256.038,85.101c0.788,0,1.413-0.64,1.413-1.425c0-0.773-0.625-1.415-1.413-1.415
		c-0.786,0-1.414,0.642-1.414,1.415C254.623,84.464,255.25,85.101,256.038,85.101z"/>
	<path fill="#AFCB49" d="M275.696,90.329c3.682,0,6.654-2.975,6.654-6.654c0-3.67-2.973-6.643-6.654-6.643
		c-3.667,0-6.642,2.973-6.642,6.643C269.055,87.355,272.026,90.329,275.696,90.329z"/>
	<path fill="#AFCB49" d="M295.366,84.449c0.429,0,0.761-0.347,0.761-0.773c0-0.415-0.332-0.761-0.761-0.761
		c-0.427,0-0.759,0.346-0.759,0.761C294.607,84.102,294.939,84.449,295.366,84.449z"/>
	<path fill="#AFCB49" d="M20.046,105.801c1.353,0,2.453-1.094,2.453-2.454c0-1.363-1.1-2.453-2.453-2.453
		c-1.354,0-2.455,1.09-2.455,2.453C17.591,104.707,18.691,105.801,20.046,105.801z"/>
	<path fill="#AFCB49" d="M39.711,105.467c1.173,0,2.125-0.947,2.125-2.12c0-1.175-0.952-2.134-2.125-2.134s-2.128,0.959-2.128,2.134
		C37.582,104.519,38.536,105.467,39.711,105.467z"/>
	<path fill="#AFCB49" d="M59.376,108.306c2.745,0,4.961-2.227,4.961-4.958c0-2.747-2.215-4.962-4.961-4.962
		c-2.742,0-4.961,2.214-4.961,4.962C54.415,106.079,56.633,108.306,59.376,108.306z"/>
	<path fill="#AFCB49" d="M79.047,105.52c1.2,0,2.182-0.974,2.182-2.173c0-1.202-0.982-2.188-2.182-2.188
		c-1.207,0-2.188,0.986-2.188,2.188C76.859,104.546,77.84,105.52,79.047,105.52z"/>
	<path fill="#AFCB49" d="M98.712,106.347c1.654,0,2.996-1.347,2.996-3.001c0-1.655-1.342-3.001-2.996-3.001
		c-1.662,0-3.001,1.346-3.001,3.001C95.711,105,97.049,106.347,98.712,106.347z"/>
	<path fill="#AFCB49" d="M118.377,107.375c2.225,0,4.034-1.801,4.034-4.029c0-2.228-1.809-4.042-4.034-4.042
		c-2.234,0-4.035,1.812-4.035,4.042C114.343,105.575,116.143,107.375,118.377,107.375z"/>
	<path fill="#AFCB49" d="M138.042,108.961c3.1,0,5.614-2.507,5.614-5.615c0-3.108-2.514-5.617-5.614-5.617
		c-3.101,0-5.615,2.509-5.615,5.617C132.426,106.454,134.941,108.961,138.042,108.961z"/>
	<path fill="#AFCB49" d="M157.708,108.626c2.918,0,5.286-2.359,5.286-5.28c0-2.921-2.368-5.296-5.286-5.296
		c-2.924,0-5.289,2.376-5.289,5.296C152.419,106.266,154.785,108.626,157.708,108.626z"/>
	<path fill="#AFCB49" d="M177.376,107.708c2.403,0,4.363-1.947,4.363-4.361c0-2.413-1.96-4.362-4.363-4.362
		c-2.413,0-4.36,1.949-4.36,4.362C173.016,105.761,174.963,107.708,177.376,107.708z"/>
	<path fill="#AFCB49" d="M197.036,107.708c2.415,0,4.361-1.947,4.361-4.361c0-2.413-1.946-4.362-4.361-4.362
		c-2.413,0-4.362,1.949-4.362,4.362C192.674,105.761,194.623,107.708,197.036,107.708z"/>
	<circle fill="#AFCB49" cx="216.709" cy="103.346" r="2.56"/>
	<path fill="#AFCB49" d="M236.366,107.267c2.174,0,3.936-1.748,3.936-3.92c0-2.174-1.762-3.921-3.936-3.921
		c-2.161,0-3.922,1.747-3.922,3.921C232.444,105.52,234.205,107.267,236.366,107.267z"/>
	<path fill="#AFCB49" d="M256.038,106.401c1.681,0,3.054-1.376,3.054-3.055c0-1.695-1.373-3.055-3.054-3.055
		c-1.695,0-3.054,1.359-3.054,3.055C252.984,105.025,254.343,106.401,256.038,106.401z"/>
	<path fill="#AFCB49" d="M275.696,107.214c2.146,0,3.881-1.734,3.881-3.867s-1.735-3.869-3.881-3.869
		c-2.134,0-3.868,1.734-3.868,3.869C271.828,105.48,273.562,107.214,275.696,107.214z"/>
	<path fill="#AFCB49" d="M295.366,106.347c1.656,0,3.002-1.347,3.002-3.001c0-1.655-1.346-3.001-3.002-3.001
		c-1.653,0-3,1.346-3,3.001C292.366,105,293.713,106.347,295.366,106.347z"/>
	<path fill="#AFCB49" d="M20.046,128.953c3.287,0,5.94-2.656,5.94-5.95c0-3.281-2.653-5.933-5.94-5.933
		c-3.283,0-5.943,2.652-5.943,5.933C14.103,126.297,16.763,128.953,20.046,128.953z"/>
	<path fill="#AFCB49" d="M39.711,128.9c3.255,0,5.887-2.643,5.887-5.896s-2.633-5.881-5.887-5.881s-5.889,2.625-5.889,5.881
		C33.822,126.258,36.456,128.9,39.711,128.9z"/>
	<path fill="#AFCB49" d="M59.376,126.937c2.172,0,3.927-1.758,3.927-3.933c0-2.162-1.755-3.92-3.927-3.92
		c-2.168,0-3.922,1.758-3.922,3.92C55.454,125.179,57.207,126.937,59.376,126.937z"/>
	<path fill="#AFCB49" d="M79.047,125.404c1.32,0,2.395-1.065,2.395-2.4c0-1.319-1.075-2.387-2.395-2.387
		c-1.327,0-2.399,1.068-2.399,2.387C76.647,124.339,77.719,125.404,79.047,125.404z"/>
	<path fill="#AFCB49" d="M98.712,125.899c1.594,0,2.889-1.296,2.889-2.895c0-1.586-1.295-2.882-2.889-2.882
		c-1.601,0-2.895,1.296-2.895,2.882C95.817,124.603,97.11,125.899,98.712,125.899z"/>
	<path fill="#AFCB49" d="M118.377,126.058c1.687,0,3.053-1.362,3.053-3.055c0-1.681-1.367-3.055-3.053-3.055
		c-1.688,0-3.055,1.374-3.055,3.055C115.323,124.696,116.689,126.058,118.377,126.058z"/>
	<path fill="#AFCB49" d="M138.042,127.432c2.44,0,4.414-1.988,4.414-4.429s-1.973-4.413-4.414-4.413s-4.416,1.973-4.416,4.413
		C133.626,125.443,135.601,127.432,138.042,127.432z"/>
	<path fill="#AFCB49" d="M157.708,127.539c2.498,0,4.526-2.027,4.526-4.536c0-2.496-2.028-4.52-4.526-4.52
		c-2.502,0-4.528,2.024-4.528,4.52C153.18,125.51,155.206,127.539,157.708,127.539z"/>
	<path fill="#AFCB49" d="M177.376,129.007c3.31,0,5.99-2.682,5.99-6.003c0-3.309-2.681-5.987-5.99-5.987
		c-3.319,0-5.999,2.679-5.999,5.987C171.377,126.325,174.057,129.007,177.376,129.007z"/>
	<path fill="#AFCB49" d="M197.036,128.459c3.012,0,5.453-2.442,5.453-5.455c0-3.001-2.441-5.44-5.453-5.44
		c-3.014,0-5.455,2.439-5.455,5.44C191.581,126.018,194.024,128.459,197.036,128.459z"/>
	<path fill="#AFCB49" d="M216.709,127.912c2.706,0,4.908-2.188,4.908-4.908c0-2.707-2.202-4.907-4.908-4.907
		c-2.723,0-4.909,2.201-4.909,4.907C211.8,125.724,213.986,127.912,216.709,127.912z"/>
	<path fill="#AFCB49" d="M236.366,127.539c2.507,0,4.535-2.027,4.535-4.536c0-2.496-2.028-4.52-4.535-4.52
		c-2.493,0-4.522,2.024-4.522,4.52C231.844,125.51,233.873,127.539,236.366,127.539z"/>
	<path fill="#AFCB49" d="M256.038,123.937c0.507,0,0.92-0.411,0.92-0.933c0-0.507-0.413-0.92-0.92-0.92
		c-0.521,0-0.935,0.412-0.935,0.92C255.104,123.526,255.518,123.937,256.038,123.937z"/>
	<path fill="#AFCB49" d="M275.696,124.484c0.812,0,1.478-0.666,1.478-1.48c0-0.812-0.665-1.467-1.478-1.467
		s-1.467,0.654-1.467,1.467C274.229,123.818,274.882,124.484,275.696,124.484z"/>
	<path fill="#AFCB49" d="M295.366,126.006c1.656,0,3.002-1.334,3.002-3.002c0-1.654-1.346-2.987-3.002-2.987
		c-1.653,0-3,1.333-3,2.987C292.366,124.671,293.713,126.006,295.366,126.006z"/>
	<path fill="#AFCB49" d="M315.026,127.965c2.745,0,4.974-2.213,4.974-4.961c0-2.735-2.228-4.961-4.974-4.961
		c-2.736,0-4.962,2.226-4.962,4.961C310.067,125.751,312.291,127.965,315.026,127.965z"/>
	<path fill="#AFCB49" d="M20.046,149.33c3.674,0,6.653-2.974,6.653-6.655c0-3.68-2.979-6.653-6.653-6.653
		c-3.674,0-6.649,2.976-6.649,6.653C13.397,146.357,16.372,149.33,20.046,149.33z"/>
	<path fill="#AFCB49" d="M39.711,145.344c1.48,0,2.675-1.188,2.675-2.669c0-1.479-1.195-2.666-2.675-2.666
		c-1.476,0-2.667,1.187-2.667,2.666C37.043,144.156,38.235,145.344,39.711,145.344z"/>
	<path fill="#AFCB49" d="M59.376,145.944c1.806,0,3.274-1.454,3.274-3.269c0-1.813-1.468-3.268-3.274-3.268
		c-1.808,0-3.268,1.454-3.268,3.268C56.108,144.49,57.568,145.944,59.376,145.944z"/>
	<path fill="#AFCB49" d="M79.047,149.491c3.761,0,6.815-3.055,6.815-6.816c0-3.76-3.054-6.813-6.815-6.813
		c-3.768,0-6.823,3.054-6.823,6.813C72.224,146.437,75.279,149.491,79.047,149.491z"/>
	<path fill="#AFCB49" d="M98.712,147.743c2.801,0,5.069-2.266,5.069-5.069c0-2.8-2.266-5.069-5.069-5.069
		c-2.808,0-5.074,2.269-5.074,5.069C93.638,145.478,95.904,147.743,98.712,147.743z"/>
	<path fill="#AFCB49" d="M118.377,148.127c3.012,0,5.448-2.438,5.448-5.452c0-3.013-2.435-5.454-5.448-5.454
		c-3.015,0-5.454,2.442-5.454,5.454C112.923,145.69,115.362,148.127,118.377,148.127z"/>
	<path fill="#AFCB49" d="M138.042,148.237c3.074,0,5.561-2.494,5.561-5.562c0-3.066-2.486-5.561-5.561-5.561
		c-3.074,0-5.562,2.495-5.562,5.561C132.48,145.742,134.967,148.237,138.042,148.237z"/>
	<path fill="#AFCB49" d="M157.708,146.542c2.141,0,3.872-1.732,3.872-3.867c0-2.133-1.731-3.867-3.872-3.867
		c-2.144,0-3.878,1.734-3.878,3.867C153.831,144.81,155.565,146.542,157.708,146.542z"/>
	<path fill="#AFCB49" d="M177.376,147.198c2.497,0,4.523-2.027,4.523-4.522c0-2.493-2.026-4.52-4.523-4.52
		c-2.506,0-4.532,2.026-4.532,4.52C172.844,145.169,174.87,147.198,177.376,147.198z"/>
	<path fill="#AFCB49" d="M197.036,147.97c2.919,0,5.293-2.373,5.293-5.295c0-2.919-2.375-5.294-5.293-5.294
		c-2.92,0-5.28,2.375-5.28,5.294C191.756,145.596,194.116,147.97,197.036,147.97z"/>
	<path fill="#AFCB49" d="M216.709,147.585c2.706,0,4.908-2.202,4.908-4.91c0-2.707-2.202-4.907-4.908-4.907
		c-2.723,0-4.909,2.2-4.909,4.907C211.8,145.383,213.986,147.585,216.709,147.585z"/>
	<path fill="#AFCB49" d="M236.366,148.075c2.988,0,5.401-2.412,5.401-5.401c0-2.986-2.413-5.4-5.401-5.4
		c-2.975,0-5.389,2.413-5.389,5.4C230.978,145.663,233.392,148.075,236.366,148.075z"/>
	<circle fill="#AFCB49" cx="256.038" cy="142.677" r="6.108"/>
	<path fill="#AFCB49" d="M275.696,143.22c0.309,0,0.547-0.237,0.547-0.546c0-0.306-0.238-0.547-0.547-0.547
		c-0.292,0-0.547,0.241-0.547,0.547C275.149,142.983,275.404,143.22,275.696,143.22z"/>
	<path fill="#AFCB49" d="M295.366,144.143c0.814,0,1.469-0.655,1.469-1.468s-0.654-1.465-1.469-1.465
		c-0.812,0-1.466,0.652-1.466,1.465S294.554,144.143,295.366,144.143z"/>
	<path fill="#AFCB49" d="M0.38,162.721c0.213,0,0.38-0.173,0.38-0.386c0-0.216-0.167-0.375-0.38-0.375
		c-0.213,0-0.38,0.16-0.38,0.375C0,162.547,0.167,162.721,0.38,162.721z"/>
	<path fill="#AFCB49" d="M39.711,163.922c0.874,0,1.579-0.706,1.579-1.587c0-0.868-0.706-1.575-1.579-1.575
		c-0.875,0-1.582,0.707-1.582,1.575C38.129,163.214,38.835,163.922,39.711,163.922z"/>
	<circle fill="#AFCB49" cx="59.376" cy="162.334" r="6.108"/>
	<path fill="#AFCB49" d="M79.047,168.281c3.281,0,5.942-2.653,5.942-5.946c0-3.281-2.661-5.937-5.942-5.937
		c-3.286,0-5.949,2.655-5.949,5.937C73.098,165.628,75.76,168.281,79.047,168.281z"/>
	<path fill="#AFCB49" d="M98.712,166.694c2.407,0,4.361-1.945,4.361-4.358c0-2.403-1.953-4.361-4.361-4.361
		c-2.415,0-4.36,1.959-4.36,4.361C94.352,164.748,96.296,166.694,98.712,166.694z"/>
	<path fill="#AFCB49" d="M118.377,167.628c2.919,0,5.287-2.372,5.287-5.293c0-2.924-2.368-5.282-5.287-5.282
		c-2.92,0-5.287,2.358-5.287,5.282C113.09,165.256,115.456,167.628,118.377,167.628z"/>
	<path fill="#AFCB49" d="M138.042,166.868c2.5,0,4.527-2.025,4.527-4.533c0-2.497-2.025-4.521-4.527-4.521
		c-2.5,0-4.528,2.024-4.528,4.521C133.513,164.842,135.542,166.868,138.042,166.868z"/>
	<path fill="#AFCB49" d="M157.708,166.214c2.141,0,3.872-1.732,3.872-3.879c0-2.137-1.731-3.867-3.872-3.867
		c-2.144,0-3.878,1.73-3.878,3.867C153.831,164.482,155.565,166.214,157.708,166.214z"/>
	<path fill="#AFCB49" d="M177.376,167.416c2.803,0,5.07-2.281,5.07-5.081c0-2.803-2.267-5.07-5.07-5.07
		c-2.812,0-5.08,2.267-5.08,5.07C172.296,165.135,174.564,167.416,177.376,167.416z"/>
	<path fill="#AFCB49" d="M197.036,166.922c2.534,0,4.587-2.053,4.587-4.587c0-2.522-2.053-4.575-4.587-4.575
		s-4.574,2.053-4.574,4.575C192.462,164.869,194.502,166.922,197.036,166.922z"/>
	<path fill="#AFCB49" d="M216.709,168.002c3.133,0,5.668-2.533,5.668-5.667s-2.535-5.669-5.668-5.669
		c-3.136,0-5.668,2.535-5.668,5.669S213.573,168.002,216.709,168.002z"/>
	<path fill="#AFCB49" d="M236.366,168.882c3.613,0,6.548-2.936,6.548-6.547c0-3.615-2.935-6.536-6.548-6.536
		c-3.614,0-6.536,2.921-6.536,6.536C229.83,165.947,232.752,168.882,236.366,168.882z"/>
	<path fill="#AFCB49" d="M256.038,168.99c3.667,0,6.656-2.976,6.656-6.654c0-3.669-2.989-6.643-6.656-6.643
		c-3.681,0-6.655,2.975-6.655,6.643C249.383,166.015,252.357,168.99,256.038,168.99z"/>
	<path fill="#AFCB49" d="M275.696,163.322c0.547,0,0.986-0.441,0.986-0.986c0-0.536-0.439-0.977-0.986-0.977
		c-0.533,0-0.975,0.44-0.975,0.977C274.722,162.881,275.163,163.322,275.696,163.322z"/>
	<path fill="#AFCB49" d="M295.366,162.562c0.119,0,0.215-0.107,0.215-0.227c0-0.121-0.095-0.216-0.215-0.216
		c-0.118,0-0.213,0.094-0.213,0.216C295.153,162.455,295.248,162.562,295.366,162.562z"/>
	<path fill="#AFCB49" d="M20.046,182.766c0.419,0,0.764-0.346,0.764-0.759c0-0.428-0.345-0.762-0.764-0.762
		c-0.421,0-0.761,0.334-0.761,0.762C19.285,182.42,19.625,182.766,20.046,182.766z"/>
	<path fill="#AFCB49" d="M39.711,189.142c3.946,0,7.142-3.188,7.142-7.135c0-3.95-3.195-7.149-7.142-7.149
		c-3.949,0-7.143,3.199-7.143,7.149C32.568,185.954,35.762,189.142,39.711,189.142z"/>
	<circle fill="#AFCB49" cx="59.376" cy="182.007" r="6.108"/>
	<path fill="#AFCB49" d="M79.047,187.514c3.042,0,5.501-2.467,5.501-5.507c0-3.043-2.46-5.509-5.501-5.509
		c-3.048,0-5.508,2.466-5.508,5.509C73.539,185.047,75.999,187.514,79.047,187.514z"/>
	<path fill="#AFCB49" d="M98.712,187.675c3.127,0,5.667-2.535,5.667-5.668c0-3.135-2.541-5.668-5.667-5.668
		c-3.135,0-5.675,2.533-5.675,5.668C93.037,185.14,95.576,187.675,98.712,187.675z"/>
	<path fill="#AFCB49" d="M118.377,188.328c3.495,0,6.322-2.829,6.322-6.321c0-3.497-2.827-6.322-6.322-6.322
		c-3.495,0-6.328,2.828-6.328,6.322C112.048,185.499,114.881,188.328,118.377,188.328z"/>
	<path fill="#AFCB49" d="M138.042,186.807c2.647,0,4.792-2.147,4.792-4.8c0-2.655-2.146-4.803-4.792-4.803
		c-2.654,0-4.802,2.147-4.802,4.803C133.24,184.659,135.387,186.807,138.042,186.807z"/>
	<path fill="#AFCB49" d="M157.708,186.087c2.26,0,4.084-1.829,4.084-4.08c0-2.27-1.824-4.095-4.084-4.095
		c-2.264,0-4.091,1.825-4.091,4.095C153.618,184.259,155.444,186.087,157.708,186.087z"/>
	<path fill="#AFCB49" d="M177.376,186.807c2.642,0,4.789-2.147,4.789-4.8c0-2.655-2.147-4.803-4.789-4.803
		c-2.651,0-4.801,2.147-4.801,4.803C172.575,184.659,174.725,186.807,177.376,186.807z"/>
	<path fill="#AFCB49" d="M197.036,187.568c3.08,0,5.56-2.496,5.56-5.561c0-3.083-2.479-5.562-5.56-5.562
		c-3.067,0-5.562,2.479-5.562,5.562C191.476,185.072,193.971,187.568,197.036,187.568z"/>
	<path fill="#AFCB49" d="M216.709,188.382c3.52,0,6.375-2.856,6.375-6.375c0-3.521-2.855-6.376-6.375-6.376
		c-3.535,0-6.388,2.854-6.388,6.376C210.319,185.526,213.172,188.382,216.709,188.382z"/>
	<path fill="#AFCB49" d="M236.366,188.875c3.801,0,6.868-3.083,6.868-6.868c0-3.803-3.067-6.869-6.868-6.869
		c-3.788,0-6.868,3.066-6.868,6.869C229.498,185.791,232.578,188.875,236.366,188.875z"/>
	<path fill="#AFCB49" d="M256.038,188.008c3.307,0,6.001-2.695,6.001-6.001c0-3.321-2.695-6.001-6.001-6.001
		c-3.32,0-6.001,2.68-6.001,6.001C250.037,185.312,252.717,188.008,256.038,188.008z"/>
	<path fill="#AFCB49" d="M275.696,187.406c2.986,0,5.402-2.428,5.402-5.4c0-2.989-2.416-5.403-5.402-5.403
		c-2.975,0-5.389,2.413-5.389,5.403C270.308,184.979,272.722,187.406,275.696,187.406z"/>
	<path fill="#AFCB49" d="M295.366,187.021c2.775,0,5.016-2.24,5.016-5.014c0-2.775-2.24-5.015-5.016-5.015
		c-2.772,0-5.014,2.239-5.014,5.015C290.353,184.781,292.594,187.021,295.366,187.021z"/>
	<path fill="#AFCB49" d="M20.046,207.719c3.346,0,6.053-2.706,6.053-6.056c0-3.334-2.708-6.041-6.053-6.041
		c-3.342,0-6.049,2.707-6.049,6.041C13.997,205.013,16.704,207.719,20.046,207.719z"/>
	<path fill="#AFCB49" d="M39.711,202.437c0.426,0,0.767-0.345,0.767-0.773c0-0.413-0.34-0.76-0.767-0.76
		c-0.422,0-0.761,0.347-0.761,0.76C38.95,202.092,39.288,202.437,39.711,202.437z"/>
	<path fill="#AFCB49" d="M59.376,207.719c3.346,0,6.055-2.706,6.055-6.056c0-3.334-2.708-6.041-6.055-6.041
		c-3.342,0-6.048,2.707-6.048,6.041C53.328,205.013,56.033,207.719,59.376,207.719z"/>
	<path fill="#AFCB49" d="M79.047,206.958c2.921,0,5.287-2.359,5.287-5.295c0-2.921-2.365-5.28-5.287-5.28
		c-2.928,0-5.294,2.359-5.294,5.28C73.752,204.597,76.119,206.958,79.047,206.958z"/>
	<path fill="#AFCB49" d="M98.712,208.546c3.794,0,6.869-3.078,6.869-6.882c0-3.787-3.073-6.869-6.869-6.869
		c-3.801,0-6.875,3.081-6.875,6.869C91.836,205.467,94.911,208.546,98.712,208.546z"/>
	<path fill="#AFCB49" d="M118.377,207.29c3.1,0,5.615-2.519,5.615-5.627c0-3.094-2.515-5.614-5.615-5.614
		c-3.108,0-5.614,2.521-5.614,5.614C112.762,204.772,115.269,207.29,118.377,207.29z"/>
	<path fill="#AFCB49" d="M138.042,206.024c2.408,0,4.36-1.945,4.36-4.359c0-2.4-1.952-4.36-4.36-4.36
		c-2.413,0-4.361,1.961-4.361,4.36C133.68,204.077,135.628,206.024,138.042,206.024z"/>
	<path fill="#AFCB49" d="M157.708,206.358c2.591,0,4.688-2.094,4.688-4.694c0-2.588-2.097-4.682-4.688-4.682
		c-2.596,0-4.689,2.094-4.689,4.682C153.019,204.264,155.112,206.358,157.708,206.358z"/>
	<path fill="#AFCB49" d="M177.376,204.505c1.562,0,2.829-1.268,2.829-2.842c0-1.56-1.268-2.827-2.829-2.827
		c-1.571,0-2.838,1.267-2.838,2.827C174.538,203.238,175.805,204.505,177.376,204.505z"/>
	<path fill="#AFCB49" d="M197.036,204.065c1.333,0,2.401-1.066,2.401-2.401c0-1.318-1.068-2.387-2.401-2.387
		c-1.32,0-2.4,1.068-2.4,2.387C194.636,202.998,195.716,204.065,197.036,204.065z"/>
	<path fill="#AFCB49" d="M216.709,208.052c3.52,0,6.375-2.854,6.375-6.389c0-3.52-2.855-6.375-6.375-6.375
		c-3.535,0-6.388,2.855-6.388,6.375C210.319,205.198,213.172,208.052,216.709,208.052z"/>
	<path fill="#AFCB49" d="M236.366,205.866c2.321,0,4.202-1.883,4.202-4.203c0-2.307-1.881-4.188-4.202-4.188
		c-2.32,0-4.201,1.881-4.201,4.188C232.165,203.983,234.046,205.866,236.366,205.866z"/>
	<path fill="#AFCB49" d="M256.038,208.372c3.707,0,6.71-3,6.71-6.709c0-3.693-3.003-6.694-6.71-6.694s-6.71,3.001-6.71,6.694
		C249.328,205.372,252.331,208.372,256.038,208.372z"/>
	<path fill="#AFCB49" d="M275.696,202.383c0.4,0,0.719-0.319,0.719-0.72c0-0.387-0.318-0.707-0.719-0.707
		c-0.389,0-0.706,0.32-0.706,0.707C274.99,202.064,275.308,202.383,275.696,202.383z"/>
	<path fill="#AFCB49" d="M315.026,201.889c0.132,0,0.226-0.106,0.226-0.226c0-0.121-0.094-0.213-0.226-0.213
		c-0.12,0-0.214,0.091-0.214,0.213C314.812,201.783,314.906,201.889,315.026,201.889z"/>
	<path fill="#AFCB49" d="M20.046,223.19c1.026,0,1.854-0.828,1.854-1.854c0-1.029-0.828-1.856-1.854-1.856
		c-1.021,0-1.854,0.827-1.854,1.856C18.192,222.362,19.025,223.19,20.046,223.19z"/>
	<path fill="#AFCB49" d="M39.711,222.924c0.874,0,1.579-0.722,1.579-1.588c0-0.882-0.706-1.589-1.579-1.589
		c-0.875,0-1.582,0.706-1.582,1.589C38.129,222.202,38.835,222.924,39.711,222.924z"/>
	<path fill="#AFCB49" d="M59.376,223.454c1.178,0,2.125-0.944,2.125-2.118s-0.947-2.119-2.125-2.119
		c-1.175,0-2.122,0.945-2.122,2.119C57.254,222.511,58.201,223.454,59.376,223.454z"/>
	<path fill="#AFCB49" d="M79.047,227.604c3.461,0,6.269-2.8,6.269-6.268c0-3.469-2.807-6.268-6.269-6.268
		c-3.468,0-6.276,2.799-6.276,6.268C72.771,224.804,75.579,227.604,79.047,227.604z"/>
	<path fill="#AFCB49" d="M98.712,227.764c3.553,0,6.428-2.867,6.428-6.428c0-3.562-2.875-6.429-6.428-6.429
		c-3.553,0-6.435,2.866-6.435,6.429C92.277,224.897,95.159,227.764,98.712,227.764z"/>
	<path fill="#AFCB49" d="M118.377,226.897c3.073,0,5.561-2.497,5.561-5.561c0-3.07-2.488-5.562-5.561-5.562
		c-3.074,0-5.561,2.492-5.561,5.562C112.816,224.401,115.302,226.897,118.377,226.897z"/>
	<path fill="#AFCB49" d="M138.042,227.284c3.282,0,5.941-2.669,5.941-5.948c0-3.282-2.659-5.948-5.941-5.948
		c-3.287,0-5.943,2.666-5.943,5.948C132.098,224.615,134.754,227.284,138.042,227.284z"/>
	<path fill="#AFCB49" d="M157.708,225.696c2.405,0,4.359-1.944,4.359-4.359s-1.953-4.359-4.359-4.359
		c-2.408,0-4.361,1.944-4.361,4.359S155.3,225.696,157.708,225.696z"/>
	<path fill="#AFCB49" d="M177.376,223.738c1.322,0,2.388-1.08,2.388-2.401s-1.065-2.403-2.388-2.403
		c-1.331,0-2.398,1.082-2.398,2.403S176.046,223.738,177.376,223.738z"/>
	<path fill="#AFCB49" d="M197.036,225.964c2.562,0,4.641-2.067,4.641-4.628s-2.078-4.643-4.641-4.643
		c-2.56,0-4.628,2.081-4.628,4.643S194.477,225.964,197.036,225.964z"/>
	<path fill="#AFCB49" d="M216.709,226.632c2.919,0,5.281-2.376,5.281-5.296c0-2.923-2.362-5.295-5.281-5.295
		c-2.923,0-5.296,2.372-5.296,5.295C211.413,224.256,213.786,226.632,216.709,226.632z"/>
	<path fill="#AFCB49" d="M236.366,226.508c2.868,0,5.188-2.308,5.188-5.172c0-2.869-2.319-5.175-5.188-5.175
		c-2.854,0-5.176,2.307-5.176,5.175C231.19,224.201,233.513,226.508,236.366,226.508z"/>
	<path fill="#AFCB49" d="M256.038,222.097c0.413,0,0.76-0.336,0.76-0.761c0-0.428-0.347-0.761-0.76-0.761
		c-0.427,0-0.76,0.333-0.76,0.761C255.278,221.761,255.611,222.097,256.038,222.097z"/>
	<path fill="#AFCB49" d="M275.696,226.351c2.772,0,5.016-2.24,5.016-5.015c0-2.773-2.242-5.017-5.016-5.017
		c-2.761,0-5.016,2.243-5.016,5.017C270.681,224.111,272.933,226.351,275.696,226.351z"/>
	<path fill="#AFCB49" d="M59.376,241.713c0.393,0,0.713-0.32,0.713-0.706c0-0.399-0.32-0.72-0.713-0.72
		c-0.387,0-0.707,0.32-0.707,0.72C58.668,241.393,58.989,241.713,59.376,241.713z"/>
	<path fill="#AFCB49" d="M79.047,247.703c3.7,0,6.702-3.003,6.702-6.696c0-3.708-3-6.709-6.702-6.709
		c-3.708,0-6.71,3.001-6.71,6.709C72.337,244.7,75.338,247.703,79.047,247.703z"/>
	<path fill="#AFCB49" d="M98.712,247.048c3.339,0,6.048-2.705,6.048-6.041c0-3.346-2.709-6.055-6.048-6.055
		c-3.349,0-6.055,2.709-6.055,6.055C92.657,244.343,95.362,247.048,98.712,247.048z"/>
	<path fill="#AFCB49" d="M118.377,246.236c2.888,0,5.235-2.348,5.235-5.229c0-2.895-2.348-5.241-5.235-5.241
		c-2.894,0-5.234,2.347-5.234,5.241C113.143,243.888,115.482,246.236,118.377,246.236z"/>
	<path fill="#AFCB49" d="M138.042,242.421c0.78,0,1.413-0.64,1.413-1.414c0-0.787-0.634-1.424-1.413-1.424
		c-0.788,0-1.421,0.638-1.421,1.424C136.621,241.782,137.254,242.421,138.042,242.421z"/>
	<path fill="#AFCB49" d="M157.708,244.928c2.166,0,3.926-1.762,3.926-3.922c0-2.175-1.76-3.933-3.926-3.933
		c-2.168,0-3.931,1.758-3.931,3.933C153.777,243.166,155.54,244.928,157.708,244.928z"/>
	<path fill="#AFCB49" d="M177.376,243.182c1.202,0,2.176-0.977,2.176-2.175c0-1.215-0.974-2.188-2.176-2.188
		c-1.211,0-2.186,0.975-2.186,2.188C175.19,242.206,176.165,243.182,177.376,243.182z"/>
	<path fill="#AFCB49" d="M197.036,245.529c2.509,0,4.521-2.026,4.521-4.521c0-2.506-2.013-4.535-4.521-4.535
		c-2.494,0-4.521,2.028-4.521,4.535C192.515,243.501,194.542,245.529,197.036,245.529z"/>
	<path fill="#AFCB49" d="M216.709,242.313c0.72,0,1.307-0.586,1.307-1.307c0-0.734-0.587-1.319-1.307-1.319
		c-0.733,0-1.308,0.587-1.308,1.319C215.401,241.728,215.976,242.313,216.709,242.313z"/>
	<path fill="#AFCB49" d="M236.366,244.98c2.201,0,3.988-1.784,3.988-3.974c0-2.201-1.786-3.987-3.988-3.987
		c-2.201,0-3.975,1.786-3.975,3.987C232.392,243.196,234.167,244.98,236.366,244.98z"/>
	<path fill="#AFCB49" d="M256.038,244.98c2.198,0,3.973-1.784,3.973-3.974c0-2.201-1.774-3.987-3.973-3.987
		c-2.201,0-3.988,1.786-3.988,3.987C252.05,243.196,253.837,244.98,256.038,244.98z"/>
	<path fill="#AFCB49" d="M275.696,241.22c0.119,0,0.228-0.094,0.228-0.214c0-0.122-0.106-0.225-0.228-0.225
		c-0.119,0-0.214,0.104-0.214,0.225C275.482,241.125,275.576,241.22,275.696,241.22z"/>
	<path fill="#AFCB49" d="M59.376,262.252c0.873,0,1.586-0.708,1.586-1.586c0-0.867-0.713-1.575-1.586-1.575
		c-0.875,0-1.581,0.708-1.581,1.575C57.795,261.544,58.501,262.252,59.376,262.252z"/>
	<path fill="#AFCB49" d="M79.047,261.812c0.627,0,1.141-0.505,1.141-1.146c0-0.629-0.513-1.149-1.141-1.149
		c-0.633,0-1.146,0.521-1.146,1.149C77.901,261.307,78.414,261.812,79.047,261.812z"/>
	<path fill="#AFCB49" d="M98.712,264.479c2.108,0,3.814-1.706,3.814-3.812c0-2.109-1.706-3.816-3.814-3.816
		c-2.114,0-3.821,1.707-3.821,3.816C94.891,262.773,96.598,264.479,98.712,264.479z"/>
	<path fill="#AFCB49" d="M118.377,267.429c3.733,0,6.761-3.031,6.761-6.763c0-3.735-3.027-6.763-6.761-6.763
		c-3.735,0-6.763,3.027-6.763,6.763C111.615,264.398,114.642,267.429,118.377,267.429z"/>
	<path fill="#AFCB49" d="M138.042,263.334c1.474,0,2.674-1.188,2.674-2.668s-1.2-2.667-2.674-2.667
		c-1.474,0-2.674,1.187-2.674,2.667S136.569,263.334,138.042,263.334z"/>
	<path fill="#AFCB49" d="M157.708,261.974c0.72,0,1.306-0.589,1.306-1.308c0-0.722-0.586-1.309-1.306-1.309
		c-0.723,0-1.309,0.587-1.309,1.309C156.399,261.385,156.985,261.974,157.708,261.974z"/>
	<path fill="#AFCB49" d="M177.376,266.561c3.256,0,5.883-2.642,5.883-5.895s-2.627-5.884-5.883-5.884
		c-3.253,0-5.892,2.631-5.892,5.884S174.123,266.561,177.376,266.561z"/>
	<path fill="#AFCB49" d="M197.036,263.72c1.693,0,3.053-1.36,3.053-3.054c0-1.682-1.356-3.054-3.053-3.054
		c-1.682,0-3.054,1.372-3.054,3.054C193.982,262.359,195.354,263.72,197.036,263.72z"/>
	<path fill="#AFCB49" d="M216.709,263.665c1.652,0,3-1.346,3-2.999s-1.348-3.001-3-3.001c-1.668,0-3.003,1.348-3.003,3.001
		C213.706,262.321,215.04,263.665,216.709,263.665z"/>
	<path fill="#AFCB49" d="M236.366,263.665c1.654,0,3.002-1.346,3.002-2.999s-1.348-3.001-3.002-3.001c-1.653,0-3,1.348-3,3.001
		C233.366,262.321,234.713,263.665,236.366,263.665z"/>
	<path fill="#AFCB49" d="M256.038,265.624c2.733,0,4.961-2.211,4.961-4.958c0-2.736-2.228-4.962-4.961-4.962
		c-2.748,0-4.962,2.226-4.962,4.962C251.076,263.413,253.289,265.624,256.038,265.624z"/>
	<path fill="#AFCB49" d="M275.696,260.717c0.04,0,0.055-0.023,0.055-0.051c0-0.026-0.015-0.054-0.055-0.054
		c-0.026,0-0.054,0.026-0.054,0.054S275.67,260.717,275.696,260.717z"/>
	<path fill="#AFCB49" d="M79.047,280.55c0.119,0,0.212-0.096,0.212-0.213c0-0.12-0.094-0.228-0.212-0.228
		c-0.126,0-0.22,0.107-0.22,0.228C78.827,280.454,78.919,280.55,79.047,280.55z"/>
	<path fill="#AFCB49" d="M98.712,281.31c0.541,0,0.98-0.439,0.98-0.973c0-0.548-0.439-0.986-0.98-0.986
		c-0.547,0-0.988,0.438-0.988,0.986C97.724,280.872,98.165,281.31,98.712,281.31z"/>
	<path fill="#AFCB49" d="M118.377,283.005c1.473,0,2.667-1.199,2.667-2.667c0-1.481-1.194-2.682-2.667-2.682
		c-1.48,0-2.676,1.2-2.676,2.682C115.702,281.806,116.897,283.005,118.377,283.005z"/>
	<path fill="#AFCB49" d="M138.042,286.978c3.674,0,6.648-2.975,6.648-6.641c0-3.681-2.974-6.657-6.648-6.657
		c-3.675,0-6.656,2.977-6.656,6.657C131.385,284.005,134.367,286.978,138.042,286.978z"/>
	<path fill="#AFCB49" d="M157.708,286.978c3.672,0,6.653-2.975,6.653-6.641c0-3.681-2.98-6.657-6.653-6.657
		c-3.678,0-6.656,2.977-6.656,6.657C151.052,284.005,154.03,286.978,157.708,286.978z"/>
	<path fill="#AFCB49" d="M177.376,282.405c1.135,0,2.068-0.92,2.068-2.067s-0.934-2.081-2.068-2.081
		c-1.144,0-2.079,0.934-2.079,2.081S176.232,282.405,177.376,282.405z"/>
	<circle fill="#AFCB49" cx="197.036" cy="280.337" r="1.907"/>
	<circle fill="#AFCB49" cx="216.709" cy="280.337" r="1.907"/>
	<path fill="#AFCB49" d="M236.366,284.257c2.174,0,3.936-1.762,3.936-3.919c0-2.175-1.762-3.935-3.936-3.935
		c-2.161,0-3.922,1.76-3.922,3.935C232.444,282.495,234.205,284.257,236.366,284.257z"/>
	<path fill="#AFCB49" d="M118.377,300.382c0.205,0,0.379-0.173,0.379-0.387c0-0.215-0.174-0.372-0.379-0.372
		c-0.214,0-0.38,0.158-0.38,0.372S118.164,300.382,118.377,300.382z"/>
	<path fill="#AFCB49" d="M197.036,302.448c1.361,0,2.455-1.095,2.455-2.451c0-1.348-1.094-2.455-2.455-2.455
		c-1.359,0-2.453,1.108-2.453,2.455C194.583,301.354,195.677,302.448,197.036,302.448z"/>
	<path fill="#AFCB49" d="M216.709,300.277c0.146,0,0.267-0.122,0.267-0.281c0-0.148-0.121-0.269-0.267-0.269
		c-0.16,0-0.281,0.12-0.281,0.269C216.428,300.155,216.547,300.277,216.709,300.277z"/>
	<path fill="#AFCB49" d="M236.366,300.753c0.426,0,0.759-0.331,0.759-0.758c0-0.414-0.333-0.761-0.759-0.761
		c-0.414,0-0.762,0.347-0.762,0.761C235.604,300.422,235.952,300.753,236.366,300.753z"/>
</g>
</svg>
